<svg width="12" height="12" viewBox="0 0 12 12" fill="none" xmlns="http://www.w3.org/2000/svg">
<g clip-path="url(#clip0)">
<path d="M10.2419 1.75782C7.89774 -0.586405 4.10312 -0.586779 1.75856 1.75782C-0.585687 4.10205 -0.586038 7.89662 1.75856 10.2412C4.10274 12.5854 7.89737 12.5858 10.2419 10.2412C12.5862 7.89697 12.5865 4.1024 10.2419 1.75782ZM9.9912 9.3861C9.71093 9.13548 9.41113 8.91368 9.09512 8.72254C9.30399 8.00105 9.42773 7.20709 9.45698 6.38178H11.2206C11.1409 7.49423 10.7134 8.53777 9.9912 9.3861ZM0.779863 6.38178H2.54348C2.57273 7.20709 2.69647 8.00105 2.90534 8.72254C2.58933 8.91368 2.28953 9.13548 2.00926 9.3861C1.28703 8.53777 0.859626 7.49423 0.779863 6.38178V6.38178ZM2.00928 2.61292C2.28955 2.86354 2.58935 3.08534 2.90536 3.27648C2.69649 3.99798 2.57275 4.79193 2.5435 5.61724H0.779863C0.859626 4.50482 1.28703 3.46128 2.00928 2.61292V2.61292ZM5.61798 3.35549C4.99454 3.31091 4.39341 3.15735 3.83613 2.90403C4.16024 2.06943 4.75773 1.06841 5.61798 0.820338V3.35549ZM5.61798 4.12146V5.61727H3.30835C3.33481 4.91912 3.43373 4.24872 3.59824 3.63532C4.23155 3.91217 4.91265 4.07751 5.61798 4.12146V4.12146ZM5.61798 6.38178V7.87758C4.91265 7.92154 4.23155 8.08687 3.59824 8.36373C3.43373 7.75033 3.33481 7.07993 3.30835 6.38178H5.61798ZM5.61798 8.64355V11.1787C4.75778 10.9306 4.16028 9.92971 3.83613 9.09501C4.39341 8.8417 4.99454 8.68814 5.61798 8.64355ZM6.3825 8.64355C7.00594 8.68814 7.60707 8.8417 8.16436 9.09501C7.84022 9.92964 7.24275 10.9306 6.3825 11.1787V8.64355ZM6.3825 7.87758V6.38178H8.69214C8.66568 7.07993 8.56676 7.75033 8.40224 8.36373C7.76894 8.08687 7.08784 7.92154 6.3825 7.87758ZM6.3825 5.61727V4.12146C7.08784 4.07751 7.76894 3.91217 8.40224 3.63532C8.56676 4.24872 8.66568 4.91912 8.69214 5.61727H6.3825ZM6.3825 3.35549V0.820361C7.24275 1.06843 7.84025 2.06945 8.16436 2.90406C7.60707 3.15735 7.00594 3.31091 6.3825 3.35549ZM8.09954 1.20201C8.58886 1.41629 9.04538 1.70684 9.45462 2.06734C9.25982 2.23909 9.05428 2.39483 8.83965 2.53409C8.64905 2.06217 8.40557 1.60354 8.09954 1.20201V1.20201ZM3.16081 2.53409C2.94618 2.39483 2.74066 2.23909 2.54584 2.06734C2.95508 1.70684 3.4116 1.41629 3.90092 1.20201C3.59489 1.60359 3.35141 2.06221 3.16081 2.53409V2.53409ZM3.16083 9.46495C3.35141 9.93686 3.59494 10.3955 3.90095 10.797C3.41162 10.5828 2.9551 10.2922 2.54587 9.9317C2.74066 9.75995 2.9462 9.60422 3.16083 9.46495V9.46495ZM8.83965 9.46495C9.05428 9.60422 9.25982 9.75995 9.45462 9.93168C9.04538 10.2922 8.58886 10.5827 8.09954 10.797C8.40554 10.3955 8.64905 9.93688 8.83965 9.46495ZM9.45701 5.61727C9.42776 4.79195 9.30401 3.99798 9.09515 3.2765C9.41115 3.08536 9.71093 2.86357 9.99123 2.61294C10.7134 3.46128 11.1409 4.50482 11.2206 5.61727H9.45701Z" fill="url(#paint0_linear)"/>
</g>
<defs>
<linearGradient id="paint0_linear" x1="21.2949" y1="11.9995" x2="-3.40572" y2="0.0889035" gradientUnits="userSpaceOnUse">
<stop stop-color="#CD8A9A"/>
<stop offset="1" stop-color="#FEAAA0"/>
</linearGradient>
<clipPath id="clip0">
<rect width="12" height="12" fill="white"/>
</clipPath>
</defs>
</svg>
