<svg width="24" height="24" viewBox="0 0 24 24" fill="none" xmlns="http://www.w3.org/2000/svg">
<path d="M12 0C5.37097 0 0 5.37097 0 12C0 18.629 5.37097 24 12 24C18.629 24 24 18.629 24 12C24 5.37097 18.629 0 12 0ZM15.0823 6.22742C15.45 5.67581 16.2774 5.66129 16.6645 6.22742C17.2645 7.11774 17.3952 8.0129 17.4242 8.90323C17.4 9.79355 17.2645 10.6887 16.6645 11.579C16.2968 12.1306 15.4694 12.1452 15.0823 11.579C14.4823 10.6887 14.3516 9.79355 14.3226 8.90323C14.3468 8.0129 14.4823 7.11774 15.0823 6.22742ZM7.34032 6.22742C7.70806 5.67581 8.53548 5.66129 8.92258 6.22742C9.52258 7.11774 9.65323 8.0129 9.68226 8.90323C9.65806 9.79355 9.52258 10.6887 8.92258 11.579C8.55484 12.1306 7.72742 12.1452 7.34032 11.579C6.74032 10.6887 6.60968 9.79355 6.58065 8.90323C6.60484 8.0129 6.74032 7.11774 7.34032 6.22742ZM12 20.5161C9.06774 20.5161 5.49194 18.6629 5.04193 16.0016C4.94516 15.4306 5.49194 14.9565 6.04355 15.1355C7.50484 15.6048 9.67742 15.871 12 15.871C14.3226 15.871 16.4952 15.6048 17.9565 15.1355C18.5081 14.9565 19.05 15.4306 18.9581 16.0016C18.5081 18.6629 14.9323 20.5161 12 20.5161Z" fill="#0EBF50"/>
</svg>
