<svg width="14" height="28" viewBox="0 0 14 28" fill="none" xmlns="http://www.w3.org/2000/svg">
<path d="M10.5 21C10.5 22.933 8.93297 24.5 6.99998 24.5C5.067 24.5 3.49998 22.933 3.49998 21C3.49998 19.7047 4.20414 18.5747 5.24998 17.9694V15.75C5.24998 14.7835 6.03349 14 6.99998 14C7.96647 14 8.74998 14.7835 8.74998 15.75V17.9694C9.79582 18.5747 10.5 19.7047 10.5 21ZM12.25 16.3705C13.3389 17.6045 14 19.2249 14 21C14 24.8662 10.8662 28 6.99998 28C6.98363 28 6.96668 27.9999 6.95027 27.9998C3.10563 27.9731 -0.0195408 24.8082 9.19987e-05 20.9635C0.00906075 19.2027 0.668537 17.596 1.74998 16.3705V5.25C1.74998 2.35052 4.1005 0 6.99998 0C9.89946 0 12.25 2.35052 12.25 5.25V16.3705ZM11.375 21C11.375 19.1221 10.3157 18.1459 9.62498 17.3632V5.25C9.62498 3.80259 8.44739 2.625 6.99998 2.625C5.55257 2.625 4.37498 3.80259 4.37498 5.25V17.3632C3.6787 18.1522 2.63455 19.1186 2.62504 20.9769C2.61279 23.3764 4.56989 25.3583 6.96848 25.3749L6.99998 25.375C9.41236 25.375 11.375 23.4124 11.375 21Z" fill="url(#paint0_linear)"/>
<defs>
<linearGradient id="paint0_linear" x1="24.8438" y1="28" x2="-8.72292" y2="19.9071" gradientUnits="userSpaceOnUse">
<stop stop-color="#E8C364"/>
<stop offset="1" stop-color="#FEC7A0"/>
</linearGradient>
</defs>
</svg>
