<svg width="21" height="28" viewBox="0 0 21 28" fill="none" xmlns="http://www.w3.org/2000/svg">
<path d="M20.7895 27.9364C20.6903 27.9966 20.5712 28.0149 20.4585 27.9874C20.3458 27.9598 20.2487 27.8886 20.1885 27.7894L13.3345 16.5005C13.6111 16.3908 13.855 16.2122 14.0431 15.9818L20.9364 27.3353C20.9662 27.3844 20.9861 27.4389 20.9948 27.4957C21.0036 27.5525 21.0011 27.6105 20.9874 27.6663C20.9738 27.7221 20.9493 27.7747 20.9153 27.821C20.8813 27.8674 20.8386 27.9066 20.7895 27.9364ZM7.80954 17.1904L6.03001 22.0841L8.00532 26.9122C8.37134 27.8068 9.39312 28.2352 10.2876 27.8692C11.1821 27.5033 11.6106 26.4815 11.2447 25.5869L7.80954 17.1904ZM5.25 4.8125C6.57896 4.8125 7.65625 3.73521 7.65625 2.40625C7.65625 1.07729 6.57896 0 5.25 0C3.92104 0 2.84375 1.07729 2.84375 2.40625C2.84375 3.73521 3.92104 4.8125 5.25 4.8125ZM13.7176 14.0617L7.15515 5.74919C6.89631 5.42134 6.51257 5.25109 6.125 5.25087L4.375 5.25V5.25142C3.9842 5.25159 3.59751 5.42429 3.339 5.75673L0 10.0497V15.283C0 16.0188 0.602164 16.6387 1.33788 16.6248C2.05105 16.6112 2.625 16.0289 2.625 15.3125V10.9503L3.5 9.82532V17.5197L0.542883 25.6514C0.21257 26.5597 0.681133 27.5638 1.58949 27.8941C2.49741 28.2244 3.5018 27.7561 3.83217 26.8475L7.4375 16.9333V11.071L5.71998 8.89355C5.70213 8.87104 5.68889 8.84524 5.68102 8.81761C5.67314 8.78998 5.67078 8.76107 5.67408 8.73253C5.67737 8.70399 5.68626 8.67638 5.70022 8.65128C5.71419 8.62617 5.73296 8.60406 5.75548 8.58621C5.77799 8.56836 5.80379 8.55512 5.83142 8.54724C5.85905 8.53936 5.88796 8.53701 5.9165 8.5403C5.97414 8.54696 6.02677 8.57624 6.06282 8.6217L11.6574 15.6883C12.1575 16.3218 12.99 16.3084 13.5008 15.9051C14.0701 15.4558 14.1657 14.629 13.7176 14.0617Z" fill="#0099FF"/>
</svg>
