<svg width="18" height="24" viewBox="0 0 18 24" fill="none" xmlns="http://www.w3.org/2000/svg">
<path d="M17.25 2.25C17.6625 2.25 18 1.9125 18 1.5V0.75C18 0.3375 17.6625 0 17.25 0H0.75C0.3375 0 0 0.3375 0 0.75V1.5C0 1.9125 0.3375 2.25 0.75 2.25H1.5V9.59531C0.553125 10.0687 0 10.6359 0 11.25C0 14.4 1.62188 17.1656 4.06875 18.7734L3.06563 22.0641C2.77031 23.025 3.49219 24 4.5 24H13.5C14.5078 24 15.2297 23.025 14.9344 22.0641L13.9313 18.7734C16.3781 17.1656 18 14.4 18 11.25C18 10.6359 17.4469 10.0687 16.5 9.59531V2.25H17.25ZM3.75 3.375C3.75 3.16875 3.91875 3 4.125 3H6.375C6.58125 3 6.75 3.16875 6.75 3.375V4.125C6.75 4.33125 6.58125 4.5 6.375 4.5H4.125C3.91875 4.5 3.75 4.33125 3.75 4.125V3.375ZM9 12.75C5.38594 12.75 2.45625 12.0797 2.45625 11.25C2.45625 10.4203 5.38594 9.75 9 9.75C12.6141 9.75 15.5438 10.4203 15.5438 11.25C15.5438 12.0797 12.6141 12.75 9 12.75Z" fill="url(#paint0_linear)"/>
<defs>
<linearGradient id="paint0_linear" x1="31.942" y1="24" x2="-8.44204" y2="9.39515" gradientUnits="userSpaceOnUse">
<stop stop-color="#8ACDAD"/>
<stop offset="1" stop-color="#A0EDFE"/>
</linearGradient>
</defs>
</svg>
