<svg width="25" height="22" viewBox="0 0 25 22" fill="none" xmlns="http://www.w3.org/2000/svg">
<path d="M24.4714 18.9068C25.2646 20.2816 24.269 22 22.6849 22H2.06483C0.477696 22 -0.513249 20.2789 0.278321 18.9068L10.5885 1.03061C11.382 -0.344781 13.3694 -0.342289 14.1615 1.03061L24.4714 18.9068ZM12.375 15.2109C11.2834 15.2109 10.3984 16.0959 10.3984 17.1875C10.3984 18.2791 11.2834 19.1641 12.375 19.1641C13.4666 19.1641 14.3516 18.2791 14.3516 17.1875C14.3516 16.0959 13.4666 15.2109 12.375 15.2109ZM10.4984 8.10623L10.8172 13.95C10.8321 14.2234 11.0582 14.4375 11.332 14.4375H13.418C13.6918 14.4375 13.9179 14.2234 13.9328 13.95L14.2516 8.10623C14.2677 7.81086 14.0325 7.5625 13.7367 7.5625H11.0132C10.7175 7.5625 10.4823 7.81086 10.4984 8.10623Z" fill="url(#paint0_linear)"/>
<defs>
<linearGradient id="paint0_linear" x1="43.9203" y1="22" x2="-4.59373" y2="-4.31758" gradientUnits="userSpaceOnUse">
<stop stop-color="#FFB946"/>
<stop offset="1" stop-color="#FFB946"/>
</linearGradient>
</defs>
</svg>
