<svg width="16" height="22" viewBox="0 0 16 22" fill="none" xmlns="http://www.w3.org/2000/svg">
<path d="M8.81804 0.949194C8.47687 -0.287445 6.69367 -0.345023 6.30695 0.949194C4.2973 7.72794 0 9.57001 0 14.3477C0 18.5775 3.3825 22 7.56249 22C11.7425 22 15.125 18.5775 15.125 14.3477C15.125 9.54595 10.8371 7.75888 8.81804 0.949194ZM7.56249 19.25C4.90918 19.25 2.75 17.0908 2.75 14.4375C2.75 14.0577 3.05765 13.75 3.4375 13.75C3.81734 13.75 4.125 14.0577 4.125 14.4375C4.125 16.3329 5.66714 17.875 7.56249 17.875C7.94234 17.875 8.24999 18.1827 8.24999 18.5625C8.24999 18.9423 7.94234 19.25 7.56249 19.25Z" fill="url(#paint0_linear)"/>
<defs>
<linearGradient id="paint0_linear" x1="26.8401" y1="22" x2="-7.73235" y2="10.5388" gradientUnits="userSpaceOnUse">
<stop stop-color="#8AA1CD"/>
<stop offset="1" stop-color="#A0B5FE"/>
</linearGradient>
</defs>
</svg>
