<svg width="28" height="24" viewBox="0 0 28 24" fill="none" xmlns="http://www.w3.org/2000/svg">
<path d="M17.1534 11.3485L14.4911 16.6732C14.1697 17.3214 13.2376 17.2999 12.9429 16.641L9.89489 9.87534L8.28784 13.7162H3.24704L13.0233 23.7067C13.4036 24.0978 14.0197 24.0978 14.4 23.7067L24.1816 13.7162H18.3373L17.1534 11.3485ZM25.3762 2.2472L25.2476 2.11328C22.4888 -0.704425 17.973 -0.704425 15.2089 2.11328L13.7143 3.64533L12.2198 2.11863C9.46098 -0.704425 4.93981 -0.704425 2.18103 2.11863L2.05247 2.2472C-0.556316 4.9149 -0.668809 9.16288 1.66142 12.002H7.14683L9.06993 7.38441C9.3592 6.69338 10.3341 6.67731 10.6448 7.36298L13.7625 14.2894L16.3874 9.04503C16.7034 8.41292 17.6034 8.41292 17.9194 9.04503L19.3979 12.002H25.7672C28.0974 9.16288 27.985 4.9149 25.3762 2.2472Z" fill="#FF0000"/>
</svg>
