<svg width="34" height="20" viewBox="0 0 34 20" fill="none" xmlns="http://www.w3.org/2000/svg">
<path d="M9.16667 10C11.4641 10 13.3333 8.13073 13.3333 5.83333C13.3333 3.53594 11.4641 1.66667 9.16667 1.66667C6.86927 1.66667 5 3.53594 5 5.83333C5 8.13073 6.86927 10 9.16667 10ZM27.5 3.33333H15.8333C15.3729 3.33333 15 3.70625 15 4.16667V11.6667H3.33333V0.833333C3.33333 0.372917 2.96042 0 2.5 0H0.833333C0.372917 0 0 0.372917 0 0.833333V19.1667C0 19.6271 0.372917 20 0.833333 20H2.5C2.96042 20 3.33333 19.6271 3.33333 19.1667V16.6667H30V19.1667C30 19.6271 30.3729 20 30.8333 20H32.5C32.9604 20 33.3333 19.6271 33.3333 19.1667V9.16667C33.3333 5.94479 30.7219 3.33333 27.5 3.33333Z" fill="#FF00B8"/>
</svg>
