<svg width="30" height="18" viewBox="0 0 30 18" fill="none" xmlns="http://www.w3.org/2000/svg">
<path d="M8.25 9C10.3177 9 12 7.31766 12 5.25C12 3.18234 10.3177 1.5 8.25 1.5C6.18234 1.5 4.5 3.18234 4.5 5.25C4.5 7.31766 6.18234 9 8.25 9ZM24.75 3H14.25C13.8356 3 13.5 3.33562 13.5 3.75V10.5H3V0.75C3 0.335625 2.66438 0 2.25 0H0.75C0.335625 0 0 0.335625 0 0.75V17.25C0 17.6644 0.335625 18 0.75 18H2.25C2.66438 18 3 17.6644 3 17.25V15H27V17.25C27 17.6644 27.3356 18 27.75 18H29.25C29.6644 18 30 17.6644 30 17.25V8.25C30 5.35031 27.6497 3 24.75 3Z" fill="url(#paint0_linear)"/>
<defs>
<linearGradient id="paint0_linear" x1="53.2367" y1="18" x2="6.99398" y2="-19.1636" gradientUnits="userSpaceOnUse">
<stop stop-color="#CD8ACA"/>
<stop offset="1" stop-color="#E6A0FE"/>
</linearGradient>
</defs>
</svg>
