<svg width="24" height="24" viewBox="0 0 24 24" fill="none" xmlns="http://www.w3.org/2000/svg">
<path d="M18.3188 8.81162C18.2774 8.6244 18.0924 8.50609 17.9049 8.54757C17.7177 8.58896 17.5995 8.77426 17.6409 8.96148C17.725 9.34182 17.7676 9.73374 17.7676 10.1263C17.7676 11.3419 17.368 12.4965 16.6121 13.465C15.4474 14.9574 14.7778 16.7582 14.6725 18.6786H14.3632H14.0462V17.9442C14.0462 17.7387 13.9183 17.5628 13.7381 17.491L14.3873 12.6624C14.4072 12.5135 14.3452 12.3647 14.2254 12.2743C14.1525 12.2192 14.0655 12.1901 13.9741 12.1901C13.9161 12.1901 13.8597 12.2019 13.8072 12.225L12.9977 12.5786L12.1635 12.2233C12.0505 12.1753 11.9179 12.1804 11.8095 12.2364L11.1179 12.5926L10.1816 12.22C10.0464 12.1657 9.88566 12.1884 9.77021 12.2783C9.6541 12.3689 9.59401 12.5159 9.61351 12.6625L9.87451 14.6039C9.9001 14.7939 10.0751 14.927 10.2648 14.9017C10.4549 14.8761 10.5882 14.7014 10.5627 14.5113L10.3649 13.0401L11.008 13.2961C11.1013 13.3332 11.2061 13.3281 11.2953 13.2821L12.0116 12.9132L12.8635 13.276C12.9515 13.3134 13.051 13.313 13.1386 13.2747L13.6335 13.0584L13.0422 17.4562H10.9584L10.7839 16.1576C10.7583 15.9676 10.5836 15.8345 10.3936 15.8598C10.2035 15.8854 10.0702 16.0601 10.0957 16.2501L10.2625 17.491C10.0823 17.5628 9.95447 17.7387 9.95447 17.9442V18.6786H9.63751H9.32916C9.2274 16.7991 8.54424 14.9812 7.35005 13.415C6.62316 12.4617 6.23696 11.3305 6.23312 10.1439C6.22337 7.09009 8.79179 4.58809 11.9586 4.56652C11.9724 4.56643 11.9861 4.56638 11.9999 4.56638C14.1241 4.56638 16.0675 5.68346 17.0786 7.4888C17.1723 7.65605 17.3839 7.71582 17.5512 7.62202C17.7185 7.52837 17.7781 7.31677 17.6844 7.14952C16.5504 5.12476 14.3754 3.87207 12 3.87207C11.9846 3.87207 11.9692 3.87212 11.9539 3.87221C8.40563 3.8964 5.52783 6.71087 5.53885 10.1461C5.54321 11.4854 5.97858 12.7613 6.79796 13.836C7.92624 15.3158 8.56327 17.0344 8.64024 18.806C8.65416 19.1239 8.91783 19.3729 9.24052 19.3729H9.2904V22.2505C9.2904 22.8752 9.66507 23.429 10.245 23.6613C10.8057 23.8861 11.3963 24 12.0003 24C12.6044 24 13.195 23.8861 13.7558 23.6613C14.3356 23.429 14.7103 22.8751 14.7103 22.2505V19.3729H14.761C15.0833 19.3729 15.3469 19.1245 15.3612 18.8074C15.4423 16.9952 16.0642 15.2956 17.1594 13.8922C18.0114 12.8004 18.4618 11.4982 18.4618 10.1263C18.4619 9.6834 18.4137 9.24109 18.3188 8.81162ZM10.6488 18.1505H13.3519V18.6786H10.6488V18.1505ZM9.98466 19.3729H14.0161V20.0888H9.98466V19.3729ZM9.98466 20.7831H14.0161V21.2536H9.98466V20.7831ZM14.0161 22.2505C14.0161 22.5898 13.8125 22.8907 13.4975 23.0169C13.0193 23.2085 12.5156 23.3057 12.0004 23.3057C11.4852 23.3057 10.9815 23.2085 10.5032 23.0169C10.1882 22.8907 9.98471 22.5898 9.98471 22.2505V21.948H14.0161V22.2505Z" fill="url(#paint0_linear)"/>
<path d="M22.8833 10.8833H20.7098C20.5181 10.8833 20.3627 11.0387 20.3627 11.2305C20.3627 11.4222 20.5181 11.5776 20.7098 11.5776H22.8833C23.0751 11.5776 23.2305 11.4222 23.2305 11.2305C23.2305 11.0387 23.075 10.8833 22.8833 10.8833Z" fill="url(#paint1_linear)"/>
<path d="M3.29023 10.8833H1.11669C0.924922 10.8833 0.769531 11.0387 0.769531 11.2305C0.769531 11.4222 0.924922 11.5776 1.11669 11.5776H3.29023C3.482 11.5776 3.63739 11.4222 3.63739 11.2305C3.63739 11.0387 3.482 10.8833 3.29023 10.8833Z" fill="url(#paint2_linear)"/>
<path d="M19.9411 18.6806L18.4042 17.1437C18.2686 17.0081 18.0488 17.0081 17.9132 17.1437C17.7776 17.2792 17.7776 17.499 17.9132 17.6346L19.4501 19.1715C19.5179 19.2393 19.6068 19.2731 19.6956 19.2731C19.7844 19.2731 19.8733 19.2393 19.9411 19.1715C20.0767 19.0359 20.0767 18.8161 19.9411 18.6806Z" fill="url(#paint3_linear)"/>
<path d="M6.08668 4.82635L4.54979 3.28942C4.41418 3.15385 4.19443 3.15385 4.05883 3.28942C3.92326 3.42498 3.92326 3.64478 4.05883 3.78034L5.59572 5.31728C5.6635 5.38506 5.75232 5.41895 5.8412 5.41895C5.93003 5.41895 6.0189 5.38506 6.08668 5.31728C6.22225 5.18171 6.22225 4.96192 6.08668 4.82635Z" fill="url(#paint4_linear)"/>
<path d="M19.9411 3.28946C19.8055 3.15385 19.5858 3.15385 19.4501 3.28941L17.9132 4.82635C17.7776 4.96191 17.7776 5.18171 17.9132 5.31727C17.981 5.38505 18.0698 5.41894 18.1587 5.41894C18.2475 5.41894 18.3364 5.38505 18.4042 5.31727L19.9411 3.78038C20.0767 3.64482 20.0767 3.42502 19.9411 3.28946Z" fill="url(#paint5_linear)"/>
<path d="M6.08668 17.1437C5.95108 17.0081 5.73132 17.0081 5.59572 17.1437L4.05883 18.6806C3.92326 18.8161 3.92326 19.0359 4.05883 19.1715C4.12661 19.2393 4.21548 19.2731 4.30431 19.2731C4.39314 19.2731 4.48201 19.2393 4.54979 19.1715L6.08668 17.6346C6.22225 17.499 6.22225 17.2792 6.08668 17.1437Z" fill="url(#paint6_linear)"/>
<path d="M12 0C11.8082 0 11.6528 0.155438 11.6528 0.347156V2.52066C11.6529 2.71238 11.8083 2.86781 12 2.86781C12.1918 2.86781 12.3471 2.71238 12.3471 2.52066V0.347156C12.3471 0.155438 12.1918 0 12 0Z" fill="url(#paint7_linear)"/>
<defs>
<linearGradient id="paint0_linear" x1="28.4714" y1="24" x2="-1.44658" y2="14.7376" gradientUnits="userSpaceOnUse">
<stop stop-color="#CD8A9A"/>
<stop offset="1" stop-color="#FEAAA0"/>
</linearGradient>
<linearGradient id="paint1_linear" x1="25.4518" y1="11.5776" x2="23.9869" y2="8.6601" gradientUnits="userSpaceOnUse">
<stop stop-color="#CD8A9A"/>
<stop offset="1" stop-color="#FEAAA0"/>
</linearGradient>
<linearGradient id="paint2_linear" x1="5.85871" y1="11.5776" x2="4.39388" y2="8.66008" gradientUnits="userSpaceOnUse">
<stop stop-color="#CD8A9A"/>
<stop offset="1" stop-color="#FEAAA0"/>
</linearGradient>
<linearGradient id="paint3_linear" x1="21.771" y1="19.2731" x2="17.1783" y2="17.0585" gradientUnits="userSpaceOnUse">
<stop stop-color="#CD8A9A"/>
<stop offset="1" stop-color="#FEAAA0"/>
</linearGradient>
<linearGradient id="paint4_linear" x1="7.91655" y1="5.41895" x2="3.32387" y2="3.20436" gradientUnits="userSpaceOnUse">
<stop stop-color="#CD8A9A"/>
<stop offset="1" stop-color="#FEAAA0"/>
</linearGradient>
<linearGradient id="paint5_linear" x1="21.771" y1="5.41894" x2="17.1783" y2="3.20428" gradientUnits="userSpaceOnUse">
<stop stop-color="#CD8A9A"/>
<stop offset="1" stop-color="#FEAAA0"/>
</linearGradient>
<linearGradient id="paint6_linear" x1="7.91655" y1="19.2731" x2="3.32391" y2="17.0585" gradientUnits="userSpaceOnUse">
<stop stop-color="#CD8A9A"/>
<stop offset="1" stop-color="#FEAAA0"/>
</linearGradient>
<linearGradient id="paint7_linear" x1="12.8849" y1="2.86781" x2="11.1471" y2="2.66494" gradientUnits="userSpaceOnUse">
<stop stop-color="#CD8A9A"/>
<stop offset="1" stop-color="#FEAAA0"/>
</linearGradient>
</defs>
</svg>
