<svg width="30" height="30" viewBox="0 0 30 30" fill="none" xmlns="http://www.w3.org/2000/svg">
<path fill-rule="evenodd" clip-rule="evenodd" d="M19.375 13.75C18.3395 13.75 17.5 12.9105 17.5 11.875C17.5 10.8395 18.3395 10 19.375 10C20.4105 10 21.25 10.8395 21.25 11.875C21.25 12.9105 20.4105 13.75 19.375 13.75ZM10.625 13.75C9.58947 13.75 8.75 12.9105 8.75 11.875C8.75 10.8395 9.58947 10 10.625 10C11.6605 10 12.5 10.8395 12.5 11.875C12.5 12.9105 11.6605 13.75 10.625 13.75ZM14.9875 2.5C21.9 2.5 27.5 8.1 27.5 15C27.5 21.9 21.9 27.5 14.9875 27.5C8.0875 27.5 2.5 21.9 2.5 15C2.5 8.1 8.0875 2.5 14.9875 2.5ZM15 25C20.525 25 25 20.525 25 15C25 9.475 20.525 5 15 5C9.475 5 5 9.475 5 15C5 20.525 9.475 25 15 25Z" fill="url(#paint0_linear)"/>
<path d="M10 19.0005H20.5" stroke="#99B6D1" stroke-width="2" stroke-linecap="round"/>
<defs>
<linearGradient id="paint0_linear" x1="-14.3153" y1="22.5528" x2="25.7903" y2="44.3376" gradientUnits="userSpaceOnUse">
<stop stop-color="#9BB9D3"/>
<stop offset="1" stop-color="#97B4CF"/>
</linearGradient>
</defs>
</svg>
