<svg width="26" height="26" viewBox="0 0 26 26" fill="none" xmlns="http://www.w3.org/2000/svg">
<path fill-rule="evenodd" clip-rule="evenodd" d="M9.1 10.425L9.7625 11.0875C10.125 11.45 10.725 11.45 11.0875 11.0875C11.45 10.725 11.45 10.125 11.0875 9.76245L9.9875 8.66245C9.5 8.17495 8.7125 8.17495 8.225 8.66245L7.1125 9.76245C6.75 10.125 6.75 10.725 7.1125 11.0875C7.475 11.45 8.075 11.45 8.4375 11.0875L9.1 10.425ZM13 19.875C15.5375 19.875 17.75 18.4875 18.9375 16.4375C19.175 16.025 18.875 15.5 18.3875 15.5H7.6125C7.1375 15.5 6.825 16.025 7.0625 16.4375C8.25 18.4875 10.4625 19.875 13 19.875ZM14.9125 11.0875C15.275 11.45 15.875 11.45 16.2375 11.0875L16.9 10.425L17.5625 11.0875C17.925 11.45 18.525 11.45 18.8875 11.0875C19.25 10.725 19.25 10.125 18.8875 9.76245L17.7875 8.66245C17.3 8.17495 16.5125 8.17495 16.025 8.66245L14.925 9.76245C14.55 10.125 14.55 10.725 14.9125 11.0875ZM12.9875 0.5C6.0875 0.5 0.5 6.0875 0.5 13C0.5 19.9125 6.0875 25.5 12.9875 25.5C19.8875 25.5 25.5 19.9125 25.5 13C25.5 6.0875 19.9 0.5 12.9875 0.5ZM13 23C7.475 23 3 18.525 3 13C3 7.475 7.475 3 13 3C18.525 3 23 7.475 23 13C23 18.525 18.525 23 13 23Z" fill="url(#paint0_linear)"/>
<defs>
<linearGradient id="paint0_linear" x1="-16.3153" y1="20.5528" x2="23.7903" y2="42.3376" gradientUnits="userSpaceOnUse">
<stop stop-color="#9BB9D3"/>
<stop offset="1" stop-color="#97B4CF"/>
</linearGradient>
</defs>
</svg>
