<svg width="360" height="259" viewBox="0 0 360 259" fill="none" xmlns="http://www.w3.org/2000/svg">
<rect width="360" height="259" fill="white"/>
<path opacity="0.8" d="M16.6165 15.1406H19.7884V24H21.3196V15.1406H24.4964V13.8182H16.6165V15.1406ZM26.1831 26.8438C27.411 26.8438 28.1916 26.2024 28.6291 25.0192L31.786 16.3786L30.1802 16.3636L28.2463 22.2898H28.1667L26.2328 16.3636H24.6419L27.4359 24.0994L27.252 24.6065C26.8741 25.5959 26.3422 25.6854 25.5268 25.4616L25.1689 26.6797C25.3478 26.7642 25.7356 26.8438 26.1831 26.8438ZM35.1767 24.169C36.4395 24.169 37.1504 23.5277 37.4338 22.956H37.4934V24H38.9451V18.929C38.9451 16.7067 37.1951 16.2642 35.9821 16.2642C34.6 16.2642 33.3272 16.821 32.8301 18.2131L34.2271 18.5312C34.4458 17.9893 35.0027 17.4673 36.002 17.4673C36.9615 17.4673 37.4537 17.9695 37.4537 18.8345V18.8693C37.4537 19.4112 36.8968 19.4013 35.5247 19.5604C34.0779 19.7294 32.5964 20.1072 32.5964 21.8423C32.5964 23.3438 33.725 24.169 35.1767 24.169ZM35.4998 22.9759C34.6596 22.9759 34.0531 22.598 34.0531 21.8622C34.0531 21.0668 34.7591 20.7834 35.6191 20.669C36.1014 20.6044 37.2449 20.4751 37.4586 20.2614V21.2457C37.4586 22.1506 36.7377 22.9759 35.4998 22.9759ZM40.3235 24H40.8008C42.4663 24 43.0778 22.767 43.1971 20.2415L43.3164 17.6463H45.8121V24H47.2688V16.3636H41.9393L41.805 19.7443C41.7106 22.1009 41.4421 22.7124 40.592 22.7124H40.3185L40.3235 24ZM52.5424 24.1541C54.2079 24.1541 55.3862 23.3338 55.7243 22.0909L54.3173 21.8374C54.0488 22.5582 53.4025 22.9261 52.5574 22.9261C51.2846 22.9261 50.4295 22.1009 50.3897 20.6293H55.8187V20.1023C55.8187 17.343 54.1681 16.2642 52.438 16.2642C50.3102 16.2642 48.9082 17.8849 48.9082 20.2315C48.9082 22.603 50.2903 24.1541 52.5424 24.1541ZM50.3947 19.5156C50.4544 18.4318 51.2399 17.4922 52.448 17.4922C53.6014 17.4922 54.3571 18.3473 54.362 19.5156H50.3947ZM56.7944 17.6463H59.2951V24H60.7468V17.6463H63.2376V16.3636H56.7944V17.6463Z" fill="#334669"/>
<path opacity="0.5" d="M16.799 41H17.8963V37.8288H21.522V41H22.6229V33.7273H21.522V36.8878H17.8963V33.7273H16.799V41ZM26.4332 41.1101C27.9709 41.1101 28.9759 39.9844 28.9759 38.2976C28.9759 36.6001 27.9709 35.4744 26.4332 35.4744C24.8956 35.4744 23.8906 36.6001 23.8906 38.2976C23.8906 39.9844 24.8956 41.1101 26.4332 41.1101ZM26.4368 40.2188C25.4318 40.2188 24.9631 39.3416 24.9631 38.294C24.9631 37.25 25.4318 36.3622 26.4368 36.3622C27.4347 36.3622 27.9034 37.25 27.9034 38.294C27.9034 39.3416 27.4347 40.2188 26.4368 40.2188ZM30.161 43.0455H31.2228V40.1513H31.2868C31.4785 40.4993 31.8691 41.1065 32.8635 41.1065C34.1845 41.1065 35.1433 40.0483 35.1433 38.2834C35.1433 36.5149 34.1703 35.4744 32.8528 35.4744C31.8407 35.4744 31.475 36.0923 31.2868 36.4297H31.198V35.5455H30.161V43.0455ZM31.2015 38.2727C31.2015 37.1328 31.6987 36.3764 32.6255 36.3764C33.5879 36.3764 34.0708 37.1896 34.0708 38.2727C34.0708 39.3665 33.5737 40.201 32.6255 40.201C31.7129 40.201 31.2015 39.4197 31.2015 38.2727ZM39.394 39.6861L37.6681 35.5455H36.3329V41H37.3734V37.0334L38.9998 41H39.7882L41.443 37.0476V41H42.4764V35.5455H41.1554L39.394 39.6861ZM45.4789 41.1207C46.3809 41.1207 46.8887 40.6626 47.0911 40.2543H47.1337V41H48.1706V37.3778C48.1706 35.7905 46.9206 35.4744 46.0542 35.4744C45.0669 35.4744 44.1578 35.8722 43.8027 36.8665L44.8006 37.0938C44.9569 36.7067 45.3546 36.3338 46.0684 36.3338C46.7537 36.3338 47.1053 36.6925 47.1053 37.3104V37.3352C47.1053 37.7223 46.7076 37.7152 45.7275 37.8288C44.6941 37.9496 43.6358 38.2195 43.6358 39.4588C43.6358 40.5312 44.4419 41.1207 45.4789 41.1207ZM45.7097 40.2685C45.1096 40.2685 44.6763 39.9986 44.6763 39.473C44.6763 38.9048 45.1806 38.7024 45.7949 38.6207C46.1394 38.5746 46.9561 38.4822 47.1088 38.3295V39.0327C47.1088 39.679 46.5939 40.2685 45.7097 40.2685ZM50.2844 37.0973C50.6715 37.0973 50.9947 36.7812 50.9947 36.3871C50.9947 36 50.6715 35.6804 50.2844 35.6804C49.8938 35.6804 49.5742 36 49.5742 36.3871C49.5742 36.7812 49.8938 37.0973 50.2844 37.0973ZM50.2844 41.0675C50.6715 41.0675 50.9947 40.7514 50.9947 40.3572C50.9947 39.9702 50.6715 39.6506 50.2844 39.6506C49.8938 39.6506 49.5742 39.9702 49.5742 40.3572C49.5742 40.7514 49.8938 41.0675 50.2844 41.0675Z" fill="#334669"/>
<line x1="40" y1="212.5" x2="348" y2="212.5" stroke="#D3D8DD" stroke-miterlimit="16" stroke-dasharray="8 8"/>
<line x1="40" y1="166.5" x2="348" y2="166.5" stroke="#D3D8DD" stroke-miterlimit="16" stroke-dasharray="8 8"/>
<line x1="40" y1="120.5" x2="348" y2="120.5" stroke="#D3D8DD" stroke-miterlimit="16" stroke-dasharray="8 8"/>
<line x1="40" y1="73.5" x2="348" y2="73.5" stroke="#D3D8DD" stroke-miterlimit="16" stroke-dasharray="8 8"/>
<path opacity="0.5" d="M59.2315 41.0994C60.7159 41.0994 61.8061 40.2116 61.8026 39.0043C61.8061 38.0845 61.2486 37.424 60.2827 37.2749V37.218C61.0426 37.0227 61.5362 36.4261 61.5327 35.6094C61.5362 34.5405 60.6591 33.6278 59.2599 33.6278C57.9247 33.6278 56.8523 34.4339 56.8168 35.6165H57.8786C57.9034 34.9489 58.532 34.544 59.2457 34.544C59.9879 34.544 60.4744 34.995 60.4709 35.6662C60.4744 36.3693 59.9098 36.831 59.1037 36.831H58.4893V37.7259H59.1037C60.1122 37.7259 60.6946 38.2372 60.6946 38.9688C60.6946 39.6754 60.0803 40.1548 59.2244 40.1548C58.4361 40.1548 57.8217 39.75 57.7791 39.1037H56.6641C56.7102 40.2898 57.7614 41.0994 59.2315 41.0994ZM66.3729 36.9055H63.1484V37.8253H66.3729V36.9055ZM67.6211 39.5795H71.0692V41H72.1168V39.5795H73.0792V38.6491H72.1168V33.7273H70.7638L67.6211 38.6918V39.5795ZM71.0763 38.6491H68.7717V38.5923L71.0195 35.0341H71.0763V38.6491ZM76.6721 36.4616H78.4583V41H79.4952V36.4616H81.2743V35.5455H76.6721V36.4616ZM83.4379 39.5121V35.5455H82.3974V41H83.5515L85.945 37.0298V41H86.9854V35.5455H85.842L83.4379 39.5121ZM88.413 41H89.4464V36.4616H91.8221V41H92.8626V35.5455H88.413V41ZM95.3226 37.4205V35.5455H94.2821V41H96.665C98.0002 41 98.7459 40.2259 98.7459 39.1996C98.7459 38.152 98.0002 37.4205 96.665 37.4205H95.3226ZM99.5201 41H100.582V35.5455H99.5201V41ZM95.3226 38.3366H96.665C97.2757 38.3366 97.7125 38.706 97.7125 39.2315C97.7125 39.7287 97.2757 40.0838 96.665 40.0838H95.3226V38.3366ZM104.653 41H105.715V38.8196H106.404L108.048 41H109.366L107.228 38.1982L109.341 35.5455H108.027L106.226 37.8324H105.715V35.5455H104.653V41ZM111.778 41.1207C112.68 41.1207 113.188 40.6626 113.39 40.2543H113.433V41H114.469V37.3778C114.469 35.7905 113.219 35.4744 112.353 35.4744C111.366 35.4744 110.457 35.8722 110.102 36.8665L111.099 37.0938C111.256 36.7067 111.653 36.3338 112.367 36.3338C113.053 36.3338 113.404 36.6925 113.404 37.3104V37.3352C113.404 37.7223 113.006 37.7152 112.026 37.8288C110.993 37.9496 109.935 38.2195 109.935 39.4588C109.935 40.5312 110.741 41.1207 111.778 41.1207ZM112.009 40.2685C111.408 40.2685 110.975 39.9986 110.975 39.473C110.975 38.9048 111.479 38.7024 112.094 38.6207C112.438 38.5746 113.255 38.4822 113.408 38.3295V39.0327C113.408 39.679 112.893 40.2685 112.009 40.2685ZM115.454 41H115.795C116.985 41 117.421 40.1193 117.507 38.3153L117.592 36.4616H119.374V41H120.415V35.5455H116.608L116.512 37.9602C116.445 39.6435 116.253 40.0803 115.646 40.0803H115.45L115.454 41ZM123.418 41.1207C124.32 41.1207 124.828 40.6626 125.031 40.2543H125.073V41H126.11V37.3778C126.11 35.7905 124.86 35.4744 123.994 35.4744C123.006 35.4744 122.097 35.8722 121.742 36.8665L122.74 37.0938C122.896 36.7067 123.294 36.3338 124.008 36.3338C124.693 36.3338 125.045 36.6925 125.045 37.3104V37.3352C125.045 37.7223 124.647 37.7152 123.667 37.8288C122.634 37.9496 121.575 38.2195 121.575 39.4588C121.575 40.5312 122.381 41.1207 123.418 41.1207ZM123.649 40.2685C123.049 40.2685 122.616 39.9986 122.616 39.473C122.616 38.9048 123.12 38.7024 123.734 38.6207C124.079 38.5746 124.896 38.4822 125.048 38.3295V39.0327C125.048 39.679 124.533 40.2685 123.649 40.2685Z" fill="#334669"/>
<path opacity="0.5" d="M52.061 233.455H47.1775V240H47.9701V234.158H51.2684V240H52.061V233.455ZM54.3118 235.091H53.5575V240H54.3118V237.903H56.6641V240H57.4183V235.091H56.6641V237.2H54.3118V235.091ZM59.9208 239.105H59.1026L59.0643 239.463C58.9716 240.329 58.7894 241.192 58.7063 241.598H59.2816C59.435 241.163 59.761 240.179 59.8697 239.45L59.9208 239.105ZM39.7195 251H43.8488V250.297H40.8062V250.246L42.2764 248.673C43.4014 247.468 43.7338 246.906 43.7338 246.18C43.7338 245.17 42.9156 244.365 41.765 244.365C40.6176 244.365 39.7451 245.145 39.7451 246.295H40.4994C40.4994 245.551 40.982 245.055 41.7394 245.055C42.449 245.055 42.9923 245.49 42.9923 246.18C42.9923 246.784 42.6375 247.232 41.8801 248.06L39.7195 250.425V251ZM45.3733 251H46.2043L49.1191 245.196V244.455H44.9259V245.158H48.3009V245.209L45.3733 251ZM54.299 251.115C55.1555 251.115 55.603 250.655 55.7564 250.335H55.7947V251H56.549V247.766C56.549 246.206 55.3601 246.027 54.7337 246.027C53.9922 246.027 53.1484 246.283 52.7649 247.178L53.4808 247.433C53.647 247.075 54.0401 246.692 54.7592 246.692C55.4528 246.692 55.7947 247.059 55.7947 247.689V247.714C55.7947 248.079 55.424 248.047 54.5291 248.162C53.6183 248.28 52.6243 248.482 52.6243 249.607C52.6243 250.565 53.3658 251.115 54.299 251.115ZM54.4141 250.438C53.8132 250.438 53.3786 250.169 53.3786 249.645C53.3786 249.07 53.9027 248.891 54.4908 248.814C54.8104 248.776 55.6669 248.686 55.7947 248.533V249.223C55.7947 249.837 55.3089 250.438 54.4141 250.438ZM57.9257 251H58.68V246.794H61.0322V251H61.7865V246.091H57.9257V251ZM63.164 252.841H63.9182V250.246H63.9822C64.1483 250.514 64.468 251.102 65.414 251.102C66.6412 251.102 67.4978 250.118 67.4978 248.558C67.4978 247.011 66.6412 246.027 65.4012 246.027C64.4424 246.027 64.1483 246.615 63.9822 246.871H63.8927V246.091H63.164V252.841ZM63.9055 248.545C63.9055 247.446 64.3912 246.705 65.3117 246.705C66.2705 246.705 66.7435 247.51 66.7435 248.545C66.7435 249.594 66.2577 250.425 65.3117 250.425C64.404 250.425 63.9055 249.658 63.9055 248.545Z" fill="#334669"/>
<path opacity="0.5" d="M11.4091 210.794H13.0327V215H13.7869V210.794H15.3977V210.091H11.4091V210.794ZM17.2522 213.888V210.091H16.498V215H17.3801L19.7323 211.203V215H20.4866V210.091H19.6173L17.2522 213.888ZM21.8681 215H22.6223V210.794H24.9746V215H25.7289V210.091H21.8681V215ZM29.8294 215H30.6603L33.5751 209.196V208.455H29.3819V209.158H32.7569V209.209L29.8294 215Z" fill="#334669"/>
<path opacity="0.5" d="M11.4091 187.794H13.0327V192H13.7869V187.794H15.3977V187.091H11.4091V187.794ZM17.2522 190.888V187.091H16.498V192H17.3801L19.7323 188.203V192H20.4866V187.091H19.6173L17.2522 190.888ZM21.8681 192H22.6223V187.794H24.9746V192H25.7289V187.091H21.8681V192ZM31.7981 192.089C33.1213 192.105 33.9842 191.108 33.9842 189.891C33.9842 188.625 33.0478 187.717 31.926 187.717C31.2516 187.717 30.6731 188.047 30.3152 188.587H30.264C30.2672 186.979 30.8873 186.055 31.9004 186.055C32.5907 186.055 33.0062 186.49 33.1532 187.091H33.9331C33.7733 186.062 32.9998 185.352 31.9004 185.352C30.427 185.352 29.5225 186.656 29.5225 188.983C29.5225 191.402 30.7243 192.077 31.7981 192.089ZM31.7981 191.386C30.9767 191.386 30.3759 190.686 30.3791 189.903C30.3823 189.12 31.0119 188.42 31.8237 188.42C32.6259 188.42 33.2172 189.079 33.2172 189.891C33.2172 190.722 32.6003 191.386 31.7981 191.386Z" fill="#334669"/>
<path opacity="0.5" d="M11.4091 141.794H13.0327V146H13.7869V141.794H15.3977V141.091H11.4091V141.794ZM17.2522 144.888V141.091H16.498V146H17.3801L19.7323 142.203V146H20.4866V141.091H19.6173L17.2522 144.888ZM21.8681 146H22.6223V141.794H24.9746V146H25.7289V141.091H21.8681V146ZM29.4714 144.658H32.5524V146H33.3066V144.658H34.2015V143.955H33.3066V139.455H32.3478L29.4714 144.006V144.658ZM32.5524 143.955H30.3279V143.903L32.5012 140.464H32.5524V143.955Z" fill="#334669"/>
<path opacity="0.5" d="M11.4091 164.794H13.0327V169H13.7869V164.794H15.3977V164.091H11.4091V164.794ZM17.2522 167.888V164.091H16.498V169H17.3801L19.7323 165.203V169H20.4866V164.091H19.6173L17.2522 167.888ZM21.8681 169H22.6223V164.794H24.9746V169H25.7289V164.091H21.8681V169ZM31.6703 169.089C32.9167 169.089 33.8308 168.169 33.8308 166.916C33.8308 165.647 32.9487 164.717 31.747 164.717C31.3059 164.717 30.8777 164.874 30.6092 165.088H30.5708L30.801 163.158H33.5368V162.455H30.1362L29.7399 165.676L30.4814 165.766C30.753 165.571 31.2164 165.43 31.6191 165.433C32.4533 165.44 33.0637 166.072 33.0637 166.929C33.0637 167.77 32.4757 168.386 31.6703 168.386C30.9991 168.386 30.4654 167.955 30.4047 167.364H29.6376C29.6855 168.361 30.5453 169.089 31.6703 169.089Z" fill="#334669"/>
<path opacity="0.5" d="M11.4091 118.794H13.0327V123H13.7869V118.794H15.3977V118.091H11.4091V118.794ZM17.2522 121.888V118.091H16.498V123H17.3801L19.7323 119.203V123H20.4866V118.091H19.6173L17.2522 121.888ZM21.8681 123H22.6223V118.794H24.9746V123H25.7289V118.091H21.8681V123ZM31.8365 123.089C33.1053 123.089 34.0481 122.294 34.0481 121.223C34.0481 120.392 33.5559 119.788 32.7314 119.651V119.599C33.3929 119.398 33.8052 118.855 33.8052 118.116C33.8052 117.19 33.0733 116.365 31.862 116.365C30.7306 116.365 29.791 117.062 29.7527 118.091H30.5197C30.5485 117.439 31.1685 117.055 31.8493 117.055C32.5716 117.055 33.0382 117.493 33.0382 118.155C33.0382 118.845 32.498 119.293 31.7214 119.293H31.1973V119.996H31.7214C32.7154 119.996 33.2683 120.501 33.2683 121.223C33.2683 121.917 32.6642 122.386 31.8237 122.386C31.0662 122.386 30.4654 121.996 30.4174 121.364H29.612C29.66 122.393 30.5676 123.089 31.8365 123.089Z" fill="#334669"/>
<path opacity="0.5" d="M11.4091 95.794H13.0327V100H13.7869V95.794H15.3977V95.0909H11.4091V95.794ZM17.2522 98.8878V95.0909H16.498V100H17.3801L19.7323 96.2031V100H20.4866V95.0909H19.6173L17.2522 98.8878ZM21.8681 100H22.6223V95.794H24.9746V100H25.7289V95.0909H21.8681V100ZM29.6248 100H33.7541V99.2969H30.7115V99.2457L32.1816 97.6733C33.3066 96.4684 33.639 95.9059 33.639 95.1804C33.639 94.1705 32.8208 93.3651 31.6703 93.3651C30.5229 93.3651 29.6504 94.1449 29.6504 95.2955H30.4047C30.4047 94.5508 30.8873 94.0554 31.6447 94.0554C32.3542 94.0554 32.8975 94.4901 32.8975 95.1804C32.8975 95.7844 32.5428 96.2319 31.7853 97.0597L29.6248 99.4247V100Z" fill="#334669"/>
<path opacity="0.5" d="M11.4091 72.794H13.0327V77H13.7869V72.794H15.3977V72.0909H11.4091V72.794ZM17.2522 75.8878V72.0909H16.498V77H17.3801L19.7323 73.2031V77H20.4866V72.0909H19.6173L17.2522 75.8878ZM21.8681 77H22.6223V72.794H24.9746V77H25.7289V72.0909H21.8681V77ZM31.926 70.4545H31.1333L29.497 71.5412V72.3466L31.095 71.2855H31.1333V77H31.926V70.4545Z" fill="#334669"/>
<path opacity="0.5" d="M95.6095 240H97.9746C99.5214 240 100.161 239.246 100.161 238.261C100.161 237.226 99.4447 236.663 98.8439 236.625V236.561C99.4064 236.408 99.905 236.037 99.905 235.193C99.905 234.234 99.2658 233.455 97.8979 233.455H95.6095V240ZM96.4021 239.297V237.021H98.0129C98.8695 237.021 99.4064 237.597 99.4064 238.261C99.4064 238.837 99.0101 239.297 97.9746 239.297H96.4021ZM96.4021 236.331V234.158H97.8979C98.7672 234.158 99.1507 234.618 99.1507 235.193C99.1507 235.884 98.5882 236.331 97.8723 236.331H96.4021ZM101.08 235.794H102.703V240H103.457V235.794H105.068V235.091H101.08V235.794ZM106.476 239.105H105.658L105.619 239.463C105.527 240.329 105.345 241.192 105.261 241.598H105.837C105.99 241.163 106.316 240.179 106.425 239.45L106.476 239.105ZM87.0174 251H91.1467V250.297H88.104V250.246L89.5742 248.673C90.6992 247.468 91.0316 246.906 91.0316 246.18C91.0316 245.17 90.2134 244.365 89.0629 244.365C87.9155 244.365 87.043 245.145 87.043 246.295H87.7972C87.7972 245.551 88.2798 245.055 89.0373 245.055C89.7468 245.055 90.2901 245.49 90.2901 246.18C90.2901 246.784 89.9354 247.232 89.1779 248.06L87.0174 250.425V251ZM94.5632 251.089C95.8704 251.089 96.7812 250.326 96.7876 249.261C96.7812 248.434 96.2283 247.73 95.522 247.599V247.561C96.1357 247.401 96.5384 246.8 96.5447 246.104C96.5384 245.107 95.701 244.365 94.5632 244.365C93.4126 244.365 92.5753 245.107 92.5817 246.104C92.5753 246.8 92.978 247.401 93.6044 247.561V247.599C92.8853 247.73 92.3324 248.434 92.3388 249.261C92.3324 250.326 93.2433 251.089 94.5632 251.089ZM94.5632 250.386C93.6651 250.386 93.1122 249.926 93.1186 249.223C93.1122 248.485 93.7227 247.957 94.5632 247.957C95.391 247.957 96.0014 248.485 96.0078 249.223C96.0014 249.926 95.4485 250.386 94.5632 250.386ZM94.5632 247.28C93.8473 247.28 93.3423 246.832 93.3487 246.155C93.3423 245.49 93.8281 245.055 94.5632 245.055C95.2855 245.055 95.7713 245.49 95.7777 246.155C95.7713 246.832 95.2663 247.28 94.5632 247.28ZM102.001 251.115C102.858 251.115 103.305 250.655 103.459 250.335H103.497V251H104.251V247.766C104.251 246.206 103.062 246.027 102.436 246.027C101.694 246.027 100.851 246.283 100.467 247.178L101.183 247.433C101.349 247.075 101.742 246.692 102.461 246.692C103.155 246.692 103.497 247.059 103.497 247.689V247.714C103.497 248.079 103.126 248.047 102.231 248.162C101.32 248.28 100.326 248.482 100.326 249.607C100.326 250.565 101.068 251.115 102.001 251.115ZM102.116 250.438C101.515 250.438 101.081 250.169 101.081 249.645C101.081 249.07 101.605 248.891 102.193 248.814C102.513 248.776 103.369 248.686 103.497 248.533V249.223C103.497 249.837 103.011 250.438 102.116 250.438ZM105.628 251H106.382V246.794H108.734V251H109.489V246.091H105.628V251ZM110.866 252.841H111.62V250.246H111.684C111.85 250.514 112.17 251.102 113.116 251.102C114.343 251.102 115.2 250.118 115.2 248.558C115.2 247.011 114.343 246.027 113.103 246.027C112.145 246.027 111.85 246.615 111.684 246.871H111.595V246.091H110.866V252.841ZM111.608 248.545C111.608 247.446 112.093 246.705 113.014 246.705C113.973 246.705 114.446 247.51 114.446 248.545C114.446 249.594 113.96 250.425 113.014 250.425C112.106 250.425 111.608 249.658 111.608 248.545Z" fill="#334669"/>
<path opacity="0.5" d="M147.782 235.5C147.539 234.158 146.466 233.365 145.149 233.365C143.474 233.365 142.26 234.656 142.26 236.727C142.26 238.798 143.474 240.089 145.149 240.089C146.466 240.089 147.539 239.297 147.782 237.955H146.99C146.798 238.862 146.018 239.348 145.149 239.348C143.96 239.348 143.027 238.428 143.027 236.727C143.027 235.027 143.96 234.107 145.149 234.107C146.018 234.107 146.798 234.592 146.99 235.5H147.782ZM148.961 241.841H149.715V239.246H149.779C149.945 239.514 150.265 240.102 151.211 240.102C152.438 240.102 153.295 239.118 153.295 237.558C153.295 236.011 152.438 235.027 151.198 235.027C150.239 235.027 149.945 235.615 149.779 235.871H149.69V235.091H148.961V241.841ZM149.702 237.545C149.702 236.446 150.188 235.705 151.109 235.705C152.067 235.705 152.54 236.51 152.54 237.545C152.54 238.594 152.055 239.425 151.109 239.425C150.201 239.425 149.702 238.658 149.702 237.545ZM155.57 239.105H154.752L154.714 239.463C154.621 240.329 154.439 241.192 154.356 241.598H154.931C155.084 241.163 155.41 240.179 155.519 239.45L155.57 239.105ZM134.982 251H139.112V250.297H136.069V250.246L137.539 248.673C138.664 247.468 138.996 246.906 138.996 246.18C138.996 245.17 138.178 244.365 137.028 244.365C135.88 244.365 135.008 245.145 135.008 246.295H135.762C135.762 245.551 136.245 245.055 137.002 245.055C137.712 245.055 138.255 245.49 138.255 246.18C138.255 246.784 137.9 247.232 137.143 248.06L134.982 250.425V251ZM142.515 244.352C141.186 244.339 140.329 245.337 140.329 246.551C140.329 247.817 141.262 248.724 142.387 248.724C143.065 248.724 143.64 248.392 143.998 247.855H144.049C144.049 249.466 143.423 250.386 142.413 250.386C141.723 250.386 141.301 249.952 141.16 249.351H140.38C140.534 250.386 141.314 251.089 142.413 251.089C143.883 251.089 144.791 249.786 144.791 247.459C144.791 245.043 143.589 244.365 142.515 244.352ZM142.515 245.055C143.333 245.055 143.934 245.759 143.934 246.538C143.934 247.318 143.295 248.021 142.49 248.021C141.684 248.021 141.096 247.369 141.096 246.551C141.096 245.72 141.71 245.055 142.515 245.055ZM150.036 251.115C150.893 251.115 151.34 250.655 151.494 250.335H151.532V251H152.286V247.766C152.286 246.206 151.097 246.027 150.471 246.027C149.729 246.027 148.886 246.283 148.502 247.178L149.218 247.433C149.384 247.075 149.777 246.692 150.497 246.692C151.19 246.692 151.532 247.059 151.532 247.689V247.714C151.532 248.079 151.161 248.047 150.266 248.162C149.356 248.28 148.362 248.482 148.362 249.607C148.362 250.565 149.103 251.115 150.036 251.115ZM150.151 250.438C149.551 250.438 149.116 250.169 149.116 249.645C149.116 249.07 149.64 248.891 150.228 248.814C150.548 248.776 151.404 248.686 151.532 248.533V249.223C151.532 249.837 151.046 250.438 150.151 250.438ZM153.663 251H154.417V246.794H156.77V251H157.524V246.091H153.663V251ZM158.901 252.841H159.656V250.246H159.719C159.886 250.514 160.205 251.102 161.151 251.102C162.379 251.102 163.235 250.118 163.235 248.558C163.235 247.011 162.379 246.027 161.138 246.027C160.18 246.027 159.886 246.615 159.719 246.871H159.63V246.091H158.901V252.841ZM159.643 248.545C159.643 247.446 160.129 246.705 161.049 246.705C162.008 246.705 162.481 247.51 162.481 248.545C162.481 249.594 161.995 250.425 161.049 250.425C160.141 250.425 159.643 249.658 159.643 248.545Z" fill="#334669"/>
<path opacity="0.5" d="M191.383 233.455V235.641C191.383 237.085 192.202 237.622 193.557 237.622C194.349 237.622 194.838 237.52 195.372 237.36V240H196.165V233.455H195.372V236.641C194.813 236.804 194.218 236.906 193.557 236.906C192.713 236.906 192.176 236.612 192.176 235.641V233.455H191.383ZM197.37 235.794H198.993V240H199.747V235.794H201.358V235.091H197.37V235.794ZM202.766 239.105H201.948L201.909 239.463C201.817 240.329 201.635 241.192 201.552 241.598H202.127C202.28 241.163 202.606 240.179 202.715 239.45L202.766 239.105ZM185.049 251.089C186.318 251.089 187.261 250.294 187.261 249.223C187.261 248.392 186.768 247.788 185.944 247.651V247.599C186.605 247.398 187.018 246.855 187.018 246.116C187.018 245.19 186.286 244.365 185.074 244.365C183.943 244.365 183.003 245.062 182.965 246.091H183.732C183.761 245.439 184.381 245.055 185.062 245.055C185.784 245.055 186.251 245.493 186.251 246.155C186.251 246.845 185.71 247.293 184.934 247.293H184.41V247.996H184.934C185.928 247.996 186.481 248.501 186.481 249.223C186.481 249.917 185.877 250.386 185.036 250.386C184.279 250.386 183.678 249.996 183.63 249.364H182.824C182.872 250.393 183.78 251.089 185.049 251.089ZM190.703 251.089C192.147 251.089 192.978 249.865 192.978 247.727C192.978 245.605 192.134 244.365 190.703 244.365C189.271 244.365 188.427 245.605 188.427 247.727C188.427 249.865 189.258 251.089 190.703 251.089ZM190.703 250.386C189.75 250.386 189.194 249.431 189.194 247.727C189.194 246.027 189.757 245.055 190.703 245.055C191.649 245.055 192.211 246.027 192.211 247.727C192.211 249.431 191.655 250.386 190.703 250.386ZM198.181 251.115C199.038 251.115 199.485 250.655 199.639 250.335H199.677V251H200.431V247.766C200.431 246.206 199.242 246.027 198.616 246.027C197.875 246.027 197.031 246.283 196.647 247.178L197.363 247.433C197.529 247.075 197.922 246.692 198.642 246.692C199.335 246.692 199.677 247.059 199.677 247.689V247.714C199.677 248.079 199.306 248.047 198.411 248.162C197.501 248.28 196.507 248.482 196.507 249.607C196.507 250.565 197.248 251.115 198.181 251.115ZM198.296 250.438C197.696 250.438 197.261 250.169 197.261 249.645C197.261 249.07 197.785 248.891 198.373 248.814C198.693 248.776 199.549 248.686 199.677 248.533V249.223C199.677 249.837 199.191 250.438 198.296 250.438ZM201.808 251H202.562V246.794H204.915V251H205.669V246.091H201.808V251ZM207.046 252.841H207.801V250.246H207.864C208.031 250.514 208.35 251.102 209.296 251.102C210.524 251.102 211.38 250.118 211.38 248.558C211.38 247.011 210.524 246.027 209.284 246.027C208.325 246.027 208.031 246.615 207.864 246.871H207.775V246.091H207.046V252.841ZM207.788 248.545C207.788 247.446 208.274 246.705 209.194 246.705C210.153 246.705 210.626 247.51 210.626 248.545C210.626 249.594 210.14 250.425 209.194 250.425C208.286 250.425 207.788 249.658 207.788 248.545Z" fill="#334669"/>
<path opacity="0.5" d="M241.185 233.455H236.301V240H237.094V234.158H240.392V240H241.185V233.455ZM242.4 235.794H244.024V240H244.778V235.794H246.389V235.091H242.4V235.794ZM247.797 239.105H246.979L246.94 239.463C246.848 240.329 246.665 241.192 246.582 241.598H247.158C247.311 241.163 247.637 240.179 247.746 239.45L247.797 239.105ZM233.184 244.455H232.391L230.755 245.541V246.347L232.353 245.286H232.391V251H233.184V244.455ZM240.295 249.977L238.607 246.091H237.61V251H238.365V247.174L239.988 251H240.602L242.225 247.245V251H242.98V246.091H242.008L240.295 249.977ZM245.805 251.115C246.661 251.115 247.109 250.655 247.262 250.335H247.301V251H248.055V247.766C248.055 246.206 246.866 246.027 246.24 246.027C245.498 246.027 244.654 246.283 244.271 247.178L244.987 247.433C245.153 247.075 245.546 246.692 246.265 246.692C246.959 246.692 247.301 247.059 247.301 247.689V247.714C247.301 248.079 246.93 248.047 246.035 248.162C245.124 248.28 244.13 248.482 244.13 249.607C244.13 250.565 244.872 251.115 245.805 251.115ZM245.92 250.438C245.319 250.438 244.884 250.169 244.884 249.645C244.884 249.07 245.409 248.891 245.997 248.814C246.316 248.776 247.173 248.686 247.301 248.533V249.223C247.301 249.837 246.815 250.438 245.92 250.438ZM252.385 251H253.101V246.091H251.081C250.023 246.091 249.38 246.644 249.38 247.548C249.38 248.223 249.719 248.702 250.31 248.903L249.112 251H249.93L251.068 249.006H252.385V251ZM252.385 248.303H250.991C250.457 248.303 250.135 248.018 250.135 247.548C250.135 247.072 250.493 246.781 251.081 246.781H252.385V248.303Z" fill="#334669"/>
<path opacity="0.5" d="M283.37 235.5C283.127 234.158 282.053 233.365 280.737 233.365C279.062 233.365 277.847 234.656 277.847 236.727C277.847 238.798 279.062 240.089 280.737 240.089C282.053 240.089 283.127 239.297 283.37 237.955H282.578C282.386 238.862 281.606 239.348 280.737 239.348C279.548 239.348 278.615 238.428 278.615 236.727C278.615 235.027 279.548 234.107 280.737 234.107C281.606 234.107 282.386 234.592 282.578 235.5H283.37ZM288.192 233.25C287.953 233.451 287.595 233.451 287.093 233.448C286.93 233.448 286.751 233.448 286.556 233.455C285.06 233.493 284.319 234.631 284.319 236.817V237.341C284.319 239.156 285.201 240.102 286.517 240.102C287.831 240.102 288.704 239.15 288.704 237.609C288.704 236.062 287.818 235.244 286.671 235.244C285.997 235.244 285.367 235.526 285.035 236.139H284.971C285.073 234.874 285.546 234.196 286.569 234.158C287.476 234.119 288.128 234.145 288.576 233.71L288.192 233.25ZM286.517 239.425C285.623 239.425 285.073 238.709 285.073 237.609C285.089 236.536 285.629 235.922 286.505 235.922C287.403 235.922 287.949 236.536 287.949 237.609C287.949 238.715 287.406 239.425 286.517 239.425ZM290.982 239.105H290.164L290.126 239.463C290.033 240.329 289.851 241.192 289.768 241.598H290.343C290.497 241.163 290.823 240.179 290.931 239.45L290.982 239.105ZM272.75 251H276.879V250.297H273.836V250.246L275.307 248.673C276.432 247.468 276.764 246.906 276.764 246.18C276.764 245.17 275.946 244.365 274.795 244.365C273.648 244.365 272.775 245.145 272.775 246.295H273.53C273.53 245.551 274.012 245.055 274.77 245.055C275.479 245.055 276.023 245.49 276.023 246.18C276.023 246.784 275.668 247.232 274.91 248.06L272.75 250.425V251ZM283.428 249.977L281.74 246.091H280.743V251H281.497V247.174L283.121 251H283.735L285.358 247.245V251H286.112V246.091H285.141L283.428 249.977ZM288.938 251.115C289.794 251.115 290.242 250.655 290.395 250.335H290.433V251H291.188V247.766C291.188 246.206 289.999 246.027 289.372 246.027C288.631 246.027 287.787 246.283 287.404 247.178L288.119 247.433C288.286 247.075 288.679 246.692 289.398 246.692C290.091 246.692 290.433 247.059 290.433 247.689V247.714C290.433 248.079 290.063 248.047 289.168 248.162C288.257 248.28 287.263 248.482 287.263 249.607C287.263 250.565 288.004 251.115 288.938 251.115ZM289.053 250.438C288.452 250.438 288.017 250.169 288.017 249.645C288.017 249.07 288.541 248.891 289.129 248.814C289.449 248.776 290.306 248.686 290.433 248.533V249.223C290.433 249.837 289.948 250.438 289.053 250.438ZM295.517 251H296.233V246.091H294.214C293.156 246.091 292.513 246.644 292.513 247.548C292.513 248.223 292.852 248.702 293.443 248.903L292.245 251H293.063L294.201 249.006H295.517V251ZM295.517 248.303H294.124C293.59 248.303 293.267 248.018 293.267 247.548C293.267 247.072 293.625 246.781 294.214 246.781H295.517V248.303Z" fill="#334669"/>
<path opacity="0.5" d="M321.591 240H323.956C325.503 240 326.142 239.246 326.142 238.261C326.142 237.226 325.426 236.663 324.825 236.625V236.561C325.388 236.408 325.886 236.037 325.886 235.193C325.886 234.234 325.247 233.455 323.879 233.455H321.591V240ZM322.384 239.297V237.021H323.994C324.851 237.021 325.388 237.597 325.388 238.261C325.388 238.837 324.992 239.297 323.956 239.297H322.384ZM322.384 236.331V234.158H323.879C324.749 234.158 325.132 234.618 325.132 235.193C325.132 235.884 324.57 236.331 323.854 236.331H322.384ZM329.337 240.102C330.423 240.102 331.139 239.438 331.267 238.568H330.513C330.372 239.105 329.925 239.425 329.337 239.425C328.442 239.425 327.866 238.683 327.866 237.545C327.866 236.433 328.454 235.705 329.337 235.705C330.001 235.705 330.398 236.114 330.513 236.561H331.267C331.139 235.641 330.359 235.027 329.324 235.027C327.994 235.027 327.112 236.075 327.112 237.571C327.112 239.041 327.956 240.102 329.337 240.102ZM333.495 239.105H332.676L332.638 239.463C332.545 240.329 332.363 241.192 332.28 241.598H332.855C333.009 241.163 333.335 240.179 333.443 239.45L333.495 239.105ZM315.75 251H319.879V250.297H316.836V250.246L318.307 248.673C319.432 247.468 319.764 246.906 319.764 246.18C319.764 245.17 318.946 244.365 317.795 244.365C316.648 244.365 315.775 245.145 315.775 246.295H316.53C316.53 245.551 317.012 245.055 317.77 245.055C318.479 245.055 319.023 245.49 319.023 246.18C319.023 246.784 318.668 247.232 317.91 248.06L315.75 250.425V251ZM326.428 249.977L324.74 246.091H323.743V251H324.497V247.174L326.121 251H326.735L328.358 247.245V251H329.112V246.091H328.141L326.428 249.977ZM331.938 251.115C332.794 251.115 333.242 250.655 333.395 250.335H333.433V251H334.188V247.766C334.188 246.206 332.999 246.027 332.372 246.027C331.631 246.027 330.787 246.283 330.404 247.178L331.119 247.433C331.286 247.075 331.679 246.692 332.398 246.692C333.091 246.692 333.433 247.059 333.433 247.689V247.714C333.433 248.079 333.063 248.047 332.168 248.162C331.257 248.28 330.263 248.482 330.263 249.607C330.263 250.565 331.004 251.115 331.938 251.115ZM332.053 250.438C331.452 250.438 331.017 250.169 331.017 249.645C331.017 249.07 331.541 248.891 332.129 248.814C332.449 248.776 333.306 248.686 333.433 248.533V249.223C333.433 249.837 332.948 250.438 332.053 250.438ZM338.517 251H339.233V246.091H337.214C336.156 246.091 335.513 246.644 335.513 247.548C335.513 248.223 335.852 248.702 336.443 248.903L335.245 251H336.063L337.201 249.006H338.517V251ZM338.517 248.303H337.124C336.59 248.303 336.267 248.018 336.267 247.548C336.267 247.072 336.625 246.781 337.214 246.781H338.517V248.303Z" fill="#334669"/>
<g filter="url(#filter0_d)">
<path d="M41 166.5L98 142L144 166.5L193 120L237 166.5H284.5H330" stroke="#02771C" stroke-width="1.5"/>
</g>
<defs>
<filter id="filter0_d" x="32.7039" y="114.939" width="305.296" height="64.477" filterUnits="userSpaceOnUse" color-interpolation-filters="sRGB">
<feFlood flood-opacity="0" result="BackgroundImageFix"/>
<feColorMatrix in="SourceAlpha" type="matrix" values="0 0 0 0 0 0 0 0 0 0 0 0 0 0 0 0 0 0 127 0"/>
<feOffset dy="4"/>
<feGaussianBlur stdDeviation="4"/>
<feColorMatrix type="matrix" values="0 0 0 0 0.941176 0 0 0 0 0.631373 0 0 0 0 0.623529 0 0 0 0.6 0"/>
<feBlend mode="normal" in2="BackgroundImageFix" result="effect1_dropShadow"/>
<feBlend mode="normal" in="SourceGraphic" in2="effect1_dropShadow" result="shape"/>
</filter>
</defs>
</svg>
