<svg width="360" height="259" viewBox="0 0 360 259" fill="none" xmlns="http://www.w3.org/2000/svg">
<rect width="360" height="259" fill="white"/>
<path opacity="0.8" d="M23.7209 13.8182H22.1996V18.223H21.0213L18.4957 13.8182H16.6165L19.6491 18.6705L16.3878 24H18.1626L20.7578 19.6548H22.1996V24H23.7209V19.6548H25.1776L27.7379 24H29.5327L26.2912 18.6804L29.3139 13.8182H27.4396L24.9339 18.223H23.7209V13.8182ZM32.3739 21.9169V16.3636H30.9173V24H32.533L35.8839 18.4418V24H37.3406V16.3636H35.7397L32.3739 21.9169ZM38.5934 26.2024H40.065V24H45.3896V26.2024H46.8413V22.7124H45.668V16.3636H40.4776L40.239 19.2124C40.0799 21.1364 39.8462 22.1406 39.2148 22.7124H38.5934V26.2024ZM40.8058 22.7124C41.3129 22.0014 41.5018 20.8182 41.6509 19.2124L41.81 17.6364H44.2163V22.7124H40.8058ZM48.2942 24H49.7807V20.9474H50.7452L53.0471 24H54.8915L51.8986 20.0774L54.8567 16.3636H53.0172L50.4966 19.5653H49.7807V16.3636H48.2942V24ZM58.9483 24.1541C61.101 24.1541 62.508 22.5781 62.508 20.2166C62.508 17.8402 61.101 16.2642 58.9483 16.2642C56.7956 16.2642 55.3887 17.8402 55.3887 20.2166C55.3887 22.5781 56.7956 24.1541 58.9483 24.1541ZM58.9533 22.9062C57.5463 22.9062 56.8901 21.6783 56.8901 20.2116C56.8901 18.75 57.5463 17.5071 58.9533 17.5071C60.3503 17.5071 61.0066 18.75 61.0066 20.2116C61.0066 21.6783 60.3503 22.9062 58.9533 22.9062ZM67.3839 24.1541C69.1886 24.1541 70.3569 23.0703 70.521 21.5838H69.0742C68.8853 22.4091 68.244 22.8963 67.3938 22.8963C66.136 22.8963 65.3256 21.8473 65.3256 20.1818C65.3256 18.5462 66.1509 17.517 67.3938 17.517C68.3384 17.517 68.9151 18.1136 69.0742 18.8295H70.521C70.3619 17.2884 69.104 16.2642 67.369 16.2642C65.2163 16.2642 63.8242 17.8849 63.8242 20.2166C63.8242 22.5185 65.1665 24.1541 67.3839 24.1541ZM71.5327 17.6463H74.0334V24H75.4851V17.6463H77.9759V16.3636H71.5327V17.6463ZM81.0048 21.9169V16.3636H79.5481V24H81.1639L84.5147 18.4418V24H85.9714V16.3636H84.3706L81.0048 21.9169Z" fill="#334669"/>
<path opacity="0.5" d="M16.799 41H17.8963V37.8288H21.522V41H22.6229V33.7273H21.522V36.8878H17.8963V33.7273H16.799V41ZM26.4332 41.1101C27.9709 41.1101 28.9759 39.9844 28.9759 38.2976C28.9759 36.6001 27.9709 35.4744 26.4332 35.4744C24.8956 35.4744 23.8906 36.6001 23.8906 38.2976C23.8906 39.9844 24.8956 41.1101 26.4332 41.1101ZM26.4368 40.2188C25.4318 40.2188 24.9631 39.3416 24.9631 38.294C24.9631 37.25 25.4318 36.3622 26.4368 36.3622C27.4347 36.3622 27.9034 37.25 27.9034 38.294C27.9034 39.3416 27.4347 40.2188 26.4368 40.2188ZM30.161 43.0455H31.2228V40.1513H31.2868C31.4785 40.4993 31.8691 41.1065 32.8635 41.1065C34.1845 41.1065 35.1433 40.0483 35.1433 38.2834C35.1433 36.5149 34.1703 35.4744 32.8528 35.4744C31.8407 35.4744 31.475 36.0923 31.2868 36.4297H31.198V35.5455H30.161V43.0455ZM31.2015 38.2727C31.2015 37.1328 31.6987 36.3764 32.6255 36.3764C33.5879 36.3764 34.0708 37.1896 34.0708 38.2727C34.0708 39.3665 33.5737 40.201 32.6255 40.201C31.7129 40.201 31.2015 39.4197 31.2015 38.2727ZM39.394 39.6861L37.6681 35.5455H36.3329V41H37.3734V37.0334L38.9998 41H39.7882L41.443 37.0476V41H42.4764V35.5455H41.1554L39.394 39.6861ZM45.4789 41.1207C46.3809 41.1207 46.8887 40.6626 47.0911 40.2543H47.1337V41H48.1706V37.3778C48.1706 35.7905 46.9206 35.4744 46.0542 35.4744C45.0669 35.4744 44.1578 35.8722 43.8027 36.8665L44.8006 37.0938C44.9569 36.7067 45.3546 36.3338 46.0684 36.3338C46.7537 36.3338 47.1053 36.6925 47.1053 37.3104V37.3352C47.1053 37.7223 46.7076 37.7152 45.7275 37.8288C44.6941 37.9496 43.6358 38.2195 43.6358 39.4588C43.6358 40.5312 44.4419 41.1207 45.4789 41.1207ZM45.7097 40.2685C45.1096 40.2685 44.6763 39.9986 44.6763 39.473C44.6763 38.9048 45.1806 38.7024 45.7949 38.6207C46.1394 38.5746 46.9561 38.4822 47.1088 38.3295V39.0327C47.1088 39.679 46.5939 40.2685 45.7097 40.2685ZM52.2314 41H54.8379C56.0311 41 56.7306 40.3963 56.7306 39.5298C56.7306 38.7202 56.1092 38.223 55.3812 38.1378C56.0524 38.0099 56.4963 37.6406 56.4963 37.0014C56.4963 36.1065 55.7221 35.5455 54.4934 35.5455H52.2314V41ZM53.2292 40.1122V38.5959H54.8379C55.3635 38.5959 55.6795 38.9048 55.6795 39.4126C55.6795 39.8459 55.3635 40.1122 54.8379 40.1122H53.2292ZM53.2292 37.8182V36.4439H54.4934C55.0971 36.4439 55.4629 36.696 55.4629 37.1151C55.4629 37.5518 55.1007 37.8182 54.5041 37.8182H53.2292ZM58.9359 37.4205V35.5455H57.8954V41H60.2782C61.6135 41 62.3592 40.2259 62.3592 39.1996C62.3592 38.152 61.6135 37.4205 60.2782 37.4205H58.9359ZM63.1333 41H64.1951V35.5455H63.1333V41ZM58.9359 38.3366H60.2782C60.889 38.3366 61.3258 38.706 61.3258 39.2315C61.3258 39.7287 60.889 40.0838 60.2782 40.0838H58.9359V38.3366ZM65.0874 42.5732H66.1385V41H69.9418V42.5732H70.9787V40.0803H70.1406V35.5455H66.4332L66.2628 37.5803C66.1491 38.9545 65.9822 39.6719 65.5312 40.0803H65.0874V42.5732ZM66.6676 40.0803C67.0298 39.5724 67.1648 38.7273 67.2713 37.5803L67.3849 36.4545H69.1037V40.0803H66.6676ZM74.3674 41.1101C75.557 41.1101 76.3986 40.5241 76.6401 39.6364L75.6351 39.4553C75.4434 39.9702 74.9817 40.233 74.378 40.233C73.4689 40.233 72.8581 39.6435 72.8297 38.5923H76.7076V38.2159C76.7076 36.245 75.5286 35.4744 74.2928 35.4744C72.7729 35.4744 71.7715 36.6321 71.7715 38.3082C71.7715 40.0021 72.7587 41.1101 74.3674 41.1101ZM72.8333 37.7969C72.8759 37.0227 73.437 36.3516 74.2999 36.3516C75.1238 36.3516 75.6635 36.9624 75.6671 37.7969H72.8333ZM77.456 41H77.7969C78.9865 41 79.4233 40.1193 79.5085 38.3153L79.5938 36.4616H81.3764V41H82.4169V35.5455H78.6101L78.5142 37.9602C78.4467 39.6435 78.255 40.0803 77.6477 40.0803H77.4524L77.456 41ZM86.1838 41.1101C87.3734 41.1101 88.215 40.5241 88.4565 39.6364L87.4515 39.4553C87.2598 39.9702 86.7981 40.233 86.1944 40.233C85.2853 40.233 84.6745 39.6435 84.6461 38.5923H88.524V38.2159C88.524 36.245 87.345 35.4744 86.1092 35.4744C84.5893 35.4744 83.5879 36.6321 83.5879 38.3082C83.5879 40.0021 84.5751 41.1101 86.1838 41.1101ZM84.6497 37.7969C84.6923 37.0227 85.2534 36.3516 86.1163 36.3516C86.9402 36.3516 87.4799 36.9624 87.4835 37.7969H84.6497ZM90.7425 35.5455H89.7021V41H90.7425V38.7344H93.104V41H94.141V35.5455H93.104V37.8146H90.7425V35.5455ZM96.6019 39.5121V35.5455H95.5614V41H96.7156L99.109 37.0298V41H100.15V35.5455H99.006L96.6019 39.5121ZM104.83 41H105.828V35.5455H103.523C102.266 35.5455 101.499 36.1953 101.499 37.2216C101.499 37.9389 101.875 38.468 102.525 38.7131L101.25 41H102.337L103.527 38.8658H104.83V41ZM104.83 38.0064H103.452C102.873 38.0064 102.536 37.701 102.539 37.2358C102.536 36.767 102.902 36.451 103.523 36.451H104.83V38.0064ZM109.54 41H110.8L112.512 38.7273H112.867V41H113.929V38.7273H114.284L115.985 41H117.246L115.143 38.2088L117.221 35.5455H115.985L114.298 37.8111H113.929V35.5455H112.867V37.8111H112.487L110.8 35.5455H109.564L111.653 38.2088L109.54 41ZM119.366 39.5121V35.5455H118.325V41H119.479L121.873 37.0298V41H122.913V35.5455H121.77L119.366 39.5121ZM123.808 42.5732H124.859V41H128.662V42.5732H129.699V40.0803H128.861V35.5455H125.154L124.983 37.5803C124.87 38.9545 124.703 39.6719 124.252 40.0803H123.808V42.5732ZM125.388 40.0803C125.751 39.5724 125.885 38.7273 125.992 37.5803L126.106 36.4545H127.824V40.0803H125.388ZM130.737 41H131.799V38.8196H132.488L134.132 41H135.45L133.312 38.1982L135.425 35.5455H134.111L132.31 37.8324H131.799V35.5455H130.737V41ZM138.347 41.1101C139.885 41.1101 140.89 39.9844 140.89 38.2976C140.89 36.6001 139.885 35.4744 138.347 35.4744C136.81 35.4744 135.805 36.6001 135.805 38.2976C135.805 39.9844 136.81 41.1101 138.347 41.1101ZM138.351 40.2188C137.346 40.2188 136.877 39.3416 136.877 38.294C136.877 37.25 137.346 36.3622 138.351 36.3622C139.349 36.3622 139.817 37.25 139.817 38.294C139.817 39.3416 139.349 40.2188 138.351 40.2188ZM144.373 41.1101C145.662 41.1101 146.496 40.3359 146.613 39.2741H145.58C145.445 39.8636 144.987 40.2116 144.38 40.2116C143.481 40.2116 142.903 39.4624 142.903 38.2727C142.903 37.1044 143.492 36.3693 144.38 36.3693C145.055 36.3693 145.466 36.7955 145.58 37.3068H146.613C146.5 36.206 145.601 35.4744 144.362 35.4744C142.824 35.4744 141.83 36.6321 141.83 38.2976C141.83 39.9418 142.789 41.1101 144.373 41.1101ZM147.336 36.4616H149.122V41H150.159V36.4616H151.938V35.5455H147.336V36.4616ZM154.102 39.5121V35.5455H153.061V41H154.216L156.609 37.0298V41H157.65V35.5455H156.506L154.102 39.5121ZM159.777 37.0973C160.164 37.0973 160.487 36.7812 160.487 36.3871C160.487 36 160.164 35.6804 159.777 35.6804C159.386 35.6804 159.066 36 159.066 36.3871C159.066 36.7812 159.386 37.0973 159.777 37.0973ZM159.777 41.0675C160.164 41.0675 160.487 40.7514 160.487 40.3572C160.487 39.9702 160.164 39.6506 159.777 39.6506C159.386 39.6506 159.066 39.9702 159.066 40.3572C159.066 40.7514 159.386 41.0675 159.777 41.0675Z" fill="#334669"/>
<line x1="40" y1="212.5" x2="348" y2="212.5" stroke="#D3D8DD" stroke-miterlimit="16" stroke-dasharray="8 8"/>
<line x1="40" y1="166.5" x2="348" y2="166.5" stroke="#D3D8DD" stroke-miterlimit="16" stroke-dasharray="8 8"/>
<line x1="40" y1="120.5" x2="348" y2="120.5" stroke="#D3D8DD" stroke-miterlimit="16" stroke-dasharray="8 8"/>
<line x1="40" y1="88.5" x2="348" y2="88.5" stroke="#D3D8DD" stroke-miterlimit="16" stroke-dasharray="8 8"/>
<path opacity="0.5" d="M169.157 41.0994C170.67 41.0994 171.739 40.2401 171.746 39.0611C171.739 38.1449 171.096 37.3743 170.283 37.2287V37.1861C170.989 37.0156 171.469 36.3516 171.476 35.5668C171.469 34.4553 170.489 33.6278 169.157 33.6278C167.811 33.6278 166.831 34.4553 166.838 35.5668C166.831 36.348 167.31 37.0156 168.031 37.1861V37.2287C167.204 37.3743 166.561 38.1449 166.568 39.0611C166.561 40.2401 167.63 41.0994 169.157 41.0994ZM169.157 40.201C168.248 40.201 167.673 39.718 167.68 38.9901C167.673 38.2337 168.298 37.6939 169.157 37.6939C170.002 37.6939 170.627 38.2337 170.634 38.9901C170.627 39.718 170.055 40.201 169.157 40.201ZM169.157 36.8168C168.422 36.8168 167.9 36.3516 167.907 35.6591C167.9 34.9773 168.404 34.5263 169.157 34.5263C169.896 34.5263 170.4 34.9773 170.407 35.6591C170.4 36.3516 169.881 36.8168 169.157 36.8168ZM175.55 41.1207C177.23 41.1207 178.213 39.75 178.213 37.3672C178.213 35.0021 177.215 33.6278 175.55 33.6278C173.881 33.6278 172.887 34.9986 172.883 37.3672C172.883 39.7464 173.867 41.1172 175.55 41.1207ZM175.55 40.1726C174.566 40.1726 173.973 39.1854 173.973 37.3672C173.977 35.5561 174.57 34.5582 175.55 34.5582C176.526 34.5582 177.123 35.5561 177.123 37.3672C177.123 39.1854 176.53 40.1726 175.55 40.1726ZM183.269 39.6364C183.273 40.4567 183.788 41.1491 184.75 41.1491C185.702 41.1491 186.224 40.4567 186.224 39.6364V39.2528C186.224 38.429 185.716 37.7401 184.75 37.7401C183.802 37.7401 183.273 38.4325 183.269 39.2528V39.6364ZM179.612 35.4744C179.612 36.2947 180.13 36.9872 181.092 36.9872C182.04 36.9872 182.566 36.2983 182.562 35.4744V35.0909C182.566 34.267 182.055 33.5781 181.092 33.5781C180.148 33.5781 179.612 34.267 179.612 35.0909V35.4744ZM179.91 41H180.759L185.759 33.7273H184.91L179.91 41ZM184.097 39.2528C184.1 38.8445 184.278 38.4503 184.75 38.4503C185.24 38.4503 185.393 38.8445 185.393 39.2528V39.6364C185.393 40.0447 185.226 40.4389 184.75 40.4389C184.267 40.4389 184.1 40.0412 184.097 39.6364V39.2528ZM180.442 35.0909C180.442 34.6861 180.62 34.2884 181.092 34.2884C181.582 34.2884 181.735 34.6825 181.735 35.0909V35.4744C181.735 35.8828 181.568 36.277 181.092 36.277C180.609 36.277 180.442 35.8828 180.442 35.4744V35.0909ZM192.713 41.1101C194.25 41.1101 195.255 39.9844 195.255 38.2976C195.255 36.6001 194.25 35.4744 192.713 35.4744C191.175 35.4744 190.17 36.6001 190.17 38.2976C190.17 39.9844 191.175 41.1101 192.713 41.1101ZM192.716 40.2188C191.711 40.2188 191.242 39.3416 191.242 38.294C191.242 37.25 191.711 36.3622 192.716 36.3622C193.714 36.3622 194.183 37.25 194.183 38.294C194.183 39.3416 193.714 40.2188 192.716 40.2188ZM195.783 36.4616H197.57V41H198.607V36.4616H200.386V35.5455H195.783V36.4616ZM204.155 41H206.762C207.955 41 208.654 40.3963 208.654 39.5298C208.654 38.7202 208.033 38.223 207.305 38.1378C207.976 38.0099 208.42 37.6406 208.42 37.0014C208.42 36.1065 207.646 35.5455 206.417 35.5455H204.155V41ZM205.153 40.1122V38.5959H206.762C207.287 38.5959 207.603 38.9048 207.603 39.4126C207.603 39.8459 207.287 40.1122 206.762 40.1122H205.153ZM205.153 37.8182V36.4439H206.417C207.021 36.4439 207.387 36.696 207.387 37.1151C207.387 37.5518 207.025 37.8182 206.428 37.8182H205.153ZM210.86 37.4205V35.5455H209.819V41H212.202C213.537 41 214.283 40.2259 214.283 39.1996C214.283 38.152 213.537 37.4205 212.202 37.4205H210.86ZM215.057 41H216.119V35.5455H215.057V41ZM210.86 38.3366H212.202C212.813 38.3366 213.25 38.706 213.25 39.2315C213.25 39.7287 212.813 40.0838 212.202 40.0838H210.86V38.3366ZM217.544 41H218.577V36.4616H220.953V41H221.993V35.5455H217.544V41ZM224.453 39.5121V35.5455H223.413V41H224.567L226.961 37.0298V41H228.001V35.5455H226.858L224.453 39.5121ZM228.752 36.4616H230.538V41H231.575V36.4616H233.354V35.5455H228.752V36.4616ZM236.521 41.1101C238.059 41.1101 239.064 39.9844 239.064 38.2976C239.064 36.6001 238.059 35.4744 236.521 35.4744C234.983 35.4744 233.979 36.6001 233.979 38.2976C233.979 39.9844 234.983 41.1101 236.521 41.1101ZM236.525 40.2188C235.52 40.2188 235.051 39.3416 235.051 38.294C235.051 37.25 235.52 36.3622 236.525 36.3622C237.523 36.3622 237.991 37.25 237.991 38.294C237.991 39.3416 237.523 40.2188 236.525 40.2188ZM241.289 39.5121V35.5455H240.249V41H241.403L243.797 37.0298V41H244.837V35.5455H243.694L241.289 39.5121ZM243.239 33.6989C243.239 34.0575 243.04 34.3736 242.543 34.3736C242.039 34.3736 241.85 34.054 241.85 33.6989H240.98C240.98 34.4979 241.588 35.0483 242.543 35.0483C243.505 35.0483 244.113 34.4979 244.113 33.6989H243.239Z" fill="#334669"/>
<path opacity="0.5" d="M52.061 233.455H47.1775V240H47.9701V234.158H51.2684V240H52.061V233.455ZM54.3118 235.091H53.5575V240H54.3118V237.903H56.6641V240H57.4183V235.091H56.6641V237.2H54.3118V235.091ZM59.9208 239.105H59.1026L59.0643 239.463C58.9716 240.329 58.7894 241.192 58.7063 241.598H59.2816C59.435 241.163 59.761 240.179 59.8697 239.45L59.9208 239.105ZM39.7195 251H43.8488V250.297H40.8062V250.246L42.2764 248.673C43.4014 247.468 43.7338 246.906 43.7338 246.18C43.7338 245.17 42.9156 244.365 41.765 244.365C40.6176 244.365 39.7451 245.145 39.7451 246.295H40.4994C40.4994 245.551 40.982 245.055 41.7394 245.055C42.449 245.055 42.9923 245.49 42.9923 246.18C42.9923 246.784 42.6375 247.232 41.8801 248.06L39.7195 250.425V251ZM45.3733 251H46.2043L49.1191 245.196V244.455H44.9259V245.158H48.3009V245.209L45.3733 251ZM54.299 251.115C55.1555 251.115 55.603 250.655 55.7564 250.335H55.7947V251H56.549V247.766C56.549 246.206 55.3601 246.027 54.7337 246.027C53.9922 246.027 53.1484 246.283 52.7649 247.178L53.4808 247.433C53.647 247.075 54.0401 246.692 54.7592 246.692C55.4528 246.692 55.7947 247.059 55.7947 247.689V247.714C55.7947 248.079 55.424 248.047 54.5291 248.162C53.6183 248.28 52.6243 248.482 52.6243 249.607C52.6243 250.565 53.3658 251.115 54.299 251.115ZM54.4141 250.438C53.8132 250.438 53.3786 250.169 53.3786 249.645C53.3786 249.07 53.9027 248.891 54.4908 248.814C54.8104 248.776 55.6669 248.686 55.7947 248.533V249.223C55.7947 249.837 55.3089 250.438 54.4141 250.438ZM57.9257 251H58.68V246.794H61.0322V251H61.7865V246.091H57.9257V251ZM63.164 252.841H63.9182V250.246H63.9822C64.1483 250.514 64.468 251.102 65.414 251.102C66.6412 251.102 67.4978 250.118 67.4978 248.558C67.4978 247.011 66.6412 246.027 65.4012 246.027C64.4424 246.027 64.1483 246.615 63.9822 246.871H63.8927V246.091H63.164V252.841ZM63.9055 248.545C63.9055 247.446 64.3912 246.705 65.3117 246.705C66.2705 246.705 66.7435 247.51 66.7435 248.545C66.7435 249.594 66.2577 250.425 65.3117 250.425C64.404 250.425 63.9055 249.658 63.9055 248.545Z" fill="#334669"/>
<path opacity="0.5" d="M16.7741 215.089C18.0813 215.089 18.9922 214.326 18.9986 213.261C18.9922 212.434 18.4393 211.73 17.733 211.599V211.561C18.3466 211.401 18.7493 210.8 18.7557 210.104C18.7493 209.107 17.9119 208.365 16.7741 208.365C15.6236 208.365 14.7862 209.107 14.7926 210.104C14.7862 210.8 15.1889 211.401 15.8153 211.561V211.599C15.0962 211.73 14.5433 212.434 14.5497 213.261C14.5433 214.326 15.4542 215.089 16.7741 215.089ZM16.7741 214.386C15.8761 214.386 15.3232 213.926 15.3295 213.223C15.3232 212.485 15.9336 211.957 16.7741 211.957C17.6019 211.957 18.2124 212.485 18.2188 213.223C18.2124 213.926 17.6594 214.386 16.7741 214.386ZM16.7741 211.28C16.0582 211.28 15.5533 210.832 15.5597 210.155C15.5533 209.49 16.0391 209.055 16.7741 209.055C17.4964 209.055 17.9822 209.49 17.9886 210.155C17.9822 210.832 17.4773 211.28 16.7741 211.28ZM22.3584 215.089C23.803 215.089 24.634 213.865 24.634 211.727C24.634 209.605 23.7902 208.365 22.3584 208.365C20.9266 208.365 20.0828 209.605 20.0828 211.727C20.0828 213.865 20.9138 215.089 22.3584 215.089ZM22.3584 214.386C21.406 214.386 20.8499 213.431 20.8499 211.727C20.8499 210.027 21.4124 209.055 22.3584 209.055C23.3044 209.055 23.8669 210.027 23.8669 211.727C23.8669 213.431 23.3108 214.386 22.3584 214.386ZM27.9834 215.089C29.428 215.089 30.259 213.865 30.259 211.727C30.259 209.605 29.4152 208.365 27.9834 208.365C26.5516 208.365 25.7078 209.605 25.7078 211.727C25.7078 213.865 26.5388 215.089 27.9834 215.089ZM27.9834 214.386C27.031 214.386 26.4749 213.431 26.4749 211.727C26.4749 210.027 27.0374 209.055 27.9834 209.055C28.9294 209.055 29.4919 210.027 29.4919 211.727C29.4919 213.431 28.9358 214.386 27.9834 214.386Z" fill="#334669"/>
<path opacity="0.5" d="M14.9787 187.455H14.1861L12.5497 188.541V189.347L14.1477 188.286H14.1861V194H14.9787V187.455ZM18.9961 194.089C20.4407 194.089 21.2717 192.865 21.2717 190.727C21.2717 188.605 20.4279 187.365 18.9961 187.365C17.5643 187.365 16.7205 188.605 16.7205 190.727C16.7205 192.865 17.5515 194.089 18.9961 194.089ZM18.9961 193.386C18.0437 193.386 17.4876 192.431 17.4876 190.727C17.4876 189.027 18.0501 188.055 18.9961 188.055C19.9421 188.055 20.5046 189.027 20.5046 190.727C20.5046 192.431 19.9485 193.386 18.9961 193.386ZM24.6211 194.089C26.0657 194.089 26.8967 192.865 26.8967 190.727C26.8967 188.605 26.0529 187.365 24.6211 187.365C23.1893 187.365 22.3455 188.605 22.3455 190.727C22.3455 192.865 23.1765 194.089 24.6211 194.089ZM24.6211 193.386C23.6687 193.386 23.1126 192.431 23.1126 190.727C23.1126 189.027 23.6751 188.055 24.6211 188.055C25.5671 188.055 26.1296 189.027 26.1296 190.727C26.1296 192.431 25.5735 193.386 24.6211 193.386ZM30.2461 194.089C31.6907 194.089 32.5217 192.865 32.5217 190.727C32.5217 188.605 31.6779 187.365 30.2461 187.365C28.8143 187.365 27.9705 188.605 27.9705 190.727C27.9705 192.865 28.8015 194.089 30.2461 194.089ZM30.2461 193.386C29.2937 193.386 28.7376 192.431 28.7376 190.727C28.7376 189.027 29.3001 188.055 30.2461 188.055C31.1921 188.055 31.7546 189.027 31.7546 190.727C31.7546 192.431 31.1985 193.386 30.2461 193.386Z" fill="#334669"/>
<path opacity="0.5" d="M14.9787 145.455H14.1861L12.5497 146.541V147.347L14.1477 146.286H14.1861V152H14.9787V145.455ZM16.7077 150.658H19.7887V152H20.543V150.658H21.4379V149.955H20.543V145.455H19.5842L16.7077 150.006V150.658ZM19.7887 149.955H17.5643V149.903L19.7376 146.464H19.7887V149.955ZM24.7705 152.089C26.2151 152.089 27.0461 150.865 27.0461 148.727C27.0461 146.605 26.2023 145.365 24.7705 145.365C23.3387 145.365 22.4949 146.605 22.4949 148.727C22.4949 150.865 23.3259 152.089 24.7705 152.089ZM24.7705 151.386C23.8181 151.386 23.262 150.431 23.262 148.727C23.262 147.027 23.8245 146.055 24.7705 146.055C25.7165 146.055 26.279 147.027 26.279 148.727C26.279 150.431 25.7229 151.386 24.7705 151.386ZM30.3955 152.089C31.8401 152.089 32.6711 150.865 32.6711 148.727C32.6711 146.605 31.8273 145.365 30.3955 145.365C28.9637 145.365 28.1199 146.605 28.1199 148.727C28.1199 150.865 28.9509 152.089 30.3955 152.089ZM30.3955 151.386C29.4431 151.386 28.887 150.431 28.887 148.727C28.887 147.027 29.4495 146.055 30.3955 146.055C31.3415 146.055 31.904 147.027 31.904 148.727C31.904 150.431 31.3479 151.386 30.3955 151.386Z" fill="#334669"/>
<path opacity="0.5" d="M14.9787 166.455H14.1861L12.5497 167.541V168.347L14.1477 167.286H14.1861V173H14.9787V166.455ZM16.8612 173H20.9904V172.297H17.9478V172.246L19.418 170.673C20.543 169.468 20.8754 168.906 20.8754 168.18C20.8754 167.17 20.0572 166.365 18.9066 166.365C17.7592 166.365 16.8867 167.145 16.8867 168.295H17.641C17.641 167.551 18.1236 167.055 18.881 167.055C19.5906 167.055 20.1339 167.49 20.1339 168.18C20.1339 168.784 19.7791 169.232 19.0217 170.06L16.8612 172.425V173ZM24.4453 173.089C25.8899 173.089 26.7209 171.865 26.7209 169.727C26.7209 167.605 25.8771 166.365 24.4453 166.365C23.0135 166.365 22.1697 167.605 22.1697 169.727C22.1697 171.865 23.0007 173.089 24.4453 173.089ZM24.4453 172.386C23.4929 172.386 22.9368 171.431 22.9368 169.727C22.9368 168.027 23.4993 167.055 24.4453 167.055C25.3913 167.055 25.9538 168.027 25.9538 169.727C25.9538 171.431 25.3977 172.386 24.4453 172.386ZM30.0703 173.089C31.5149 173.089 32.3459 171.865 32.3459 169.727C32.3459 167.605 31.5021 166.365 30.0703 166.365C28.6385 166.365 27.7947 167.605 27.7947 169.727C27.7947 171.865 28.6257 173.089 30.0703 173.089ZM30.0703 172.386C29.1179 172.386 28.5618 171.431 28.5618 169.727C28.5618 168.027 29.1243 167.055 30.0703 167.055C31.0163 167.055 31.5788 168.027 31.5788 169.727C31.5788 171.431 31.0227 172.386 30.0703 172.386Z" fill="#334669"/>
<path opacity="0.5" d="M14.9787 124.455H14.1861L12.5497 125.541V126.347L14.1477 125.286H14.1861V131H14.9787V124.455ZM19.0344 131.089C20.3576 131.105 21.2205 130.108 21.2205 128.891C21.2205 127.625 20.2841 126.717 19.1623 126.717C18.4879 126.717 17.9094 127.047 17.5515 127.587H17.5004C17.5036 125.979 18.1236 125.055 19.1367 125.055C19.8271 125.055 20.2425 125.49 20.3896 126.091H21.1694C21.0096 125.062 20.2362 124.352 19.1367 124.352C17.6634 124.352 16.7589 125.656 16.7589 127.983C16.7589 130.402 17.9606 131.077 19.0344 131.089ZM19.0344 130.386C18.2131 130.386 17.6122 129.686 17.6154 128.903C17.6186 128.12 18.2482 127.42 19.06 127.42C19.8622 127.42 20.4535 128.079 20.4535 128.891C20.4535 129.722 19.8366 130.386 19.0344 130.386ZM24.6123 131.089C26.0569 131.089 26.8879 129.865 26.8879 127.727C26.8879 125.605 26.0441 124.365 24.6123 124.365C23.1805 124.365 22.3367 125.605 22.3367 127.727C22.3367 129.865 23.1677 131.089 24.6123 131.089ZM24.6123 130.386C23.6599 130.386 23.1038 129.431 23.1038 127.727C23.1038 126.027 23.6663 125.055 24.6123 125.055C25.5583 125.055 26.1208 126.027 26.1208 127.727C26.1208 129.431 25.5647 130.386 24.6123 130.386ZM30.2373 131.089C31.6819 131.089 32.5129 129.865 32.5129 127.727C32.5129 125.605 31.6691 124.365 30.2373 124.365C28.8055 124.365 27.9617 125.605 27.9617 127.727C27.9617 129.865 28.7927 131.089 30.2373 131.089ZM30.2373 130.386C29.2849 130.386 28.7288 129.431 28.7288 127.727C28.7288 126.027 29.2913 125.055 30.2373 125.055C31.1833 125.055 31.7458 126.027 31.7458 127.727C31.7458 129.431 31.1897 130.386 30.2373 130.386Z" fill="#334669"/>
<path opacity="0.5" d="M14.9787 103.455H14.1861L12.5497 104.541V105.347L14.1477 104.286H14.1861V110H14.9787V103.455ZM18.9577 110.089C20.2649 110.089 21.1758 109.326 21.1822 108.261C21.1758 107.434 20.6229 106.73 19.9165 106.599V106.561C20.5302 106.401 20.9329 105.8 20.9393 105.104C20.9329 104.107 20.0955 103.365 18.9577 103.365C17.8072 103.365 16.9698 104.107 16.9762 105.104C16.9698 105.8 17.3725 106.401 17.9989 106.561V106.599C17.2798 106.73 16.7269 107.434 16.7333 108.261C16.7269 109.326 17.6378 110.089 18.9577 110.089ZM18.9577 109.386C18.0597 109.386 17.5067 108.926 17.5131 108.223C17.5067 107.485 18.1172 106.957 18.9577 106.957C19.7855 106.957 20.396 107.485 20.4023 108.223C20.396 108.926 19.843 109.386 18.9577 109.386ZM18.9577 106.28C18.2418 106.28 17.7369 105.832 17.7433 105.155C17.7369 104.49 18.2227 104.055 18.9577 104.055C19.68 104.055 20.1658 104.49 20.1722 105.155C20.1658 105.832 19.6609 106.28 18.9577 106.28ZM24.542 110.089C25.9866 110.089 26.8176 108.865 26.8176 106.727C26.8176 104.605 25.9738 103.365 24.542 103.365C23.1102 103.365 22.2664 104.605 22.2664 106.727C22.2664 108.865 23.0974 110.089 24.542 110.089ZM24.542 109.386C23.5896 109.386 23.0335 108.431 23.0335 106.727C23.0335 105.027 23.596 104.055 24.542 104.055C25.488 104.055 26.0505 105.027 26.0505 106.727C26.0505 108.431 25.4944 109.386 24.542 109.386ZM30.167 110.089C31.6116 110.089 32.4426 108.865 32.4426 106.727C32.4426 104.605 31.5988 103.365 30.167 103.365C28.7352 103.365 27.8914 104.605 27.8914 106.727C27.8914 108.865 28.7224 110.089 30.167 110.089ZM30.167 109.386C29.2146 109.386 28.6585 108.431 28.6585 106.727C28.6585 105.027 29.221 104.055 30.167 104.055C31.113 104.055 31.6755 105.027 31.6755 106.727C31.6755 108.431 31.1194 109.386 30.167 109.386Z" fill="#334669"/>
<path opacity="0.5" d="M11.6776 89H15.8068V88.2969H12.7642V88.2457L14.2344 86.6733C15.3594 85.4684 15.6918 84.9059 15.6918 84.1804C15.6918 83.1705 14.8736 82.3651 13.723 82.3651C12.5756 82.3651 11.7031 83.1449 11.7031 84.2955H12.4574C12.4574 83.5508 12.94 83.0554 13.6974 83.0554C14.407 83.0554 14.9503 83.4901 14.9503 84.1804C14.9503 84.7844 14.5955 85.2319 13.8381 86.0597L11.6776 88.4247V89ZM19.2617 89.0895C20.7063 89.0895 21.5373 87.8654 21.5373 85.7273C21.5373 83.6051 20.6935 82.3651 19.2617 82.3651C17.8299 82.3651 16.9862 83.6051 16.9862 85.7273C16.9862 87.8654 17.8171 89.0895 19.2617 89.0895ZM19.2617 88.3864C18.3093 88.3864 17.7532 87.4308 17.7532 85.7273C17.7532 84.027 18.3157 83.0554 19.2617 83.0554C20.2077 83.0554 20.7702 84.027 20.7702 85.7273C20.7702 87.4308 20.2141 88.3864 19.2617 88.3864ZM24.8867 89.0895C26.3313 89.0895 27.1623 87.8654 27.1623 85.7273C27.1623 83.6051 26.3185 82.3651 24.8867 82.3651C23.4549 82.3651 22.6112 83.6051 22.6112 85.7273C22.6112 87.8654 23.4421 89.0895 24.8867 89.0895ZM24.8867 88.3864C23.9343 88.3864 23.3782 87.4308 23.3782 85.7273C23.3782 84.027 23.9407 83.0554 24.8867 83.0554C25.8327 83.0554 26.3952 84.027 26.3952 85.7273C26.3952 87.4308 25.8391 88.3864 24.8867 88.3864ZM30.5117 89.0895C31.9563 89.0895 32.7873 87.8654 32.7873 85.7273C32.7873 83.6051 31.9435 82.3651 30.5117 82.3651C29.0799 82.3651 28.2362 83.6051 28.2362 85.7273C28.2362 87.8654 29.0671 89.0895 30.5117 89.0895ZM30.5117 88.3864C29.5593 88.3864 29.0032 87.4308 29.0032 85.7273C29.0032 84.027 29.5657 83.0554 30.5117 83.0554C31.4577 83.0554 32.0202 84.027 32.0202 85.7273C32.0202 87.4308 31.4641 88.3864 30.5117 88.3864Z" fill="#334669"/>
<path opacity="0.5" d="M11.6776 68H15.8068V67.2969H12.7642V67.2457L14.2344 65.6733C15.3594 64.4684 15.6918 63.9059 15.6918 63.1804C15.6918 62.1705 14.8736 61.3651 13.723 61.3651C12.5756 61.3651 11.7031 62.1449 11.7031 63.2955H12.4574C12.4574 62.5508 12.94 62.0554 13.6974 62.0554C14.407 62.0554 14.9503 62.4901 14.9503 63.1804C14.9503 63.7844 14.5955 64.2319 13.8381 65.0597L11.6776 67.4247V68ZM17.1268 68H21.256V67.2969H18.2134V67.2457L19.6836 65.6733C20.8086 64.4684 21.141 63.9059 21.141 63.1804C21.141 62.1705 20.3228 61.3651 19.1722 61.3651C18.0249 61.3651 17.1523 62.1449 17.1523 63.2955H17.9066C17.9066 62.5508 18.3892 62.0554 19.1467 62.0554C19.8562 62.0554 20.3995 62.4901 20.3995 63.1804C20.3995 63.7844 20.0447 64.2319 19.2873 65.0597L17.1268 67.4247V68ZM24.7109 68.0895C26.1555 68.0895 26.9865 66.8654 26.9865 64.7273C26.9865 62.6051 26.1428 61.3651 24.7109 61.3651C23.2791 61.3651 22.4354 62.6051 22.4354 64.7273C22.4354 66.8654 23.2663 68.0895 24.7109 68.0895ZM24.7109 67.3864C23.7585 67.3864 23.2024 66.4308 23.2024 64.7273C23.2024 63.027 23.7649 62.0554 24.7109 62.0554C25.657 62.0554 26.2195 63.027 26.2195 64.7273C26.2195 66.4308 25.6634 67.3864 24.7109 67.3864ZM30.3359 68.0895C31.7805 68.0895 32.6115 66.8654 32.6115 64.7273C32.6115 62.6051 31.7678 61.3651 30.3359 61.3651C28.9041 61.3651 28.0604 62.6051 28.0604 64.7273C28.0604 66.8654 28.8913 68.0895 30.3359 68.0895ZM30.3359 67.3864C29.3835 67.3864 28.8274 66.4308 28.8274 64.7273C28.8274 63.027 29.3899 62.0554 30.3359 62.0554C31.282 62.0554 31.8445 63.027 31.8445 64.7273C31.8445 66.4308 31.2884 67.3864 30.3359 67.3864Z" fill="#334669"/>
<path opacity="0.5" d="M95.6095 240H97.9746C99.5214 240 100.161 239.246 100.161 238.261C100.161 237.226 99.4447 236.663 98.8439 236.625V236.561C99.4064 236.408 99.905 236.037 99.905 235.193C99.905 234.234 99.2658 233.455 97.8979 233.455H95.6095V240ZM96.4021 239.297V237.021H98.0129C98.8695 237.021 99.4064 237.597 99.4064 238.261C99.4064 238.837 99.0101 239.297 97.9746 239.297H96.4021ZM96.4021 236.331V234.158H97.8979C98.7672 234.158 99.1507 234.618 99.1507 235.193C99.1507 235.884 98.5882 236.331 97.8723 236.331H96.4021ZM101.08 235.794H102.703V240H103.457V235.794H105.068V235.091H101.08V235.794ZM106.476 239.105H105.658L105.619 239.463C105.527 240.329 105.345 241.192 105.261 241.598H105.837C105.99 241.163 106.316 240.179 106.425 239.45L106.476 239.105ZM87.0174 251H91.1467V250.297H88.104V250.246L89.5742 248.673C90.6992 247.468 91.0316 246.906 91.0316 246.18C91.0316 245.17 90.2134 244.365 89.0629 244.365C87.9155 244.365 87.043 245.145 87.043 246.295H87.7972C87.7972 245.551 88.2798 245.055 89.0373 245.055C89.7468 245.055 90.2901 245.49 90.2901 246.18C90.2901 246.784 89.9354 247.232 89.1779 248.06L87.0174 250.425V251ZM94.5632 251.089C95.8704 251.089 96.7812 250.326 96.7876 249.261C96.7812 248.434 96.2283 247.73 95.522 247.599V247.561C96.1357 247.401 96.5384 246.8 96.5447 246.104C96.5384 245.107 95.701 244.365 94.5632 244.365C93.4126 244.365 92.5753 245.107 92.5817 246.104C92.5753 246.8 92.978 247.401 93.6044 247.561V247.599C92.8853 247.73 92.3324 248.434 92.3388 249.261C92.3324 250.326 93.2433 251.089 94.5632 251.089ZM94.5632 250.386C93.6651 250.386 93.1122 249.926 93.1186 249.223C93.1122 248.485 93.7227 247.957 94.5632 247.957C95.391 247.957 96.0014 248.485 96.0078 249.223C96.0014 249.926 95.4485 250.386 94.5632 250.386ZM94.5632 247.28C93.8473 247.28 93.3423 246.832 93.3487 246.155C93.3423 245.49 93.8281 245.055 94.5632 245.055C95.2855 245.055 95.7713 245.49 95.7777 246.155C95.7713 246.832 95.2663 247.28 94.5632 247.28ZM102.001 251.115C102.858 251.115 103.305 250.655 103.459 250.335H103.497V251H104.251V247.766C104.251 246.206 103.062 246.027 102.436 246.027C101.694 246.027 100.851 246.283 100.467 247.178L101.183 247.433C101.349 247.075 101.742 246.692 102.461 246.692C103.155 246.692 103.497 247.059 103.497 247.689V247.714C103.497 248.079 103.126 248.047 102.231 248.162C101.32 248.28 100.326 248.482 100.326 249.607C100.326 250.565 101.068 251.115 102.001 251.115ZM102.116 250.438C101.515 250.438 101.081 250.169 101.081 249.645C101.081 249.07 101.605 248.891 102.193 248.814C102.513 248.776 103.369 248.686 103.497 248.533V249.223C103.497 249.837 103.011 250.438 102.116 250.438ZM105.628 251H106.382V246.794H108.734V251H109.489V246.091H105.628V251ZM110.866 252.841H111.62V250.246H111.684C111.85 250.514 112.17 251.102 113.116 251.102C114.343 251.102 115.2 250.118 115.2 248.558C115.2 247.011 114.343 246.027 113.103 246.027C112.145 246.027 111.85 246.615 111.684 246.871H111.595V246.091H110.866V252.841ZM111.608 248.545C111.608 247.446 112.093 246.705 113.014 246.705C113.973 246.705 114.446 247.51 114.446 248.545C114.446 249.594 113.96 250.425 113.014 250.425C112.106 250.425 111.608 249.658 111.608 248.545Z" fill="#334669"/>
<path opacity="0.5" d="M147.782 235.5C147.539 234.158 146.466 233.365 145.149 233.365C143.474 233.365 142.26 234.656 142.26 236.727C142.26 238.798 143.474 240.089 145.149 240.089C146.466 240.089 147.539 239.297 147.782 237.955H146.99C146.798 238.862 146.018 239.348 145.149 239.348C143.96 239.348 143.027 238.428 143.027 236.727C143.027 235.027 143.96 234.107 145.149 234.107C146.018 234.107 146.798 234.592 146.99 235.5H147.782ZM148.961 241.841H149.715V239.246H149.779C149.945 239.514 150.265 240.102 151.211 240.102C152.438 240.102 153.295 239.118 153.295 237.558C153.295 236.011 152.438 235.027 151.198 235.027C150.239 235.027 149.945 235.615 149.779 235.871H149.69V235.091H148.961V241.841ZM149.702 237.545C149.702 236.446 150.188 235.705 151.109 235.705C152.067 235.705 152.54 236.51 152.54 237.545C152.54 238.594 152.055 239.425 151.109 239.425C150.201 239.425 149.702 238.658 149.702 237.545ZM155.57 239.105H154.752L154.714 239.463C154.621 240.329 154.439 241.192 154.356 241.598H154.931C155.084 241.163 155.41 240.179 155.519 239.45L155.57 239.105ZM134.982 251H139.112V250.297H136.069V250.246L137.539 248.673C138.664 247.468 138.996 246.906 138.996 246.18C138.996 245.17 138.178 244.365 137.028 244.365C135.88 244.365 135.008 245.145 135.008 246.295H135.762C135.762 245.551 136.245 245.055 137.002 245.055C137.712 245.055 138.255 245.49 138.255 246.18C138.255 246.784 137.9 247.232 137.143 248.06L134.982 250.425V251ZM142.515 244.352C141.186 244.339 140.329 245.337 140.329 246.551C140.329 247.817 141.262 248.724 142.387 248.724C143.065 248.724 143.64 248.392 143.998 247.855H144.049C144.049 249.466 143.423 250.386 142.413 250.386C141.723 250.386 141.301 249.952 141.16 249.351H140.38C140.534 250.386 141.314 251.089 142.413 251.089C143.883 251.089 144.791 249.786 144.791 247.459C144.791 245.043 143.589 244.365 142.515 244.352ZM142.515 245.055C143.333 245.055 143.934 245.759 143.934 246.538C143.934 247.318 143.295 248.021 142.49 248.021C141.684 248.021 141.096 247.369 141.096 246.551C141.096 245.72 141.71 245.055 142.515 245.055ZM150.036 251.115C150.893 251.115 151.34 250.655 151.494 250.335H151.532V251H152.286V247.766C152.286 246.206 151.097 246.027 150.471 246.027C149.729 246.027 148.886 246.283 148.502 247.178L149.218 247.433C149.384 247.075 149.777 246.692 150.497 246.692C151.19 246.692 151.532 247.059 151.532 247.689V247.714C151.532 248.079 151.161 248.047 150.266 248.162C149.356 248.28 148.362 248.482 148.362 249.607C148.362 250.565 149.103 251.115 150.036 251.115ZM150.151 250.438C149.551 250.438 149.116 250.169 149.116 249.645C149.116 249.07 149.64 248.891 150.228 248.814C150.548 248.776 151.404 248.686 151.532 248.533V249.223C151.532 249.837 151.046 250.438 150.151 250.438ZM153.663 251H154.417V246.794H156.77V251H157.524V246.091H153.663V251ZM158.901 252.841H159.656V250.246H159.719C159.886 250.514 160.205 251.102 161.151 251.102C162.379 251.102 163.235 250.118 163.235 248.558C163.235 247.011 162.379 246.027 161.138 246.027C160.18 246.027 159.886 246.615 159.719 246.871H159.63V246.091H158.901V252.841ZM159.643 248.545C159.643 247.446 160.129 246.705 161.049 246.705C162.008 246.705 162.481 247.51 162.481 248.545C162.481 249.594 161.995 250.425 161.049 250.425C160.141 250.425 159.643 249.658 159.643 248.545Z" fill="#334669"/>
<path opacity="0.5" d="M191.383 233.455V235.641C191.383 237.085 192.202 237.622 193.557 237.622C194.349 237.622 194.838 237.52 195.372 237.36V240H196.165V233.455H195.372V236.641C194.813 236.804 194.218 236.906 193.557 236.906C192.713 236.906 192.176 236.612 192.176 235.641V233.455H191.383ZM197.37 235.794H198.993V240H199.747V235.794H201.358V235.091H197.37V235.794ZM202.766 239.105H201.948L201.909 239.463C201.817 240.329 201.635 241.192 201.552 241.598H202.127C202.28 241.163 202.606 240.179 202.715 239.45L202.766 239.105ZM185.049 251.089C186.318 251.089 187.261 250.294 187.261 249.223C187.261 248.392 186.768 247.788 185.944 247.651V247.599C186.605 247.398 187.018 246.855 187.018 246.116C187.018 245.19 186.286 244.365 185.074 244.365C183.943 244.365 183.003 245.062 182.965 246.091H183.732C183.761 245.439 184.381 245.055 185.062 245.055C185.784 245.055 186.251 245.493 186.251 246.155C186.251 246.845 185.71 247.293 184.934 247.293H184.41V247.996H184.934C185.928 247.996 186.481 248.501 186.481 249.223C186.481 249.917 185.877 250.386 185.036 250.386C184.279 250.386 183.678 249.996 183.63 249.364H182.824C182.872 250.393 183.78 251.089 185.049 251.089ZM190.703 251.089C192.147 251.089 192.978 249.865 192.978 247.727C192.978 245.605 192.134 244.365 190.703 244.365C189.271 244.365 188.427 245.605 188.427 247.727C188.427 249.865 189.258 251.089 190.703 251.089ZM190.703 250.386C189.75 250.386 189.194 249.431 189.194 247.727C189.194 246.027 189.757 245.055 190.703 245.055C191.649 245.055 192.211 246.027 192.211 247.727C192.211 249.431 191.655 250.386 190.703 250.386ZM198.181 251.115C199.038 251.115 199.485 250.655 199.639 250.335H199.677V251H200.431V247.766C200.431 246.206 199.242 246.027 198.616 246.027C197.875 246.027 197.031 246.283 196.647 247.178L197.363 247.433C197.529 247.075 197.922 246.692 198.642 246.692C199.335 246.692 199.677 247.059 199.677 247.689V247.714C199.677 248.079 199.306 248.047 198.411 248.162C197.501 248.28 196.507 248.482 196.507 249.607C196.507 250.565 197.248 251.115 198.181 251.115ZM198.296 250.438C197.696 250.438 197.261 250.169 197.261 249.645C197.261 249.07 197.785 248.891 198.373 248.814C198.693 248.776 199.549 248.686 199.677 248.533V249.223C199.677 249.837 199.191 250.438 198.296 250.438ZM201.808 251H202.562V246.794H204.915V251H205.669V246.091H201.808V251ZM207.046 252.841H207.801V250.246H207.864C208.031 250.514 208.35 251.102 209.296 251.102C210.524 251.102 211.38 250.118 211.38 248.558C211.38 247.011 210.524 246.027 209.284 246.027C208.325 246.027 208.031 246.615 207.864 246.871H207.775V246.091H207.046V252.841ZM207.788 248.545C207.788 247.446 208.274 246.705 209.194 246.705C210.153 246.705 210.626 247.51 210.626 248.545C210.626 249.594 210.14 250.425 209.194 250.425C208.286 250.425 207.788 249.658 207.788 248.545Z" fill="#334669"/>
<path opacity="0.5" d="M241.185 233.455H236.301V240H237.094V234.158H240.392V240H241.185V233.455ZM242.4 235.794H244.024V240H244.778V235.794H246.389V235.091H242.4V235.794ZM247.797 239.105H246.979L246.94 239.463C246.848 240.329 246.665 241.192 246.582 241.598H247.158C247.311 241.163 247.637 240.179 247.746 239.45L247.797 239.105ZM233.184 244.455H232.391L230.755 245.541V246.347L232.353 245.286H232.391V251H233.184V244.455ZM240.295 249.977L238.607 246.091H237.61V251H238.365V247.174L239.988 251H240.602L242.225 247.245V251H242.98V246.091H242.008L240.295 249.977ZM245.805 251.115C246.661 251.115 247.109 250.655 247.262 250.335H247.301V251H248.055V247.766C248.055 246.206 246.866 246.027 246.24 246.027C245.498 246.027 244.654 246.283 244.271 247.178L244.987 247.433C245.153 247.075 245.546 246.692 246.265 246.692C246.959 246.692 247.301 247.059 247.301 247.689V247.714C247.301 248.079 246.93 248.047 246.035 248.162C245.124 248.28 244.13 248.482 244.13 249.607C244.13 250.565 244.872 251.115 245.805 251.115ZM245.92 250.438C245.319 250.438 244.884 250.169 244.884 249.645C244.884 249.07 245.409 248.891 245.997 248.814C246.316 248.776 247.173 248.686 247.301 248.533V249.223C247.301 249.837 246.815 250.438 245.92 250.438ZM252.385 251H253.101V246.091H251.081C250.023 246.091 249.38 246.644 249.38 247.548C249.38 248.223 249.719 248.702 250.31 248.903L249.112 251H249.93L251.068 249.006H252.385V251ZM252.385 248.303H250.991C250.457 248.303 250.135 248.018 250.135 247.548C250.135 247.072 250.493 246.781 251.081 246.781H252.385V248.303Z" fill="#334669"/>
<path opacity="0.5" d="M283.37 235.5C283.127 234.158 282.053 233.365 280.737 233.365C279.062 233.365 277.847 234.656 277.847 236.727C277.847 238.798 279.062 240.089 280.737 240.089C282.053 240.089 283.127 239.297 283.37 237.955H282.578C282.386 238.862 281.606 239.348 280.737 239.348C279.548 239.348 278.615 238.428 278.615 236.727C278.615 235.027 279.548 234.107 280.737 234.107C281.606 234.107 282.386 234.592 282.578 235.5H283.37ZM288.192 233.25C287.953 233.451 287.595 233.451 287.093 233.448C286.93 233.448 286.751 233.448 286.556 233.455C285.06 233.493 284.319 234.631 284.319 236.817V237.341C284.319 239.156 285.201 240.102 286.517 240.102C287.831 240.102 288.704 239.15 288.704 237.609C288.704 236.062 287.818 235.244 286.671 235.244C285.997 235.244 285.367 235.526 285.035 236.139H284.971C285.073 234.874 285.546 234.196 286.569 234.158C287.476 234.119 288.128 234.145 288.576 233.71L288.192 233.25ZM286.517 239.425C285.623 239.425 285.073 238.709 285.073 237.609C285.089 236.536 285.629 235.922 286.505 235.922C287.403 235.922 287.949 236.536 287.949 237.609C287.949 238.715 287.406 239.425 286.517 239.425ZM290.982 239.105H290.164L290.126 239.463C290.033 240.329 289.851 241.192 289.768 241.598H290.343C290.497 241.163 290.823 240.179 290.931 239.45L290.982 239.105ZM272.75 251H276.879V250.297H273.836V250.246L275.307 248.673C276.432 247.468 276.764 246.906 276.764 246.18C276.764 245.17 275.946 244.365 274.795 244.365C273.648 244.365 272.775 245.145 272.775 246.295H273.53C273.53 245.551 274.012 245.055 274.77 245.055C275.479 245.055 276.023 245.49 276.023 246.18C276.023 246.784 275.668 247.232 274.91 248.06L272.75 250.425V251ZM283.428 249.977L281.74 246.091H280.743V251H281.497V247.174L283.121 251H283.735L285.358 247.245V251H286.112V246.091H285.141L283.428 249.977ZM288.938 251.115C289.794 251.115 290.242 250.655 290.395 250.335H290.433V251H291.188V247.766C291.188 246.206 289.999 246.027 289.372 246.027C288.631 246.027 287.787 246.283 287.404 247.178L288.119 247.433C288.286 247.075 288.679 246.692 289.398 246.692C290.091 246.692 290.433 247.059 290.433 247.689V247.714C290.433 248.079 290.063 248.047 289.168 248.162C288.257 248.28 287.263 248.482 287.263 249.607C287.263 250.565 288.004 251.115 288.938 251.115ZM289.053 250.438C288.452 250.438 288.017 250.169 288.017 249.645C288.017 249.07 288.541 248.891 289.129 248.814C289.449 248.776 290.306 248.686 290.433 248.533V249.223C290.433 249.837 289.948 250.438 289.053 250.438ZM295.517 251H296.233V246.091H294.214C293.156 246.091 292.513 246.644 292.513 247.548C292.513 248.223 292.852 248.702 293.443 248.903L292.245 251H293.063L294.201 249.006H295.517V251ZM295.517 248.303H294.124C293.59 248.303 293.267 248.018 293.267 247.548C293.267 247.072 293.625 246.781 294.214 246.781H295.517V248.303Z" fill="#334669"/>
<path opacity="0.5" d="M321.591 240H323.956C325.503 240 326.142 239.246 326.142 238.261C326.142 237.226 325.426 236.663 324.825 236.625V236.561C325.388 236.408 325.886 236.037 325.886 235.193C325.886 234.234 325.247 233.455 323.879 233.455H321.591V240ZM322.384 239.297V237.021H323.994C324.851 237.021 325.388 237.597 325.388 238.261C325.388 238.837 324.992 239.297 323.956 239.297H322.384ZM322.384 236.331V234.158H323.879C324.749 234.158 325.132 234.618 325.132 235.193C325.132 235.884 324.57 236.331 323.854 236.331H322.384ZM329.337 240.102C330.423 240.102 331.139 239.438 331.267 238.568H330.513C330.372 239.105 329.925 239.425 329.337 239.425C328.442 239.425 327.866 238.683 327.866 237.545C327.866 236.433 328.454 235.705 329.337 235.705C330.001 235.705 330.398 236.114 330.513 236.561H331.267C331.139 235.641 330.359 235.027 329.324 235.027C327.994 235.027 327.112 236.075 327.112 237.571C327.112 239.041 327.956 240.102 329.337 240.102ZM333.495 239.105H332.676L332.638 239.463C332.545 240.329 332.363 241.192 332.28 241.598H332.855C333.009 241.163 333.335 240.179 333.443 239.45L333.495 239.105ZM315.75 251H319.879V250.297H316.836V250.246L318.307 248.673C319.432 247.468 319.764 246.906 319.764 246.18C319.764 245.17 318.946 244.365 317.795 244.365C316.648 244.365 315.775 245.145 315.775 246.295H316.53C316.53 245.551 317.012 245.055 317.77 245.055C318.479 245.055 319.023 245.49 319.023 246.18C319.023 246.784 318.668 247.232 317.91 248.06L315.75 250.425V251ZM326.428 249.977L324.74 246.091H323.743V251H324.497V247.174L326.121 251H326.735L328.358 247.245V251H329.112V246.091H328.141L326.428 249.977ZM331.938 251.115C332.794 251.115 333.242 250.655 333.395 250.335H333.433V251H334.188V247.766C334.188 246.206 332.999 246.027 332.372 246.027C331.631 246.027 330.787 246.283 330.404 247.178L331.119 247.433C331.286 247.075 331.679 246.692 332.398 246.692C333.091 246.692 333.433 247.059 333.433 247.689V247.714C333.433 248.079 333.063 248.047 332.168 248.162C331.257 248.28 330.263 248.482 330.263 249.607C330.263 250.565 331.004 251.115 331.938 251.115ZM332.053 250.438C331.452 250.438 331.017 250.169 331.017 249.645C331.017 249.07 331.541 248.891 332.129 248.814C332.449 248.776 333.306 248.686 333.433 248.533V249.223C333.433 249.837 332.948 250.438 332.053 250.438ZM338.517 251H339.233V246.091H337.214C336.156 246.091 335.513 246.644 335.513 247.548C335.513 248.223 335.852 248.702 336.443 248.903L335.245 251H336.063L337.201 249.006H338.517V251ZM338.517 248.303H337.124C336.59 248.303 336.267 248.018 336.267 247.548C336.267 247.072 336.625 246.781 337.214 246.781H338.517V248.303Z" fill="#334669"/>
<g filter="url(#filter0_d)">
<path d="M42 167.5L97 155.5L146 163L195 175L239 163L284 175L328 163" stroke="#FFD600" stroke-width="1.5"/>
</g>
<g filter="url(#filter1_d)">
<path d="M41.5 125L97 132.5L147 127L195 144.5L241.5 142.5L284 144.5L328 142.5" stroke="#00F0FF" stroke-width="1.5"/>
</g>
<defs>
<filter id="filter0_d" x="33.8401" y="150.738" width="302.357" height="37.0392" filterUnits="userSpaceOnUse" color-interpolation-filters="sRGB">
<feFlood flood-opacity="0" result="BackgroundImageFix"/>
<feColorMatrix in="SourceAlpha" type="matrix" values="0 0 0 0 0 0 0 0 0 0 0 0 0 0 0 0 0 0 127 0"/>
<feOffset dy="4"/>
<feGaussianBlur stdDeviation="4"/>
<feColorMatrix type="matrix" values="0 0 0 0 0.941176 0 0 0 0 0.631373 0 0 0 0 0.623529 0 0 0 0.6 0"/>
<feBlend mode="normal" in2="BackgroundImageFix" result="effect1_dropShadow"/>
<feBlend mode="normal" in="SourceGraphic" in2="effect1_dropShadow" result="shape"/>
</filter>
<filter id="filter1_d" x="33.3995" y="120.257" width="302.634" height="36.999" filterUnits="userSpaceOnUse" color-interpolation-filters="sRGB">
<feFlood flood-opacity="0" result="BackgroundImageFix"/>
<feColorMatrix in="SourceAlpha" type="matrix" values="0 0 0 0 0 0 0 0 0 0 0 0 0 0 0 0 0 0 127 0"/>
<feOffset dy="4"/>
<feGaussianBlur stdDeviation="4"/>
<feColorMatrix type="matrix" values="0 0 0 0 0.941176 0 0 0 0 0.631373 0 0 0 0 0.623529 0 0 0 0.6 0"/>
<feBlend mode="normal" in2="BackgroundImageFix" result="effect1_dropShadow"/>
<feBlend mode="normal" in="SourceGraphic" in2="effect1_dropShadow" result="shape"/>
</filter>
</defs>
</svg>
