<svg width="360" height="259" viewBox="0 0 360 259" fill="none" xmlns="http://www.w3.org/2000/svg">
<rect width="360" height="259" fill="white"/>
<path opacity="0.8" d="M16.348 26.4609H17.8196V24H24.6555V26.446H26.1271V22.6974H24.9737V13.8182H18.6946L18.456 18.1186C18.3018 20.9524 17.7003 22.1207 17.0192 22.6974H16.348V26.4609ZM18.8288 22.6974C19.4105 21.7678 19.8033 20.2713 19.9276 18.1186L20.0866 15.1406H23.5021V22.6974H18.8288ZM29.913 24.169C31.1758 24.169 31.8867 23.5277 32.1701 22.956H32.2298V24H33.6815V18.929C33.6815 16.7067 31.9315 16.2642 30.7184 16.2642C29.3363 16.2642 28.0636 16.821 27.5664 18.2131L28.9634 18.5312C29.1822 17.9893 29.739 17.4673 30.7383 17.4673C31.6978 17.4673 32.19 17.9695 32.19 18.8345V18.8693C32.19 19.4112 31.6332 19.4013 30.261 19.5604C28.8143 19.7294 27.3327 20.1072 27.3327 21.8423C27.3327 23.3438 28.4613 24.169 29.913 24.169ZM30.2362 22.9759C29.396 22.9759 28.7894 22.598 28.7894 21.8622C28.7894 21.0668 29.4954 20.7834 30.3555 20.669C30.8377 20.6044 31.9812 20.4751 32.195 20.2614V21.2457C32.195 22.1506 31.4741 22.9759 30.2362 22.9759ZM35.6614 24H39.3105C40.981 24 41.9604 23.1548 41.9604 21.9418C41.9604 20.8082 41.0904 20.1122 40.0712 19.9929C41.0108 19.8139 41.6323 19.2969 41.6323 18.402C41.6323 17.1491 40.5485 16.3636 38.8283 16.3636H35.6614V24ZM37.0584 22.7571V20.6342H39.3105C40.0463 20.6342 40.4888 21.0668 40.4888 21.7777C40.4888 22.3842 40.0463 22.7571 39.3105 22.7571H37.0584ZM37.0584 19.5455V17.6214H38.8283C39.6735 17.6214 40.1855 17.9744 40.1855 18.5611C40.1855 19.1726 39.6784 19.5455 38.8432 19.5455H37.0584ZM42.9895 24H43.4668C45.1323 24 45.7438 22.767 45.8631 20.2415L45.9824 17.6463H48.4782V24H49.9348V16.3636H44.6053L44.4711 19.7443C44.3766 22.1009 44.1081 22.7124 43.258 22.7124H42.9846L42.9895 24ZM55.2085 24.1541C56.8739 24.1541 58.0522 23.3338 58.3903 22.0909L56.9833 21.8374C56.7148 22.5582 56.0685 22.9261 55.2234 22.9261C53.9506 22.9261 53.0955 22.1009 53.0558 20.6293H58.4847V20.1023C58.4847 17.343 56.8342 16.2642 55.104 16.2642C52.9762 16.2642 51.5742 17.8849 51.5742 20.2315C51.5742 22.603 52.9563 24.1541 55.2085 24.1541ZM53.0607 19.5156C53.1204 18.4318 53.9059 17.4922 55.114 17.4922C56.2674 17.4922 57.0231 18.3473 57.0281 19.5156H53.0607ZM61.5907 16.3636H60.1341V24H61.5907V20.8281H64.8968V24H66.3485V16.3636H64.8968V19.5405H61.5907V16.3636ZM69.7939 21.9169V16.3636H68.3372V24H69.9529L73.3038 18.4418V24H74.7605V16.3636H73.1596L69.7939 21.9169ZM80.0502 24.1541C81.7157 24.1541 82.894 23.3338 83.2321 22.0909L81.8251 21.8374C81.5566 22.5582 80.9103 22.9261 80.0652 22.9261C78.7924 22.9261 77.9373 22.1009 77.8975 20.6293H83.3265V20.1023C83.3265 17.343 81.676 16.2642 79.9458 16.2642C77.818 16.2642 76.416 17.8849 76.416 20.2315C76.416 22.603 77.7981 24.1541 80.0502 24.1541ZM77.9025 19.5156C77.9622 18.4318 78.7477 17.4922 79.9558 17.4922C81.1092 17.4922 81.8649 18.3473 81.8699 19.5156H77.9025Z" fill="#334669"/>
<path opacity="0.5" d="M16.799 41H17.8963V37.8288H21.522V41H22.6229V33.7273H21.522V36.8878H17.8963V33.7273H16.799V41ZM26.4332 41.1101C27.9709 41.1101 28.9759 39.9844 28.9759 38.2976C28.9759 36.6001 27.9709 35.4744 26.4332 35.4744C24.8956 35.4744 23.8906 36.6001 23.8906 38.2976C23.8906 39.9844 24.8956 41.1101 26.4332 41.1101ZM26.4368 40.2188C25.4318 40.2188 24.9631 39.3416 24.9631 38.294C24.9631 37.25 25.4318 36.3622 26.4368 36.3622C27.4347 36.3622 27.9034 37.25 27.9034 38.294C27.9034 39.3416 27.4347 40.2188 26.4368 40.2188ZM30.161 43.0455H31.2228V40.1513H31.2868C31.4785 40.4993 31.8691 41.1065 32.8635 41.1065C34.1845 41.1065 35.1433 40.0483 35.1433 38.2834C35.1433 36.5149 34.1703 35.4744 32.8528 35.4744C31.8407 35.4744 31.475 36.0923 31.2868 36.4297H31.198V35.5455H30.161V43.0455ZM31.2015 38.2727C31.2015 37.1328 31.6987 36.3764 32.6255 36.3764C33.5879 36.3764 34.0708 37.1896 34.0708 38.2727C34.0708 39.3665 33.5737 40.201 32.6255 40.201C31.7129 40.201 31.2015 39.4197 31.2015 38.2727ZM39.394 39.6861L37.6681 35.5455H36.3329V41H37.3734V37.0334L38.9998 41H39.7882L41.443 37.0476V41H42.4764V35.5455H41.1554L39.394 39.6861ZM45.4789 41.1207C46.3809 41.1207 46.8887 40.6626 47.0911 40.2543H47.1337V41H48.1706V37.3778C48.1706 35.7905 46.9206 35.4744 46.0542 35.4744C45.0669 35.4744 44.1578 35.8722 43.8027 36.8665L44.8006 37.0938C44.9569 36.7067 45.3546 36.3338 46.0684 36.3338C46.7537 36.3338 47.1053 36.6925 47.1053 37.3104V37.3352C47.1053 37.7223 46.7076 37.7152 45.7275 37.8288C44.6941 37.9496 43.6358 38.2195 43.6358 39.4588C43.6358 40.5312 44.4419 41.1207 45.4789 41.1207ZM45.7097 40.2685C45.1096 40.2685 44.6763 39.9986 44.6763 39.473C44.6763 38.9048 45.1806 38.7024 45.7949 38.6207C46.1394 38.5746 46.9561 38.4822 47.1088 38.3295V39.0327C47.1088 39.679 46.5939 40.2685 45.7097 40.2685ZM50.2844 37.0973C50.6715 37.0973 50.9947 36.7812 50.9947 36.3871C50.9947 36 50.6715 35.6804 50.2844 35.6804C49.8938 35.6804 49.5742 36 49.5742 36.3871C49.5742 36.7812 49.8938 37.0973 50.2844 37.0973ZM50.2844 41.0675C50.6715 41.0675 50.9947 40.7514 50.9947 40.3572C50.9947 39.9702 50.6715 39.6506 50.2844 39.6506C49.8938 39.6506 49.5742 39.9702 49.5742 40.3572C49.5742 40.7514 49.8938 41.0675 50.2844 41.0675Z" fill="#334669"/>
<line x1="40" y1="212.5" x2="348" y2="212.5" stroke="#D3D8DD" stroke-miterlimit="16" stroke-dasharray="8 8"/>
<line x1="40" y1="172.5" x2="348" y2="172.5" stroke="#D3D8DD" stroke-miterlimit="16" stroke-dasharray="8 8"/>
<line x1="40" y1="127.5" x2="348" y2="127.5" stroke="#D3D8DD" stroke-miterlimit="16" stroke-dasharray="8 8"/>
<line x1="40" y1="85.5" x2="348" y2="85.5" stroke="#D3D8DD" stroke-miterlimit="16" stroke-dasharray="8 8"/>
<path opacity="0.5" d="M60.4588 33.7273H59.3899L57.5753 34.9134V35.9645L59.3153 34.8281H59.358V41H60.4588V33.7273ZM62.4261 41H67.2131V40.0589H63.9389V40.0057L65.3842 38.4929C66.7159 37.147 67.0959 36.5043 67.0959 35.6911C67.0959 34.5227 66.1442 33.6278 64.7734 33.6278C63.4134 33.6278 62.419 34.5085 62.419 35.8366H63.4666C63.4631 35.0554 63.9673 34.544 64.7521 34.544C65.4908 34.544 66.0518 34.9986 66.0518 35.723C66.0518 36.3658 65.6683 36.8274 64.8871 37.6548L62.4261 40.2045V41ZM71.0909 41.1207C72.7706 41.1207 73.7543 39.75 73.7543 37.3672C73.7543 35.0021 72.7564 33.6278 71.0909 33.6278C69.4219 33.6278 68.4276 34.9986 68.424 37.3672C68.424 39.7464 69.4077 41.1172 71.0909 41.1207ZM71.0909 40.1726C70.1072 40.1726 69.5142 39.1854 69.5142 37.3672C69.5178 35.5561 70.1108 34.5582 71.0909 34.5582C72.0675 34.5582 72.6641 35.5561 72.6641 37.3672C72.6641 39.1854 72.071 40.1726 71.0909 40.1726ZM80.4446 33.3864H79.4964L77.1527 42.0938H78.1009L80.4446 33.3864ZM86.4363 41.0994C87.949 41.0994 89.0179 40.2401 89.025 39.0611C89.0179 38.1449 88.3752 37.3743 87.562 37.2287V37.1861C88.2686 37.0156 88.748 36.3516 88.7551 35.5668C88.748 34.4553 87.7679 33.6278 86.4363 33.6278C85.0904 33.6278 84.1103 34.4553 84.1174 35.5668C84.1103 36.348 84.5897 37.0156 85.3105 37.1861V37.2287C84.4831 37.3743 83.8404 38.1449 83.8475 39.0611C83.8404 40.2401 84.9093 41.0994 86.4363 41.0994ZM86.4363 40.201C85.5272 40.201 84.9519 39.718 84.959 38.9901C84.9519 38.2337 85.5769 37.6939 86.4363 37.6939C87.2814 37.6939 87.9064 38.2337 87.9135 38.9901C87.9064 39.718 87.3347 40.201 86.4363 40.201ZM86.4363 36.8168C85.7012 36.8168 85.1792 36.3516 85.1863 35.6591C85.1792 34.9773 85.6834 34.5263 86.4363 34.5263C87.1749 34.5263 87.6792 34.9773 87.6863 35.6591C87.6792 36.3516 87.1607 36.8168 86.4363 36.8168ZM92.8292 41.1207C94.5089 41.1207 95.4925 39.75 95.4925 37.3672C95.4925 35.0021 94.4947 33.6278 92.8292 33.6278C91.1602 33.6278 90.1658 34.9986 90.1623 37.3672C90.1623 39.7464 91.146 41.1172 92.8292 41.1207ZM92.8292 40.1726C91.8455 40.1726 91.2525 39.1854 91.2525 37.3672C91.256 35.5561 91.8491 34.5582 92.8292 34.5582C93.8058 34.5582 94.4023 35.5561 94.4023 37.3672C94.4023 39.1854 93.8093 40.1726 92.8292 40.1726Z" fill="#334669"/>
<path opacity="0.5" d="M52.061 233.455H47.1775V240H47.9701V234.158H51.2684V240H52.061V233.455ZM54.3118 235.091H53.5575V240H54.3118V237.903H56.6641V240H57.4183V235.091H56.6641V237.2H54.3118V235.091ZM59.9208 239.105H59.1026L59.0643 239.463C58.9716 240.329 58.7894 241.192 58.7063 241.598H59.2816C59.435 241.163 59.761 240.179 59.8697 239.45L59.9208 239.105ZM39.7195 251H43.8488V250.297H40.8062V250.246L42.2764 248.673C43.4014 247.468 43.7338 246.906 43.7338 246.18C43.7338 245.17 42.9156 244.365 41.765 244.365C40.6176 244.365 39.7451 245.145 39.7451 246.295H40.4994C40.4994 245.551 40.982 245.055 41.7394 245.055C42.449 245.055 42.9923 245.49 42.9923 246.18C42.9923 246.784 42.6375 247.232 41.8801 248.06L39.7195 250.425V251ZM45.3733 251H46.2043L49.1191 245.196V244.455H44.9259V245.158H48.3009V245.209L45.3733 251ZM54.299 251.115C55.1555 251.115 55.603 250.655 55.7564 250.335H55.7947V251H56.549V247.766C56.549 246.206 55.3601 246.027 54.7337 246.027C53.9922 246.027 53.1484 246.283 52.7649 247.178L53.4808 247.433C53.647 247.075 54.0401 246.692 54.7592 246.692C55.4528 246.692 55.7947 247.059 55.7947 247.689V247.714C55.7947 248.079 55.424 248.047 54.5291 248.162C53.6183 248.28 52.6243 248.482 52.6243 249.607C52.6243 250.565 53.3658 251.115 54.299 251.115ZM54.4141 250.438C53.8132 250.438 53.3786 250.169 53.3786 249.645C53.3786 249.07 53.9027 248.891 54.4908 248.814C54.8104 248.776 55.6669 248.686 55.7947 248.533V249.223C55.7947 249.837 55.3089 250.438 54.4141 250.438ZM57.9257 251H58.68V246.794H61.0322V251H61.7865V246.091H57.9257V251ZM63.164 252.841H63.9182V250.246H63.9822C64.1483 250.514 64.468 251.102 65.414 251.102C66.6412 251.102 67.4978 250.118 67.4978 248.558C67.4978 247.011 66.6412 246.027 65.4012 246.027C64.4424 246.027 64.1483 246.615 63.9822 246.871H63.8927V246.091H63.164V252.841ZM63.9055 248.545C63.9055 247.446 64.3912 246.705 65.3117 246.705C66.2705 246.705 66.7435 247.51 66.7435 248.545C66.7435 249.594 66.2577 250.425 65.3117 250.425C64.404 250.425 63.9055 249.658 63.9055 248.545Z" fill="#334669"/>
<path opacity="0.5" d="M18.5241 213.658H21.6051V215H22.3594V213.658H23.2543V212.955H22.3594V208.455H21.4006L18.5241 213.006V213.658ZM21.6051 212.955H19.3807V212.903L21.554 209.464H21.6051V212.955ZM26.5869 215.089C28.0315 215.089 28.8625 213.865 28.8625 211.727C28.8625 209.605 28.0187 208.365 26.5869 208.365C25.1551 208.365 24.3113 209.605 24.3113 211.727C24.3113 213.865 25.1423 215.089 26.5869 215.089ZM26.5869 214.386C25.6345 214.386 25.0784 213.431 25.0784 211.727C25.0784 210.027 25.6409 209.055 26.5869 209.055C27.5329 209.055 28.0954 210.027 28.0954 211.727C28.0954 213.431 27.5393 214.386 26.5869 214.386Z" fill="#334669"/>
<path opacity="0.5" d="M20.8509 194.089C22.174 194.105 23.0369 193.108 23.0369 191.891C23.0369 190.625 22.1005 189.717 20.9787 189.717C20.3043 189.717 19.7259 190.047 19.3679 190.587H19.3168C19.32 188.979 19.94 188.055 20.9531 188.055C21.6435 188.055 22.0589 188.49 22.206 189.091H22.9858C22.826 188.062 22.0526 187.352 20.9531 187.352C19.4798 187.352 18.5753 188.656 18.5753 190.983C18.5753 193.402 19.777 194.077 20.8509 194.089ZM20.8509 193.386C20.0295 193.386 19.4286 192.686 19.4318 191.903C19.435 191.12 20.0646 190.42 20.8764 190.42C21.6786 190.42 22.2699 191.079 22.2699 191.891C22.2699 192.722 21.6531 193.386 20.8509 193.386ZM26.4287 194.089C27.8733 194.089 28.7043 192.865 28.7043 190.727C28.7043 188.605 27.8605 187.365 26.4287 187.365C24.9969 187.365 24.1531 188.605 24.1531 190.727C24.1531 192.865 24.9841 194.089 26.4287 194.089ZM26.4287 193.386C25.4763 193.386 24.9202 192.431 24.9202 190.727C24.9202 189.027 25.4827 188.055 26.4287 188.055C27.3747 188.055 27.9372 189.027 27.9372 190.727C27.9372 192.431 27.3811 193.386 26.4287 193.386Z" fill="#334669"/>
<path opacity="0.5" d="M18.9787 145.455H18.1861L16.5497 146.541V147.347L18.1477 146.286H18.1861V152H18.9787V145.455ZM22.9961 152.089C24.4407 152.089 25.2717 150.865 25.2717 148.727C25.2717 146.605 24.4279 145.365 22.9961 145.365C21.5643 145.365 20.7205 146.605 20.7205 148.727C20.7205 150.865 21.5515 152.089 22.9961 152.089ZM22.9961 151.386C22.0437 151.386 21.4876 150.431 21.4876 148.727C21.4876 147.027 22.0501 146.055 22.9961 146.055C23.9421 146.055 24.5046 147.027 24.5046 148.727C24.5046 150.431 23.9485 151.386 22.9961 151.386ZM28.6211 152.089C30.0657 152.089 30.8967 150.865 30.8967 148.727C30.8967 146.605 30.0529 145.365 28.6211 145.365C27.1893 145.365 26.3455 146.605 26.3455 148.727C26.3455 150.865 27.1765 152.089 28.6211 152.089ZM28.6211 151.386C27.6687 151.386 27.1126 150.431 27.1126 148.727C27.1126 147.027 27.6751 146.055 28.6211 146.055C29.5671 146.055 30.1296 147.027 30.1296 148.727C30.1296 150.431 29.5735 151.386 28.6211 151.386Z" fill="#334669"/>
<path opacity="0.5" d="M20.7741 173.089C22.0813 173.089 22.9922 172.326 22.9986 171.261C22.9922 170.434 22.4393 169.73 21.733 169.599V169.561C22.3466 169.401 22.7493 168.8 22.7557 168.104C22.7493 167.107 21.9119 166.365 20.7741 166.365C19.6236 166.365 18.7862 167.107 18.7926 168.104C18.7862 168.8 19.1889 169.401 19.8153 169.561V169.599C19.0962 169.73 18.5433 170.434 18.5497 171.261C18.5433 172.326 19.4542 173.089 20.7741 173.089ZM20.7741 172.386C19.8761 172.386 19.3232 171.926 19.3295 171.223C19.3232 170.485 19.9336 169.957 20.7741 169.957C21.6019 169.957 22.2124 170.485 22.2188 171.223C22.2124 171.926 21.6594 172.386 20.7741 172.386ZM20.7741 169.28C20.0582 169.28 19.5533 168.832 19.5597 168.155C19.5533 167.49 20.0391 167.055 20.7741 167.055C21.4964 167.055 21.9822 167.49 21.9886 168.155C21.9822 168.832 21.4773 169.28 20.7741 169.28ZM26.3584 173.089C27.803 173.089 28.634 171.865 28.634 169.727C28.634 167.605 27.7902 166.365 26.3584 166.365C24.9266 166.365 24.0828 167.605 24.0828 169.727C24.0828 171.865 24.9138 173.089 26.3584 173.089ZM26.3584 172.386C25.406 172.386 24.8499 171.431 24.8499 169.727C24.8499 168.027 25.4124 167.055 26.3584 167.055C27.3044 167.055 27.8669 168.027 27.8669 169.727C27.8669 171.431 27.3108 172.386 26.3584 172.386Z" fill="#334669"/>
<path opacity="0.5" d="M18.9787 124.455H18.1861L16.5497 125.541V126.347L18.1477 125.286H18.1861V131H18.9787V124.455ZM20.8612 131H24.9904V130.297H21.9478V130.246L23.418 128.673C24.543 127.468 24.8754 126.906 24.8754 126.18C24.8754 125.17 24.0572 124.365 22.9066 124.365C21.7592 124.365 20.8867 125.145 20.8867 126.295H21.641C21.641 125.551 22.1236 125.055 22.881 125.055C23.5906 125.055 24.1339 125.49 24.1339 126.18C24.1339 126.784 23.7791 127.232 23.0217 128.06L20.8612 130.425V131ZM28.4453 131.089C29.8899 131.089 30.7209 129.865 30.7209 127.727C30.7209 125.605 29.8771 124.365 28.4453 124.365C27.0135 124.365 26.1697 125.605 26.1697 127.727C26.1697 129.865 27.0007 131.089 28.4453 131.089ZM28.4453 130.386C27.4929 130.386 26.9368 129.431 26.9368 127.727C26.9368 126.027 27.4993 125.055 28.4453 125.055C29.3913 125.055 29.9538 126.027 29.9538 127.727C29.9538 129.431 29.3977 130.386 28.4453 130.386Z" fill="#334669"/>
<path opacity="0.5" d="M18.9787 103.455H18.1861L16.5497 104.541V105.347L18.1477 104.286H18.1861V110H18.9787V103.455ZM20.7077 108.658H23.7887V110H24.543V108.658H25.4379V107.955H24.543V103.455H23.5842L20.7077 108.006V108.658ZM23.7887 107.955H21.5643V107.903L23.7376 104.464H23.7887V107.955ZM28.7705 110.089C30.2151 110.089 31.0461 108.865 31.0461 106.727C31.0461 104.605 30.2023 103.365 28.7705 103.365C27.3387 103.365 26.4949 104.605 26.4949 106.727C26.4949 108.865 27.3259 110.089 28.7705 110.089ZM28.7705 109.386C27.8181 109.386 27.262 108.431 27.262 106.727C27.262 105.027 27.8245 104.055 28.7705 104.055C29.7165 104.055 30.279 105.027 30.279 106.727C30.279 108.431 29.7229 109.386 28.7705 109.386Z" fill="#334669"/>
<path opacity="0.5" d="M18.9787 82.4545H18.1861L16.5497 83.5412V84.3466L18.1477 83.2855H18.1861V89H18.9787V82.4545ZM23.0344 89.0895C24.3576 89.1055 25.2205 88.1083 25.2205 86.8906C25.2205 85.625 24.2841 84.7173 23.1623 84.7173C22.4879 84.7173 21.9094 85.0465 21.5515 85.5866H21.5004C21.5036 83.979 22.1236 83.0554 23.1367 83.0554C23.8271 83.0554 24.2425 83.4901 24.3896 84.0909H25.1694C25.0096 83.0618 24.2362 82.3523 23.1367 82.3523C21.6634 82.3523 20.7589 83.6562 20.7589 85.983C20.7589 88.4023 21.9606 89.0767 23.0344 89.0895ZM23.0344 88.3864C22.2131 88.3864 21.6122 87.6864 21.6154 86.9034C21.6186 86.1204 22.2482 85.4205 23.06 85.4205C23.8622 85.4205 24.4535 86.0788 24.4535 86.8906C24.4535 87.7216 23.8366 88.3864 23.0344 88.3864ZM28.6123 89.0895C30.0569 89.0895 30.8879 87.8654 30.8879 85.7273C30.8879 83.6051 30.0441 82.3651 28.6123 82.3651C27.1805 82.3651 26.3367 83.6051 26.3367 85.7273C26.3367 87.8654 27.1677 89.0895 28.6123 89.0895ZM28.6123 88.3864C27.6599 88.3864 27.1038 87.4308 27.1038 85.7273C27.1038 84.027 27.6663 83.0554 28.6123 83.0554C29.5583 83.0554 30.1208 84.027 30.1208 85.7273C30.1208 87.4308 29.5647 88.3864 28.6123 88.3864Z" fill="#334669"/>
<path opacity="0.5" d="M18.9787 61.4545H18.1861L16.5497 62.5412V63.3466L18.1477 62.2855H18.1861V68H18.9787V61.4545ZM22.9577 68.0895C24.2649 68.0895 25.1758 67.3256 25.1822 66.2614C25.1758 65.4336 24.6229 64.7305 23.9165 64.5994V64.5611C24.5302 64.4013 24.9329 63.8004 24.9393 63.1037C24.9329 62.1065 24.0955 61.3651 22.9577 61.3651C21.8072 61.3651 20.9698 62.1065 20.9762 63.1037C20.9698 63.8004 21.3725 64.4013 21.9989 64.5611V64.5994C21.2798 64.7305 20.7269 65.4336 20.7333 66.2614C20.7269 67.3256 21.6378 68.0895 22.9577 68.0895ZM22.9577 67.3864C22.0597 67.3864 21.5067 66.9261 21.5131 66.223C21.5067 65.4847 22.1172 64.9574 22.9577 64.9574C23.7855 64.9574 24.396 65.4847 24.4023 66.223C24.396 66.9261 23.843 67.3864 22.9577 67.3864ZM22.9577 64.2798C22.2418 64.2798 21.7369 63.8324 21.7433 63.1548C21.7369 62.4901 22.2227 62.0554 22.9577 62.0554C23.68 62.0554 24.1658 62.4901 24.1722 63.1548C24.1658 63.8324 23.6609 64.2798 22.9577 64.2798ZM28.542 68.0895C29.9866 68.0895 30.8176 66.8654 30.8176 64.7273C30.8176 62.6051 29.9738 61.3651 28.542 61.3651C27.1102 61.3651 26.2664 62.6051 26.2664 64.7273C26.2664 66.8654 27.0974 68.0895 28.542 68.0895ZM28.542 67.3864C27.5896 67.3864 27.0335 66.4308 27.0335 64.7273C27.0335 63.027 27.596 62.0554 28.542 62.0554C29.488 62.0554 30.0505 63.027 30.0505 64.7273C30.0505 66.4308 29.4944 67.3864 28.542 67.3864Z" fill="#334669"/>
<path opacity="0.5" d="M95.6095 240H97.9746C99.5214 240 100.161 239.246 100.161 238.261C100.161 237.226 99.4447 236.663 98.8439 236.625V236.561C99.4064 236.408 99.905 236.037 99.905 235.193C99.905 234.234 99.2658 233.455 97.8979 233.455H95.6095V240ZM96.4021 239.297V237.021H98.0129C98.8695 237.021 99.4064 237.597 99.4064 238.261C99.4064 238.837 99.0101 239.297 97.9746 239.297H96.4021ZM96.4021 236.331V234.158H97.8979C98.7672 234.158 99.1507 234.618 99.1507 235.193C99.1507 235.884 98.5882 236.331 97.8723 236.331H96.4021ZM101.08 235.794H102.703V240H103.457V235.794H105.068V235.091H101.08V235.794ZM106.476 239.105H105.658L105.619 239.463C105.527 240.329 105.345 241.192 105.261 241.598H105.837C105.99 241.163 106.316 240.179 106.425 239.45L106.476 239.105ZM87.0174 251H91.1467V250.297H88.104V250.246L89.5742 248.673C90.6992 247.468 91.0316 246.906 91.0316 246.18C91.0316 245.17 90.2134 244.365 89.0629 244.365C87.9155 244.365 87.043 245.145 87.043 246.295H87.7972C87.7972 245.551 88.2798 245.055 89.0373 245.055C89.7468 245.055 90.2901 245.49 90.2901 246.18C90.2901 246.784 89.9354 247.232 89.1779 248.06L87.0174 250.425V251ZM94.5632 251.089C95.8704 251.089 96.7812 250.326 96.7876 249.261C96.7812 248.434 96.2283 247.73 95.522 247.599V247.561C96.1357 247.401 96.5384 246.8 96.5447 246.104C96.5384 245.107 95.701 244.365 94.5632 244.365C93.4126 244.365 92.5753 245.107 92.5817 246.104C92.5753 246.8 92.978 247.401 93.6044 247.561V247.599C92.8853 247.73 92.3324 248.434 92.3388 249.261C92.3324 250.326 93.2433 251.089 94.5632 251.089ZM94.5632 250.386C93.6651 250.386 93.1122 249.926 93.1186 249.223C93.1122 248.485 93.7227 247.957 94.5632 247.957C95.391 247.957 96.0014 248.485 96.0078 249.223C96.0014 249.926 95.4485 250.386 94.5632 250.386ZM94.5632 247.28C93.8473 247.28 93.3423 246.832 93.3487 246.155C93.3423 245.49 93.8281 245.055 94.5632 245.055C95.2855 245.055 95.7713 245.49 95.7777 246.155C95.7713 246.832 95.2663 247.28 94.5632 247.28ZM102.001 251.115C102.858 251.115 103.305 250.655 103.459 250.335H103.497V251H104.251V247.766C104.251 246.206 103.062 246.027 102.436 246.027C101.694 246.027 100.851 246.283 100.467 247.178L101.183 247.433C101.349 247.075 101.742 246.692 102.461 246.692C103.155 246.692 103.497 247.059 103.497 247.689V247.714C103.497 248.079 103.126 248.047 102.231 248.162C101.32 248.28 100.326 248.482 100.326 249.607C100.326 250.565 101.068 251.115 102.001 251.115ZM102.116 250.438C101.515 250.438 101.081 250.169 101.081 249.645C101.081 249.07 101.605 248.891 102.193 248.814C102.513 248.776 103.369 248.686 103.497 248.533V249.223C103.497 249.837 103.011 250.438 102.116 250.438ZM105.628 251H106.382V246.794H108.734V251H109.489V246.091H105.628V251ZM110.866 252.841H111.62V250.246H111.684C111.85 250.514 112.17 251.102 113.116 251.102C114.343 251.102 115.2 250.118 115.2 248.558C115.2 247.011 114.343 246.027 113.103 246.027C112.145 246.027 111.85 246.615 111.684 246.871H111.595V246.091H110.866V252.841ZM111.608 248.545C111.608 247.446 112.093 246.705 113.014 246.705C113.973 246.705 114.446 247.51 114.446 248.545C114.446 249.594 113.96 250.425 113.014 250.425C112.106 250.425 111.608 249.658 111.608 248.545Z" fill="#334669"/>
<path opacity="0.5" d="M147.782 235.5C147.539 234.158 146.466 233.365 145.149 233.365C143.474 233.365 142.26 234.656 142.26 236.727C142.26 238.798 143.474 240.089 145.149 240.089C146.466 240.089 147.539 239.297 147.782 237.955H146.99C146.798 238.862 146.018 239.348 145.149 239.348C143.96 239.348 143.027 238.428 143.027 236.727C143.027 235.027 143.96 234.107 145.149 234.107C146.018 234.107 146.798 234.592 146.99 235.5H147.782ZM148.961 241.841H149.715V239.246H149.779C149.945 239.514 150.265 240.102 151.211 240.102C152.438 240.102 153.295 239.118 153.295 237.558C153.295 236.011 152.438 235.027 151.198 235.027C150.239 235.027 149.945 235.615 149.779 235.871H149.69V235.091H148.961V241.841ZM149.702 237.545C149.702 236.446 150.188 235.705 151.109 235.705C152.067 235.705 152.54 236.51 152.54 237.545C152.54 238.594 152.055 239.425 151.109 239.425C150.201 239.425 149.702 238.658 149.702 237.545ZM155.57 239.105H154.752L154.714 239.463C154.621 240.329 154.439 241.192 154.356 241.598H154.931C155.084 241.163 155.41 240.179 155.519 239.45L155.57 239.105ZM134.982 251H139.112V250.297H136.069V250.246L137.539 248.673C138.664 247.468 138.996 246.906 138.996 246.18C138.996 245.17 138.178 244.365 137.028 244.365C135.88 244.365 135.008 245.145 135.008 246.295H135.762C135.762 245.551 136.245 245.055 137.002 245.055C137.712 245.055 138.255 245.49 138.255 246.18C138.255 246.784 137.9 247.232 137.143 248.06L134.982 250.425V251ZM142.515 244.352C141.186 244.339 140.329 245.337 140.329 246.551C140.329 247.817 141.262 248.724 142.387 248.724C143.065 248.724 143.64 248.392 143.998 247.855H144.049C144.049 249.466 143.423 250.386 142.413 250.386C141.723 250.386 141.301 249.952 141.16 249.351H140.38C140.534 250.386 141.314 251.089 142.413 251.089C143.883 251.089 144.791 249.786 144.791 247.459C144.791 245.043 143.589 244.365 142.515 244.352ZM142.515 245.055C143.333 245.055 143.934 245.759 143.934 246.538C143.934 247.318 143.295 248.021 142.49 248.021C141.684 248.021 141.096 247.369 141.096 246.551C141.096 245.72 141.71 245.055 142.515 245.055ZM150.036 251.115C150.893 251.115 151.34 250.655 151.494 250.335H151.532V251H152.286V247.766C152.286 246.206 151.097 246.027 150.471 246.027C149.729 246.027 148.886 246.283 148.502 247.178L149.218 247.433C149.384 247.075 149.777 246.692 150.497 246.692C151.19 246.692 151.532 247.059 151.532 247.689V247.714C151.532 248.079 151.161 248.047 150.266 248.162C149.356 248.28 148.362 248.482 148.362 249.607C148.362 250.565 149.103 251.115 150.036 251.115ZM150.151 250.438C149.551 250.438 149.116 250.169 149.116 249.645C149.116 249.07 149.64 248.891 150.228 248.814C150.548 248.776 151.404 248.686 151.532 248.533V249.223C151.532 249.837 151.046 250.438 150.151 250.438ZM153.663 251H154.417V246.794H156.77V251H157.524V246.091H153.663V251ZM158.901 252.841H159.656V250.246H159.719C159.886 250.514 160.205 251.102 161.151 251.102C162.379 251.102 163.235 250.118 163.235 248.558C163.235 247.011 162.379 246.027 161.138 246.027C160.18 246.027 159.886 246.615 159.719 246.871H159.63V246.091H158.901V252.841ZM159.643 248.545C159.643 247.446 160.129 246.705 161.049 246.705C162.008 246.705 162.481 247.51 162.481 248.545C162.481 249.594 161.995 250.425 161.049 250.425C160.141 250.425 159.643 249.658 159.643 248.545Z" fill="#334669"/>
<path opacity="0.5" d="M191.383 233.455V235.641C191.383 237.085 192.202 237.622 193.557 237.622C194.349 237.622 194.838 237.52 195.372 237.36V240H196.165V233.455H195.372V236.641C194.813 236.804 194.218 236.906 193.557 236.906C192.713 236.906 192.176 236.612 192.176 235.641V233.455H191.383ZM197.37 235.794H198.993V240H199.747V235.794H201.358V235.091H197.37V235.794ZM202.766 239.105H201.948L201.909 239.463C201.817 240.329 201.635 241.192 201.552 241.598H202.127C202.28 241.163 202.606 240.179 202.715 239.45L202.766 239.105ZM185.049 251.089C186.318 251.089 187.261 250.294 187.261 249.223C187.261 248.392 186.768 247.788 185.944 247.651V247.599C186.605 247.398 187.018 246.855 187.018 246.116C187.018 245.19 186.286 244.365 185.074 244.365C183.943 244.365 183.003 245.062 182.965 246.091H183.732C183.761 245.439 184.381 245.055 185.062 245.055C185.784 245.055 186.251 245.493 186.251 246.155C186.251 246.845 185.71 247.293 184.934 247.293H184.41V247.996H184.934C185.928 247.996 186.481 248.501 186.481 249.223C186.481 249.917 185.877 250.386 185.036 250.386C184.279 250.386 183.678 249.996 183.63 249.364H182.824C182.872 250.393 183.78 251.089 185.049 251.089ZM190.703 251.089C192.147 251.089 192.978 249.865 192.978 247.727C192.978 245.605 192.134 244.365 190.703 244.365C189.271 244.365 188.427 245.605 188.427 247.727C188.427 249.865 189.258 251.089 190.703 251.089ZM190.703 250.386C189.75 250.386 189.194 249.431 189.194 247.727C189.194 246.027 189.757 245.055 190.703 245.055C191.649 245.055 192.211 246.027 192.211 247.727C192.211 249.431 191.655 250.386 190.703 250.386ZM198.181 251.115C199.038 251.115 199.485 250.655 199.639 250.335H199.677V251H200.431V247.766C200.431 246.206 199.242 246.027 198.616 246.027C197.875 246.027 197.031 246.283 196.647 247.178L197.363 247.433C197.529 247.075 197.922 246.692 198.642 246.692C199.335 246.692 199.677 247.059 199.677 247.689V247.714C199.677 248.079 199.306 248.047 198.411 248.162C197.501 248.28 196.507 248.482 196.507 249.607C196.507 250.565 197.248 251.115 198.181 251.115ZM198.296 250.438C197.696 250.438 197.261 250.169 197.261 249.645C197.261 249.07 197.785 248.891 198.373 248.814C198.693 248.776 199.549 248.686 199.677 248.533V249.223C199.677 249.837 199.191 250.438 198.296 250.438ZM201.808 251H202.562V246.794H204.915V251H205.669V246.091H201.808V251ZM207.046 252.841H207.801V250.246H207.864C208.031 250.514 208.35 251.102 209.296 251.102C210.524 251.102 211.38 250.118 211.38 248.558C211.38 247.011 210.524 246.027 209.284 246.027C208.325 246.027 208.031 246.615 207.864 246.871H207.775V246.091H207.046V252.841ZM207.788 248.545C207.788 247.446 208.274 246.705 209.194 246.705C210.153 246.705 210.626 247.51 210.626 248.545C210.626 249.594 210.14 250.425 209.194 250.425C208.286 250.425 207.788 249.658 207.788 248.545Z" fill="#334669"/>
<path opacity="0.5" d="M241.185 233.455H236.301V240H237.094V234.158H240.392V240H241.185V233.455ZM242.4 235.794H244.024V240H244.778V235.794H246.389V235.091H242.4V235.794ZM247.797 239.105H246.979L246.94 239.463C246.848 240.329 246.665 241.192 246.582 241.598H247.158C247.311 241.163 247.637 240.179 247.746 239.45L247.797 239.105ZM233.184 244.455H232.391L230.755 245.541V246.347L232.353 245.286H232.391V251H233.184V244.455ZM240.295 249.977L238.607 246.091H237.61V251H238.365V247.174L239.988 251H240.602L242.225 247.245V251H242.98V246.091H242.008L240.295 249.977ZM245.805 251.115C246.661 251.115 247.109 250.655 247.262 250.335H247.301V251H248.055V247.766C248.055 246.206 246.866 246.027 246.24 246.027C245.498 246.027 244.654 246.283 244.271 247.178L244.987 247.433C245.153 247.075 245.546 246.692 246.265 246.692C246.959 246.692 247.301 247.059 247.301 247.689V247.714C247.301 248.079 246.93 248.047 246.035 248.162C245.124 248.28 244.13 248.482 244.13 249.607C244.13 250.565 244.872 251.115 245.805 251.115ZM245.92 250.438C245.319 250.438 244.884 250.169 244.884 249.645C244.884 249.07 245.409 248.891 245.997 248.814C246.316 248.776 247.173 248.686 247.301 248.533V249.223C247.301 249.837 246.815 250.438 245.92 250.438ZM252.385 251H253.101V246.091H251.081C250.023 246.091 249.38 246.644 249.38 247.548C249.38 248.223 249.719 248.702 250.31 248.903L249.112 251H249.93L251.068 249.006H252.385V251ZM252.385 248.303H250.991C250.457 248.303 250.135 248.018 250.135 247.548C250.135 247.072 250.493 246.781 251.081 246.781H252.385V248.303Z" fill="#334669"/>
<path opacity="0.5" d="M283.37 235.5C283.127 234.158 282.053 233.365 280.737 233.365C279.062 233.365 277.847 234.656 277.847 236.727C277.847 238.798 279.062 240.089 280.737 240.089C282.053 240.089 283.127 239.297 283.37 237.955H282.578C282.386 238.862 281.606 239.348 280.737 239.348C279.548 239.348 278.615 238.428 278.615 236.727C278.615 235.027 279.548 234.107 280.737 234.107C281.606 234.107 282.386 234.592 282.578 235.5H283.37ZM288.192 233.25C287.953 233.451 287.595 233.451 287.093 233.448C286.93 233.448 286.751 233.448 286.556 233.455C285.06 233.493 284.319 234.631 284.319 236.817V237.341C284.319 239.156 285.201 240.102 286.517 240.102C287.831 240.102 288.704 239.15 288.704 237.609C288.704 236.062 287.818 235.244 286.671 235.244C285.997 235.244 285.367 235.526 285.035 236.139H284.971C285.073 234.874 285.546 234.196 286.569 234.158C287.476 234.119 288.128 234.145 288.576 233.71L288.192 233.25ZM286.517 239.425C285.623 239.425 285.073 238.709 285.073 237.609C285.089 236.536 285.629 235.922 286.505 235.922C287.403 235.922 287.949 236.536 287.949 237.609C287.949 238.715 287.406 239.425 286.517 239.425ZM290.982 239.105H290.164L290.126 239.463C290.033 240.329 289.851 241.192 289.768 241.598H290.343C290.497 241.163 290.823 240.179 290.931 239.45L290.982 239.105ZM272.75 251H276.879V250.297H273.836V250.246L275.307 248.673C276.432 247.468 276.764 246.906 276.764 246.18C276.764 245.17 275.946 244.365 274.795 244.365C273.648 244.365 272.775 245.145 272.775 246.295H273.53C273.53 245.551 274.012 245.055 274.77 245.055C275.479 245.055 276.023 245.49 276.023 246.18C276.023 246.784 275.668 247.232 274.91 248.06L272.75 250.425V251ZM283.428 249.977L281.74 246.091H280.743V251H281.497V247.174L283.121 251H283.735L285.358 247.245V251H286.112V246.091H285.141L283.428 249.977ZM288.938 251.115C289.794 251.115 290.242 250.655 290.395 250.335H290.433V251H291.188V247.766C291.188 246.206 289.999 246.027 289.372 246.027C288.631 246.027 287.787 246.283 287.404 247.178L288.119 247.433C288.286 247.075 288.679 246.692 289.398 246.692C290.091 246.692 290.433 247.059 290.433 247.689V247.714C290.433 248.079 290.063 248.047 289.168 248.162C288.257 248.28 287.263 248.482 287.263 249.607C287.263 250.565 288.004 251.115 288.938 251.115ZM289.053 250.438C288.452 250.438 288.017 250.169 288.017 249.645C288.017 249.07 288.541 248.891 289.129 248.814C289.449 248.776 290.306 248.686 290.433 248.533V249.223C290.433 249.837 289.948 250.438 289.053 250.438ZM295.517 251H296.233V246.091H294.214C293.156 246.091 292.513 246.644 292.513 247.548C292.513 248.223 292.852 248.702 293.443 248.903L292.245 251H293.063L294.201 249.006H295.517V251ZM295.517 248.303H294.124C293.59 248.303 293.267 248.018 293.267 247.548C293.267 247.072 293.625 246.781 294.214 246.781H295.517V248.303Z" fill="#334669"/>
<path opacity="0.5" d="M321.591 240H323.956C325.503 240 326.142 239.246 326.142 238.261C326.142 237.226 325.426 236.663 324.825 236.625V236.561C325.388 236.408 325.886 236.037 325.886 235.193C325.886 234.234 325.247 233.455 323.879 233.455H321.591V240ZM322.384 239.297V237.021H323.994C324.851 237.021 325.388 237.597 325.388 238.261C325.388 238.837 324.992 239.297 323.956 239.297H322.384ZM322.384 236.331V234.158H323.879C324.749 234.158 325.132 234.618 325.132 235.193C325.132 235.884 324.57 236.331 323.854 236.331H322.384ZM329.337 240.102C330.423 240.102 331.139 239.438 331.267 238.568H330.513C330.372 239.105 329.925 239.425 329.337 239.425C328.442 239.425 327.866 238.683 327.866 237.545C327.866 236.433 328.454 235.705 329.337 235.705C330.001 235.705 330.398 236.114 330.513 236.561H331.267C331.139 235.641 330.359 235.027 329.324 235.027C327.994 235.027 327.112 236.075 327.112 237.571C327.112 239.041 327.956 240.102 329.337 240.102ZM333.495 239.105H332.676L332.638 239.463C332.545 240.329 332.363 241.192 332.28 241.598H332.855C333.009 241.163 333.335 240.179 333.443 239.45L333.495 239.105ZM315.75 251H319.879V250.297H316.836V250.246L318.307 248.673C319.432 247.468 319.764 246.906 319.764 246.18C319.764 245.17 318.946 244.365 317.795 244.365C316.648 244.365 315.775 245.145 315.775 246.295H316.53C316.53 245.551 317.012 245.055 317.77 245.055C318.479 245.055 319.023 245.49 319.023 246.18C319.023 246.784 318.668 247.232 317.91 248.06L315.75 250.425V251ZM326.428 249.977L324.74 246.091H323.743V251H324.497V247.174L326.121 251H326.735L328.358 247.245V251H329.112V246.091H328.141L326.428 249.977ZM331.938 251.115C332.794 251.115 333.242 250.655 333.395 250.335H333.433V251H334.188V247.766C334.188 246.206 332.999 246.027 332.372 246.027C331.631 246.027 330.787 246.283 330.404 247.178L331.119 247.433C331.286 247.075 331.679 246.692 332.398 246.692C333.091 246.692 333.433 247.059 333.433 247.689V247.714C333.433 248.079 333.063 248.047 332.168 248.162C331.257 248.28 330.263 248.482 330.263 249.607C330.263 250.565 331.004 251.115 331.938 251.115ZM332.053 250.438C331.452 250.438 331.017 250.169 331.017 249.645C331.017 249.07 331.541 248.891 332.129 248.814C332.449 248.776 333.306 248.686 333.433 248.533V249.223C333.433 249.837 332.948 250.438 332.053 250.438ZM338.517 251H339.233V246.091H337.214C336.156 246.091 335.513 246.644 335.513 247.548C335.513 248.223 335.852 248.702 336.443 248.903L335.245 251H336.063L337.201 249.006H338.517V251ZM338.517 248.303H337.124C336.59 248.303 336.267 248.018 336.267 247.548C336.267 247.072 336.625 246.781 337.214 246.781H338.517V248.303Z" fill="#334669"/>
<g filter="url(#filter0_d)">
<path d="M40 122L93 129L138.5 104H191.5L249 111L290.5 108.5L330.5 116.5" stroke="url(#paint0_linear)" stroke-width="1.5"/>
</g>
<g filter="url(#filter1_d)">
<path d="M41.5 173L93 181.5L138.5 194L191.5 181.5L242 184L290.5 176.5L330 162" stroke="#2188B4" stroke-width="1.5"/>
</g>
<defs>
<filter id="filter0_d" x="31.9019" y="99.25" width="306.745" height="42.5257" filterUnits="userSpaceOnUse" color-interpolation-filters="sRGB">
<feFlood flood-opacity="0" result="BackgroundImageFix"/>
<feColorMatrix in="SourceAlpha" type="matrix" values="0 0 0 0 0 0 0 0 0 0 0 0 0 0 0 0 0 0 127 0"/>
<feOffset dy="4"/>
<feGaussianBlur stdDeviation="4"/>
<feColorMatrix type="matrix" values="0 0 0 0 0.941176 0 0 0 0 0.631373 0 0 0 0 0.623529 0 0 0 0.6 0"/>
<feBlend mode="normal" in2="BackgroundImageFix" result="effect1_dropShadow"/>
<feBlend mode="normal" in="SourceGraphic" in2="effect1_dropShadow" result="shape"/>
</filter>
<filter id="filter1_d" x="33.3778" y="157.296" width="304.881" height="49.478" filterUnits="userSpaceOnUse" color-interpolation-filters="sRGB">
<feFlood flood-opacity="0" result="BackgroundImageFix"/>
<feColorMatrix in="SourceAlpha" type="matrix" values="0 0 0 0 0 0 0 0 0 0 0 0 0 0 0 0 0 0 127 0"/>
<feOffset dy="4"/>
<feGaussianBlur stdDeviation="4"/>
<feColorMatrix type="matrix" values="0 0 0 0 0.941176 0 0 0 0 0.631373 0 0 0 0 0.623529 0 0 0 0.6 0"/>
<feBlend mode="normal" in2="BackgroundImageFix" result="effect1_dropShadow"/>
<feBlend mode="normal" in="SourceGraphic" in2="effect1_dropShadow" result="shape"/>
</filter>
<linearGradient id="paint0_linear" x1="555.509" y1="129" x2="532.758" y2="1.52771" gradientUnits="userSpaceOnUse">
<stop stop-color="#CD8A9A"/>
<stop offset="1" stop-color="#FEAAA0"/>
</linearGradient>
</defs>
</svg>
