<svg width="360" height="259" viewBox="0 0 360 259" fill="none" xmlns="http://www.w3.org/2000/svg">
<rect width="360" height="259" fill="white"/>
<path opacity="0.8" d="M25.5753 17.1293C25.2273 14.9517 23.522 13.679 21.3693 13.679C18.7344 13.679 16.7905 15.6527 16.7905 18.9091C16.7905 22.1655 18.7244 24.1392 21.3693 24.1392C23.6065 24.1392 25.2422 22.7372 25.5753 20.7237L24.0241 20.7188C23.7607 22.0213 22.6669 22.7372 21.3793 22.7372C19.6342 22.7372 18.3168 21.3999 18.3168 18.9091C18.3168 16.4382 19.6293 15.081 21.3842 15.081C22.6818 15.081 23.7706 15.8118 24.0241 17.1293H25.5753ZM30.5108 24.1541C32.6635 24.1541 34.0705 22.5781 34.0705 20.2166C34.0705 17.8402 32.6635 16.2642 30.5108 16.2642C28.3581 16.2642 26.9512 17.8402 26.9512 20.2166C26.9512 22.5781 28.3581 24.1541 30.5108 24.1541ZM30.5158 22.9062C29.1088 22.9062 28.4526 21.6783 28.4526 20.2116C28.4526 18.75 29.1088 17.5071 30.5158 17.5071C31.9128 17.5071 32.5691 18.75 32.5691 20.2116C32.5691 21.6783 31.9128 22.9062 30.5158 22.9062ZM37.1864 16.3636H35.7298V24H37.1864V20.8281H40.4925V24H41.9442V16.3636H40.4925V19.5405H37.1864V16.3636ZM49.0946 21.9169V16.3636H47.638V24H49.2537L52.6046 18.4418V24H54.0613V16.3636H52.4604L49.0946 21.9169ZM55.4583 24H55.9355C57.601 24 58.2125 22.767 58.3319 20.2415L58.4512 17.6463H60.9469V24H62.4036V16.3636H57.074L56.9398 19.7443C56.8453 22.1009 56.5769 22.7124 55.7267 22.7124H55.4533L55.4583 24ZM65.8427 21.9169V16.3636H64.386V24H66.0018L69.3526 18.4418V24H70.8093V16.3636H69.2085L65.8427 21.9169ZM76.513 24H77.9597V17.6463H81.2857V24H82.7424V16.3636H76.513V24ZM87.9464 24.1541C90.0991 24.1541 91.506 22.5781 91.506 20.2166C91.506 17.8402 90.0991 16.2642 87.9464 16.2642C85.7937 16.2642 84.3867 17.8402 84.3867 20.2166C84.3867 22.5781 85.7937 24.1541 87.9464 24.1541ZM87.9513 22.9062C86.5444 22.9062 85.8881 21.6783 85.8881 20.2116C85.8881 18.75 86.5444 17.5071 87.9513 17.5071C89.3484 17.5071 90.0046 18.75 90.0046 20.2116C90.0046 21.6783 89.3484 22.9062 87.9513 22.9062ZM92.5637 24H93.041C94.7065 24 95.318 22.767 95.4373 20.2415L95.5566 17.6463H98.0524V24H99.5091V16.3636H94.1795L94.0453 19.7443C93.9508 22.1009 93.6824 22.7124 92.8322 22.7124H92.5588L92.5637 24ZM104.708 24.1541C106.861 24.1541 108.268 22.5781 108.268 20.2166C108.268 17.8402 106.861 16.2642 104.708 16.2642C102.555 16.2642 101.148 17.8402 101.148 20.2166C101.148 22.5781 102.555 24.1541 104.708 24.1541ZM104.713 22.9062C103.306 22.9062 102.65 21.6783 102.65 20.2116C102.65 18.75 103.306 17.5071 104.713 17.5071C106.11 17.5071 106.766 18.75 106.766 20.2116C106.766 21.6783 106.11 22.9062 104.713 22.9062ZM109.125 24H110.89L113.287 20.8182H113.784V24H115.27V20.8182H115.767L118.149 24H119.914L116.971 20.0923L119.879 16.3636H118.149L115.787 19.5355H115.27V16.3636H113.784V19.5355H113.252L110.89 16.3636H109.16L112.083 20.0923L109.125 24ZM124.402 24.1541C126.067 24.1541 127.246 23.3338 127.584 22.0909L126.177 21.8374C125.908 22.5582 125.262 22.9261 124.417 22.9261C123.144 22.9261 122.289 22.1009 122.249 20.6293H127.678V20.1023C127.678 17.343 126.028 16.2642 124.297 16.2642C122.17 16.2642 120.768 17.8849 120.768 20.2315C120.768 22.603 122.15 24.1541 124.402 24.1541ZM122.254 19.5156C122.314 18.4318 123.099 17.4922 124.307 17.4922C125.461 17.4922 126.216 18.3473 126.221 19.5156H122.254ZM130.784 16.3636H129.327V24H130.784V20.8281H134.09V24H135.542V16.3636H134.09V19.5405H130.784V16.3636ZM138.987 21.9169V16.3636H137.531V24H139.146L142.497 18.4418V24H143.954V16.3636H142.353L138.987 21.9169ZM149.244 24.1541C150.909 24.1541 152.087 23.3338 152.425 22.0909L151.018 21.8374C150.75 22.5582 150.104 22.9261 149.259 22.9261C147.986 22.9261 147.131 22.1009 147.091 20.6293H152.52V20.1023C152.52 17.343 150.869 16.2642 149.139 16.2642C147.011 16.2642 145.609 17.8849 145.609 20.2315C145.609 22.603 146.991 24.1541 149.244 24.1541ZM147.096 19.5156C147.156 18.4318 147.941 17.4922 149.149 17.4922C150.303 17.4922 151.058 18.3473 151.063 19.5156H147.096ZM157.273 24H157.75C159.415 24 160.027 22.767 160.146 20.2415L160.266 17.6463H162.761V24H164.218V16.3636H158.888L158.754 19.7443C158.66 22.1009 158.391 22.7124 157.541 22.7124H157.268L157.273 24ZM169.492 24.1541C171.157 24.1541 172.335 23.3338 172.673 22.0909L171.267 21.8374C170.998 22.5582 170.352 22.9261 169.507 22.9261C168.234 22.9261 167.379 22.1009 167.339 20.6293H172.768V20.1023C172.768 17.343 171.117 16.2642 169.387 16.2642C167.259 16.2642 165.857 17.8849 165.857 20.2315C165.857 22.603 167.24 24.1541 169.492 24.1541ZM167.344 19.5156C167.404 18.4318 168.189 17.4922 169.397 17.4922C170.551 17.4922 171.306 18.3473 171.311 19.5156H167.344ZM167.871 15.1655C168.368 15.1655 168.746 14.7628 168.746 14.3004C168.746 13.8082 168.368 13.4304 167.871 13.4304C167.404 13.4304 166.991 13.8082 166.991 14.3004C166.991 14.7628 167.404 15.1655 167.871 15.1655ZM170.794 15.1655C171.291 15.1655 171.669 14.7628 171.669 14.3004C171.669 13.8082 171.291 13.4304 170.794 13.4304C170.327 13.4304 169.914 13.8082 169.914 14.3004C169.914 14.7628 170.327 15.1655 170.794 15.1655ZM173.752 24H175.517L177.914 20.8182H178.411V24H179.897V20.8182H180.394L182.776 24H184.541L181.597 20.0923L184.506 16.3636H182.776L180.414 19.5355H179.897V16.3636H178.411V19.5355H177.879L175.517 16.3636H173.787L176.71 20.0923L173.752 24ZM188.261 24.169C189.523 24.169 190.234 23.5277 190.518 22.956H190.577V24H192.029V18.929C192.029 16.7067 190.279 16.2642 189.066 16.2642C187.684 16.2642 186.411 16.821 185.914 18.2131L187.311 18.5312C187.53 17.9893 188.087 17.4673 189.086 17.4673C190.045 17.4673 190.538 17.9695 190.538 18.8345V18.8693C190.538 19.4112 189.981 19.4013 188.609 19.5604C187.162 19.7294 185.68 20.1072 185.68 21.8423C185.68 23.3438 186.809 24.169 188.261 24.169ZM188.584 22.9759C187.744 22.9759 187.137 22.598 187.137 21.8622C187.137 21.0668 187.843 20.7834 188.703 20.669C189.185 20.6044 190.329 20.4751 190.543 20.2614V21.2457C190.543 22.1506 189.822 22.9759 188.584 22.9759Z" fill="#334669"/>
<path opacity="0.5" d="M22.8395 36.0923C22.5909 34.5369 21.3729 33.6278 19.8352 33.6278C17.9531 33.6278 16.5646 35.0376 16.5646 37.3636C16.5646 39.6896 17.946 41.0994 19.8352 41.0994C21.4332 41.0994 22.6016 40.098 22.8395 38.6598L21.7315 38.6562C21.5433 39.5866 20.7621 40.098 19.8423 40.098C18.5959 40.098 17.6548 39.1428 17.6548 37.3636C17.6548 35.5987 18.5923 34.6293 19.8459 34.6293C20.7727 34.6293 21.5504 35.1513 21.7315 36.0923H22.8395ZM24.0673 43.0455H25.1291V40.1513H25.193C25.3848 40.4993 25.7754 41.1065 26.7697 41.1065C28.0907 41.1065 29.0495 40.0483 29.0495 38.2834C29.0495 36.5149 28.0765 35.4744 26.7591 35.4744C25.747 35.4744 25.3812 36.0923 25.193 36.4297H25.1042V35.5455H24.0673V43.0455ZM25.1078 38.2727C25.1078 37.1328 25.6049 36.3764 26.5318 36.3764C27.4941 36.3764 27.9771 37.1896 27.9771 38.2727C27.9771 39.3665 27.4799 40.201 26.5318 40.201C25.6191 40.201 25.1078 39.4197 25.1078 38.2727ZM32.59 41.1101C33.7797 41.1101 34.6213 40.5241 34.8627 39.6364L33.8578 39.4553C33.666 39.9702 33.2044 40.233 32.6007 40.233C31.6916 40.233 31.0808 39.6435 31.0524 38.5923H34.9302V38.2159C34.9302 36.245 33.7512 35.4744 32.5154 35.4744C30.9956 35.4744 29.9941 36.6321 29.9941 38.3082C29.9941 40.0021 30.9814 41.1101 32.59 41.1101ZM31.0559 37.7969C31.0985 37.0227 31.6596 36.3516 32.5225 36.3516C33.3464 36.3516 33.8862 36.9624 33.8897 37.7969H31.0559ZM35.5756 42.5732H36.6268V41H40.43V42.5732H41.467V40.0803H40.6289V35.5455H36.9215L36.7511 37.5803C36.6374 38.9545 36.4705 39.6719 36.0195 40.0803H35.5756V42.5732ZM37.1559 40.0803C37.5181 39.5724 37.6531 38.7273 37.7596 37.5803L37.8732 36.4545H39.592V40.0803H37.1559ZM43.5453 35.5455H42.5048V41H43.5453V38.7344H45.9068V41H46.9437V35.5455H45.9068V37.8146H43.5453V35.5455ZM50.715 41.1101C51.9047 41.1101 52.7463 40.5241 52.9877 39.6364L51.9828 39.4553C51.791 39.9702 51.3294 40.233 50.7257 40.233C49.8166 40.233 49.2058 39.6435 49.1774 38.5923H53.0552V38.2159C53.0552 36.245 51.8762 35.4744 50.6404 35.4744C49.1206 35.4744 48.1191 36.6321 48.1191 38.3082C48.1191 40.0021 49.1064 41.1101 50.715 41.1101ZM49.1809 37.7969C49.2235 37.0227 49.7846 36.3516 50.6475 36.3516C51.4714 36.3516 52.0112 36.9624 52.0147 37.7969H49.1809ZM56.5309 41.1101C57.82 41.1101 58.6545 40.3359 58.7717 39.2741H57.7383C57.6033 39.8636 57.1452 40.2116 56.538 40.2116C55.6396 40.2116 55.0607 39.4624 55.0607 38.2727C55.0607 37.1044 55.6502 36.3693 56.538 36.3693C57.2127 36.3693 57.6246 36.7955 57.7383 37.3068H58.7717C58.658 36.206 57.7596 35.4744 56.5202 35.4744C54.9826 35.4744 53.9883 36.6321 53.9883 38.2976C53.9883 39.9418 54.9471 41.1101 56.5309 41.1101ZM60.5783 43.0312C61.4554 43.0312 62.013 42.5732 62.3255 41.728L64.5804 35.5561L63.4334 35.5455L62.052 39.7784H61.9952L60.6138 35.5455H59.4775L61.4732 41.071L61.3418 41.4332C61.0719 42.1399 60.6919 42.2038 60.1096 42.044L59.8539 42.9141C59.9817 42.9744 60.2587 43.0312 60.5783 43.0312ZM65.2756 36.4616H67.0618V41H68.0987V36.4616H69.8778V35.5455H65.2756V36.4616ZM73.0446 41.1101C74.5822 41.1101 75.5872 39.9844 75.5872 38.2976C75.5872 36.6001 74.5822 35.4744 73.0446 35.4744C71.5069 35.4744 70.502 36.6001 70.502 38.2976C70.502 39.9844 71.5069 41.1101 73.0446 41.1101ZM73.0481 40.2188C72.0431 40.2188 71.5744 39.3416 71.5744 38.294C71.5744 37.25 72.0431 36.3622 73.0481 36.3622C74.046 36.3622 74.5147 37.25 74.5147 38.294C74.5147 39.3416 74.046 40.2188 73.0481 40.2188ZM81.1509 35.5455H80.114V38.2621C79.7553 38.358 79.3931 38.4148 78.9776 38.4148C78.2532 38.4148 77.8058 38.0881 77.8058 37.3175V35.5348H76.7724V37.3175C76.7724 38.6811 77.6282 39.331 78.9776 39.331C79.3896 39.331 79.766 39.2741 80.114 39.1854V41H81.1509V35.5455ZM83.6039 35.5455H82.5634V41H83.6039V38.7344H85.9654V41H87.0023V35.5455H85.9654V37.8146H83.6039V35.5455ZM90.0101 41.1207C90.9121 41.1207 91.4199 40.6626 91.6223 40.2543H91.665V41H92.7019V37.3778C92.7019 35.7905 91.4519 35.4744 90.5854 35.4744C89.5982 35.4744 88.6891 35.8722 88.334 36.8665L89.3319 37.0938C89.4881 36.7067 89.8858 36.3338 90.5996 36.3338C91.285 36.3338 91.6365 36.6925 91.6365 37.3104V37.3352C91.6365 37.7223 91.2388 37.7152 90.2587 37.8288C89.2253 37.9496 88.1671 38.2195 88.1671 39.4588C88.1671 40.5312 88.9732 41.1207 90.0101 41.1207ZM90.2409 40.2685C89.6408 40.2685 89.2076 39.9986 89.2076 39.473C89.2076 38.9048 89.7118 38.7024 90.3262 38.6207C90.6706 38.5746 91.4874 38.4822 91.6401 38.3295V39.0327C91.6401 39.679 91.1252 40.2685 90.2409 40.2685ZM97.369 41H98.3668V35.5455H96.0621C94.805 35.5455 94.038 36.1953 94.038 37.2216C94.038 37.9389 94.4144 38.468 95.0643 38.7131L93.7894 41H94.8761L96.0657 38.8658H97.369V41ZM97.369 38.0064H95.9911C95.4123 38.0064 95.0749 37.701 95.0785 37.2358C95.0749 36.767 95.4407 36.451 96.0621 36.451H97.369V38.0064ZM103.467 35.5455H102.427V41H103.467V38.7344H105.829V41H106.866V35.5455H105.829V37.8146H103.467V35.5455ZM110.584 41.1101C112.121 41.1101 113.126 39.9844 113.126 38.2976C113.126 36.6001 112.121 35.4744 110.584 35.4744C109.046 35.4744 108.041 36.6001 108.041 38.2976C108.041 39.9844 109.046 41.1101 110.584 41.1101ZM110.587 40.2188C109.582 40.2188 109.113 39.3416 109.113 38.294C109.113 37.25 109.582 36.3622 110.587 36.3622C111.585 36.3622 112.054 37.25 112.054 38.294C112.054 39.3416 111.585 40.2188 110.587 40.2188ZM114.311 43.0455H115.373V40.1513H115.437C115.629 40.4993 116.02 41.1065 117.014 41.1065C118.335 41.1065 119.294 40.0483 119.294 38.2834C119.294 36.5149 118.321 35.4744 117.003 35.4744C115.991 35.4744 115.625 36.0923 115.437 36.4297H115.348V35.5455H114.311V43.0455ZM115.352 38.2727C115.352 37.1328 115.849 36.3764 116.776 36.3764C117.738 36.3764 118.221 37.1896 118.221 38.2727C118.221 39.3665 117.724 40.201 116.776 40.201C115.863 40.201 115.352 39.4197 115.352 38.2727ZM123.544 39.6861L121.819 35.5455H120.483V41H121.524V37.0334L123.15 41H123.939L125.593 37.0476V41H126.627V35.5455H125.306L123.544 39.6861ZM129.629 41.1207C130.531 41.1207 131.039 40.6626 131.241 40.2543H131.284V41H132.321V37.3778C132.321 35.7905 131.071 35.4744 130.205 35.4744C129.217 35.4744 128.308 35.8722 127.953 36.8665L128.951 37.0938C129.107 36.7067 129.505 36.3338 130.219 36.3338C130.904 36.3338 131.256 36.6925 131.256 37.3104V37.3352C131.256 37.7223 130.858 37.7152 129.878 37.8288C128.844 37.9496 127.786 38.2195 127.786 39.4588C127.786 40.5312 128.592 41.1207 129.629 41.1207ZM129.86 40.2685C129.26 40.2685 128.827 39.9986 128.827 39.473C128.827 38.9048 129.331 38.7024 129.945 38.6207C130.29 38.5746 131.107 38.4822 131.259 38.3295V39.0327C131.259 39.679 130.744 40.2685 129.86 40.2685ZM134.435 37.0973C134.822 37.0973 135.145 36.7812 135.145 36.3871C135.145 36 134.822 35.6804 134.435 35.6804C134.044 35.6804 133.725 36 133.725 36.3871C133.725 36.7812 134.044 37.0973 134.435 37.0973ZM134.435 41.0675C134.822 41.0675 135.145 40.7514 135.145 40.3572C135.145 39.9702 134.822 39.6506 134.435 39.6506C134.044 39.6506 133.725 39.9702 133.725 40.3572C133.725 40.7514 134.044 41.0675 134.435 41.0675Z" fill="#334669"/>
<line x1="40" y1="212.5" x2="348" y2="212.5" stroke="#D3D8DD" stroke-miterlimit="16" stroke-dasharray="8 8"/>
<line x1="40" y1="166.5" x2="348" y2="166.5" stroke="#D3D8DD" stroke-miterlimit="16" stroke-dasharray="8 8"/>
<line x1="40" y1="120.5" x2="348" y2="120.5" stroke="#D3D8DD" stroke-miterlimit="16" stroke-dasharray="8 8"/>
<line x1="40" y1="88.5" x2="348" y2="88.5" stroke="#D3D8DD" stroke-miterlimit="16" stroke-dasharray="8 8"/>
<path opacity="0.5" d="M142.157 41.0994C143.67 41.0994 144.739 40.2401 144.746 39.0611C144.739 38.1449 144.096 37.3743 143.283 37.2287V37.1861C143.989 37.0156 144.469 36.3516 144.476 35.5668C144.469 34.4553 143.489 33.6278 142.157 33.6278C140.811 33.6278 139.831 34.4553 139.838 35.5668C139.831 36.348 140.31 37.0156 141.031 37.1861V37.2287C140.204 37.3743 139.561 38.1449 139.568 39.0611C139.561 40.2401 140.63 41.0994 142.157 41.0994ZM142.157 40.201C141.248 40.201 140.673 39.718 140.68 38.9901C140.673 38.2337 141.298 37.6939 142.157 37.6939C143.002 37.6939 143.627 38.2337 143.634 38.9901C143.627 39.718 143.055 40.201 142.157 40.201ZM142.157 36.8168C141.422 36.8168 140.9 36.3516 140.907 35.6591C140.9 34.9773 141.404 34.5263 142.157 34.5263C142.896 34.5263 143.4 34.9773 143.407 35.6591C143.4 36.3516 142.881 36.8168 142.157 36.8168ZM153.057 35.5455H152.02V38.2621C151.662 38.358 151.299 38.4148 150.884 38.4148C150.159 38.4148 149.712 38.0881 149.712 37.3175V35.5348H148.679V37.3175C148.679 38.6811 149.534 39.331 150.884 39.331C151.296 39.331 151.672 39.2741 152.02 39.1854V41H153.057V35.5455ZM156.057 41.1207C156.959 41.1207 157.467 40.6626 157.669 40.2543H157.712V41H158.749V37.3778C158.749 35.7905 157.499 35.4744 156.632 35.4744C155.645 35.4744 154.736 35.8722 154.381 36.8665L155.379 37.0938C155.535 36.7067 155.933 36.3338 156.646 36.3338C157.332 36.3338 157.683 36.6925 157.683 37.3104V37.3352C157.683 37.7223 157.286 37.7152 156.306 37.8288C155.272 37.9496 154.214 38.2195 154.214 39.4588C154.214 40.5312 155.02 41.1207 156.057 41.1207ZM156.288 40.2685C155.688 40.2685 155.254 39.9986 155.254 39.473C155.254 38.9048 155.759 38.7024 156.373 38.6207C156.718 38.5746 157.534 38.4822 157.687 38.3295V39.0327C157.687 39.679 157.172 40.2685 156.288 40.2685ZM162.461 41.1101C163.75 41.1101 164.584 40.3359 164.701 39.2741H163.668C163.533 39.8636 163.075 40.2116 162.468 40.2116C161.569 40.2116 160.99 39.4624 160.99 38.2727C160.99 37.1044 161.58 36.3693 162.468 36.3693C163.142 36.3693 163.554 36.7955 163.668 37.3068H164.701C164.588 36.206 163.689 35.4744 162.45 35.4744C160.912 35.4744 159.918 36.6321 159.918 38.2976C159.918 39.9418 160.877 41.1101 162.461 41.1101ZM168.134 41.1101C169.672 41.1101 170.677 39.9844 170.677 38.2976C170.677 36.6001 169.672 35.4744 168.134 35.4744C166.597 35.4744 165.592 36.6001 165.592 38.2976C165.592 39.9844 166.597 41.1101 168.134 41.1101ZM168.138 40.2188C167.133 40.2188 166.664 39.3416 166.664 38.294C166.664 37.25 167.133 36.3622 168.138 36.3622C169.136 36.3622 169.605 37.25 169.605 38.294C169.605 39.3416 169.136 40.2188 168.138 40.2188ZM171.862 41H174.469C175.662 41 176.362 40.3963 176.362 39.5298C176.362 38.7202 175.74 38.223 175.012 38.1378C175.683 38.0099 176.127 37.6406 176.127 37.0014C176.127 36.1065 175.353 35.5455 174.124 35.5455H171.862V41ZM172.86 40.1122V38.5959H174.469C174.994 38.5959 175.31 38.9048 175.31 39.4126C175.31 39.8459 174.994 40.1122 174.469 40.1122H172.86ZM172.86 37.8182V36.4439H174.124C174.728 36.4439 175.094 36.696 175.094 37.1151C175.094 37.5518 174.732 37.8182 174.135 37.8182H172.86Z" fill="#334669"/>
<path opacity="0.5" d="M52.061 233.455H47.1775V240H47.9701V234.158H51.2684V240H52.061V233.455ZM54.3118 235.091H53.5575V240H54.3118V237.903H56.6641V240H57.4183V235.091H56.6641V237.2H54.3118V235.091ZM59.9208 239.105H59.1026L59.0643 239.463C58.9716 240.329 58.7894 241.192 58.7063 241.598H59.2816C59.435 241.163 59.761 240.179 59.8697 239.45L59.9208 239.105ZM39.7195 251H43.8488V250.297H40.8062V250.246L42.2764 248.673C43.4014 247.468 43.7338 246.906 43.7338 246.18C43.7338 245.17 42.9156 244.365 41.765 244.365C40.6176 244.365 39.7451 245.145 39.7451 246.295H40.4994C40.4994 245.551 40.982 245.055 41.7394 245.055C42.449 245.055 42.9923 245.49 42.9923 246.18C42.9923 246.784 42.6375 247.232 41.8801 248.06L39.7195 250.425V251ZM45.3733 251H46.2043L49.1191 245.196V244.455H44.9259V245.158H48.3009V245.209L45.3733 251ZM54.299 251.115C55.1555 251.115 55.603 250.655 55.7564 250.335H55.7947V251H56.549V247.766C56.549 246.206 55.3601 246.027 54.7337 246.027C53.9922 246.027 53.1484 246.283 52.7649 247.178L53.4808 247.433C53.647 247.075 54.0401 246.692 54.7592 246.692C55.4528 246.692 55.7947 247.059 55.7947 247.689V247.714C55.7947 248.079 55.424 248.047 54.5291 248.162C53.6183 248.28 52.6243 248.482 52.6243 249.607C52.6243 250.565 53.3658 251.115 54.299 251.115ZM54.4141 250.438C53.8132 250.438 53.3786 250.169 53.3786 249.645C53.3786 249.07 53.9027 248.891 54.4908 248.814C54.8104 248.776 55.6669 248.686 55.7947 248.533V249.223C55.7947 249.837 55.3089 250.438 54.4141 250.438ZM57.9257 251H58.68V246.794H61.0322V251H61.7865V246.091H57.9257V251ZM63.164 252.841H63.9182V250.246H63.9822C64.1483 250.514 64.468 251.102 65.414 251.102C66.6412 251.102 67.4978 250.118 67.4978 248.558C67.4978 247.011 66.6412 246.027 65.4012 246.027C64.4424 246.027 64.1483 246.615 63.9822 246.871H63.8927V246.091H63.164V252.841ZM63.9055 248.545C63.9055 247.446 64.3912 246.705 65.3117 246.705C66.2705 246.705 66.7435 247.51 66.7435 248.545C66.7435 249.594 66.2577 250.425 65.3117 250.425C64.404 250.425 63.9055 249.658 63.9055 248.545Z" fill="#334669"/>
<path opacity="0.5" d="M18.9787 209.455H18.1861L16.5497 210.541V211.347L18.1477 210.286H18.1861V216H18.9787V209.455ZM27.1893 211.091H26.435V213.581C26.0707 213.686 25.6967 213.75 25.2461 213.75C24.6325 213.75 24.1594 213.405 24.1594 212.651V211.078H23.4052V212.651C23.4052 213.852 24.1339 214.453 25.2461 214.453C25.7095 214.453 26.0803 214.392 26.435 214.287V216H27.1893V211.091ZM29.1229 216.051C29.4393 216.051 29.6982 215.792 29.6982 215.476C29.6982 215.159 29.4393 214.901 29.1229 214.901C28.8065 214.901 28.5476 215.159 28.5476 215.476C28.5476 215.792 28.8065 216.051 29.1229 216.051Z" fill="#334669"/>
<path opacity="0.5" d="M18.723 185.089C19.9695 185.089 20.8835 184.169 20.8835 182.916C20.8835 181.647 20.0014 180.717 18.7997 180.717C18.3587 180.717 17.9304 180.874 17.6619 181.088H17.6236L17.8537 179.158H20.5895V178.455H17.1889L16.7926 181.676L17.5341 181.766C17.8058 181.571 18.2692 181.43 18.6719 181.433C19.506 181.44 20.1165 182.072 20.1165 182.929C20.1165 183.77 19.5284 184.386 18.723 184.386C18.0518 184.386 17.5181 183.955 17.4574 183.364H16.6903C16.7383 184.361 17.598 185.089 18.723 185.089ZM28.4813 180.091H27.727V182.581C27.3627 182.686 26.9887 182.75 26.5381 182.75C25.9244 182.75 25.4514 182.405 25.4514 181.651V180.078H24.6972V181.651C24.6972 182.852 25.4259 183.453 26.5381 183.453C27.0015 183.453 27.3722 183.392 27.727 183.287V185H28.4813V180.091ZM30.4149 185.051C30.7313 185.051 30.9901 184.792 30.9901 184.476C30.9901 184.159 30.7313 183.901 30.4149 183.901C30.0985 183.901 29.8396 184.159 29.8396 184.476C29.8396 184.792 30.0985 185.051 30.4149 185.051Z" fill="#334669"/>
<path opacity="0.5" d="M18.9787 116.455H18.1861L16.5497 117.541V118.347L18.1477 117.286H18.1861V123H18.9787V116.455ZM23.0728 123.089C24.3416 123.089 25.2844 122.294 25.2844 121.223C25.2844 120.392 24.7923 119.788 23.9677 119.651V119.599C24.6293 119.398 25.0415 118.855 25.0415 118.116C25.0415 117.19 24.3097 116.365 23.0984 116.365C21.967 116.365 21.0273 117.062 20.989 118.091H21.756C21.7848 117.439 22.4048 117.055 23.0856 117.055C23.8079 117.055 24.2745 117.493 24.2745 118.155C24.2745 118.845 23.7344 119.293 22.9577 119.293H22.4336V119.996H22.9577C23.9517 119.996 24.5046 120.501 24.5046 121.223C24.5046 121.917 23.9006 122.386 23.06 122.386C22.3026 122.386 21.7017 121.996 21.6538 121.364H20.8484C20.8963 122.393 21.804 123.089 23.0728 123.089ZM32.9197 118.091H32.1655V120.581C31.8011 120.686 31.4272 120.75 30.9766 120.75C30.3629 120.75 29.8899 120.405 29.8899 119.651V118.078H29.1357V119.651C29.1357 120.852 29.8643 121.453 30.9766 121.453C31.44 121.453 31.8107 121.392 32.1655 121.287V123H32.9197V118.091ZM34.8533 123.051C35.1697 123.051 35.4286 122.792 35.4286 122.476C35.4286 122.159 35.1697 121.901 34.8533 121.901C34.5369 121.901 34.2781 122.159 34.2781 122.476C34.2781 122.792 34.5369 123.051 34.8533 123.051Z" fill="#334669"/>
<path opacity="0.5" d="M18.7614 147.352C17.4318 147.339 16.5753 148.337 16.5753 149.551C16.5753 150.817 17.5085 151.724 18.6335 151.724C19.3111 151.724 19.8864 151.392 20.2443 150.855H20.2955C20.2955 152.466 19.669 153.386 18.6591 153.386C17.9688 153.386 17.5469 152.952 17.4062 152.351H16.6264C16.7798 153.386 17.5597 154.089 18.6591 154.089C20.1293 154.089 21.0369 152.786 21.0369 150.459C21.0369 148.043 19.8352 147.365 18.7614 147.352ZM18.7614 148.055C19.5795 148.055 20.1804 148.759 20.1804 149.538C20.1804 150.318 19.5412 151.021 18.7358 151.021C17.9304 151.021 17.3423 150.369 17.3423 149.551C17.3423 148.72 17.956 148.055 18.7614 148.055ZM28.6219 149.091H27.8676V151.581C27.5033 151.686 27.1294 151.75 26.6787 151.75C26.0651 151.75 25.5921 151.405 25.5921 150.651V149.078H24.8378V150.651C24.8378 151.852 25.5665 152.453 26.6787 152.453C27.1421 152.453 27.5129 152.392 27.8676 152.287V154H28.6219V149.091ZM30.5555 154.051C30.8719 154.051 31.1308 153.792 31.1308 153.476C31.1308 153.159 30.8719 152.901 30.5555 152.901C30.2391 152.901 29.9802 153.159 29.9802 153.476C29.9802 153.792 30.2391 154.051 30.5555 154.051Z" fill="#334669"/>
<path opacity="0.5" d="M18.9787 85.4545H18.1861L16.5497 86.5412V87.3466L18.1477 86.2855H18.1861V92H18.9787V85.4545ZM21.0657 92H21.8967L24.8114 86.196V85.4545H20.6183V86.1577H23.9933V86.2088L21.0657 92ZM32.3309 87.0909H31.5766V89.5806C31.2123 89.6861 30.8383 89.75 30.3877 89.75C29.7741 89.75 29.301 89.4048 29.301 88.6506V87.0781H28.5468V88.6506C28.5468 89.8523 29.2755 90.4531 30.3877 90.4531C30.8511 90.4531 31.2219 90.3924 31.5766 90.2869V92H32.3309V87.0909ZM34.2645 92.0511C34.5809 92.0511 34.8398 91.7923 34.8398 91.4759C34.8398 91.1594 34.5809 90.9006 34.2645 90.9006C33.9481 90.9006 33.6892 91.1594 33.6892 91.4759C33.6892 91.7923 33.9481 92.0511 34.2645 92.0511Z" fill="#334669"/>
<path opacity="0.5" d="M95.6095 240H97.9746C99.5214 240 100.161 239.246 100.161 238.261C100.161 237.226 99.4447 236.663 98.8439 236.625V236.561C99.4064 236.408 99.905 236.037 99.905 235.193C99.905 234.234 99.2658 233.455 97.8979 233.455H95.6095V240ZM96.4021 239.297V237.021H98.0129C98.8695 237.021 99.4064 237.597 99.4064 238.261C99.4064 238.837 99.0101 239.297 97.9746 239.297H96.4021ZM96.4021 236.331V234.158H97.8979C98.7672 234.158 99.1507 234.618 99.1507 235.193C99.1507 235.884 98.5882 236.331 97.8723 236.331H96.4021ZM101.08 235.794H102.703V240H103.457V235.794H105.068V235.091H101.08V235.794ZM106.476 239.105H105.658L105.619 239.463C105.527 240.329 105.345 241.192 105.261 241.598H105.837C105.99 241.163 106.316 240.179 106.425 239.45L106.476 239.105ZM87.0174 251H91.1467V250.297H88.104V250.246L89.5742 248.673C90.6992 247.468 91.0316 246.906 91.0316 246.18C91.0316 245.17 90.2134 244.365 89.0629 244.365C87.9155 244.365 87.043 245.145 87.043 246.295H87.7972C87.7972 245.551 88.2798 245.055 89.0373 245.055C89.7468 245.055 90.2901 245.49 90.2901 246.18C90.2901 246.784 89.9354 247.232 89.1779 248.06L87.0174 250.425V251ZM94.5632 251.089C95.8704 251.089 96.7812 250.326 96.7876 249.261C96.7812 248.434 96.2283 247.73 95.522 247.599V247.561C96.1357 247.401 96.5384 246.8 96.5447 246.104C96.5384 245.107 95.701 244.365 94.5632 244.365C93.4126 244.365 92.5753 245.107 92.5817 246.104C92.5753 246.8 92.978 247.401 93.6044 247.561V247.599C92.8853 247.73 92.3324 248.434 92.3388 249.261C92.3324 250.326 93.2433 251.089 94.5632 251.089ZM94.5632 250.386C93.6651 250.386 93.1122 249.926 93.1186 249.223C93.1122 248.485 93.7227 247.957 94.5632 247.957C95.391 247.957 96.0014 248.485 96.0078 249.223C96.0014 249.926 95.4485 250.386 94.5632 250.386ZM94.5632 247.28C93.8473 247.28 93.3423 246.832 93.3487 246.155C93.3423 245.49 93.8281 245.055 94.5632 245.055C95.2855 245.055 95.7713 245.49 95.7777 246.155C95.7713 246.832 95.2663 247.28 94.5632 247.28ZM102.001 251.115C102.858 251.115 103.305 250.655 103.459 250.335H103.497V251H104.251V247.766C104.251 246.206 103.062 246.027 102.436 246.027C101.694 246.027 100.851 246.283 100.467 247.178L101.183 247.433C101.349 247.075 101.742 246.692 102.461 246.692C103.155 246.692 103.497 247.059 103.497 247.689V247.714C103.497 248.079 103.126 248.047 102.231 248.162C101.32 248.28 100.326 248.482 100.326 249.607C100.326 250.565 101.068 251.115 102.001 251.115ZM102.116 250.438C101.515 250.438 101.081 250.169 101.081 249.645C101.081 249.07 101.605 248.891 102.193 248.814C102.513 248.776 103.369 248.686 103.497 248.533V249.223C103.497 249.837 103.011 250.438 102.116 250.438ZM105.628 251H106.382V246.794H108.734V251H109.489V246.091H105.628V251ZM110.866 252.841H111.62V250.246H111.684C111.85 250.514 112.17 251.102 113.116 251.102C114.343 251.102 115.2 250.118 115.2 248.558C115.2 247.011 114.343 246.027 113.103 246.027C112.145 246.027 111.85 246.615 111.684 246.871H111.595V246.091H110.866V252.841ZM111.608 248.545C111.608 247.446 112.093 246.705 113.014 246.705C113.973 246.705 114.446 247.51 114.446 248.545C114.446 249.594 113.96 250.425 113.014 250.425C112.106 250.425 111.608 249.658 111.608 248.545Z" fill="#334669"/>
<path opacity="0.5" d="M147.782 235.5C147.539 234.158 146.466 233.365 145.149 233.365C143.474 233.365 142.26 234.656 142.26 236.727C142.26 238.798 143.474 240.089 145.149 240.089C146.466 240.089 147.539 239.297 147.782 237.955H146.99C146.798 238.862 146.018 239.348 145.149 239.348C143.96 239.348 143.027 238.428 143.027 236.727C143.027 235.027 143.96 234.107 145.149 234.107C146.018 234.107 146.798 234.592 146.99 235.5H147.782ZM148.961 241.841H149.715V239.246H149.779C149.945 239.514 150.265 240.102 151.211 240.102C152.438 240.102 153.295 239.118 153.295 237.558C153.295 236.011 152.438 235.027 151.198 235.027C150.239 235.027 149.945 235.615 149.779 235.871H149.69V235.091H148.961V241.841ZM149.702 237.545C149.702 236.446 150.188 235.705 151.109 235.705C152.067 235.705 152.54 236.51 152.54 237.545C152.54 238.594 152.055 239.425 151.109 239.425C150.201 239.425 149.702 238.658 149.702 237.545ZM155.57 239.105H154.752L154.714 239.463C154.621 240.329 154.439 241.192 154.356 241.598H154.931C155.084 241.163 155.41 240.179 155.519 239.45L155.57 239.105ZM134.982 251H139.112V250.297H136.069V250.246L137.539 248.673C138.664 247.468 138.996 246.906 138.996 246.18C138.996 245.17 138.178 244.365 137.028 244.365C135.88 244.365 135.008 245.145 135.008 246.295H135.762C135.762 245.551 136.245 245.055 137.002 245.055C137.712 245.055 138.255 245.49 138.255 246.18C138.255 246.784 137.9 247.232 137.143 248.06L134.982 250.425V251ZM142.515 244.352C141.186 244.339 140.329 245.337 140.329 246.551C140.329 247.817 141.262 248.724 142.387 248.724C143.065 248.724 143.64 248.392 143.998 247.855H144.049C144.049 249.466 143.423 250.386 142.413 250.386C141.723 250.386 141.301 249.952 141.16 249.351H140.38C140.534 250.386 141.314 251.089 142.413 251.089C143.883 251.089 144.791 249.786 144.791 247.459C144.791 245.043 143.589 244.365 142.515 244.352ZM142.515 245.055C143.333 245.055 143.934 245.759 143.934 246.538C143.934 247.318 143.295 248.021 142.49 248.021C141.684 248.021 141.096 247.369 141.096 246.551C141.096 245.72 141.71 245.055 142.515 245.055ZM150.036 251.115C150.893 251.115 151.34 250.655 151.494 250.335H151.532V251H152.286V247.766C152.286 246.206 151.097 246.027 150.471 246.027C149.729 246.027 148.886 246.283 148.502 247.178L149.218 247.433C149.384 247.075 149.777 246.692 150.497 246.692C151.19 246.692 151.532 247.059 151.532 247.689V247.714C151.532 248.079 151.161 248.047 150.266 248.162C149.356 248.28 148.362 248.482 148.362 249.607C148.362 250.565 149.103 251.115 150.036 251.115ZM150.151 250.438C149.551 250.438 149.116 250.169 149.116 249.645C149.116 249.07 149.64 248.891 150.228 248.814C150.548 248.776 151.404 248.686 151.532 248.533V249.223C151.532 249.837 151.046 250.438 150.151 250.438ZM153.663 251H154.417V246.794H156.77V251H157.524V246.091H153.663V251ZM158.901 252.841H159.656V250.246H159.719C159.886 250.514 160.205 251.102 161.151 251.102C162.379 251.102 163.235 250.118 163.235 248.558C163.235 247.011 162.379 246.027 161.138 246.027C160.18 246.027 159.886 246.615 159.719 246.871H159.63V246.091H158.901V252.841ZM159.643 248.545C159.643 247.446 160.129 246.705 161.049 246.705C162.008 246.705 162.481 247.51 162.481 248.545C162.481 249.594 161.995 250.425 161.049 250.425C160.141 250.425 159.643 249.658 159.643 248.545Z" fill="#334669"/>
<path opacity="0.5" d="M191.383 233.455V235.641C191.383 237.085 192.202 237.622 193.557 237.622C194.349 237.622 194.838 237.52 195.372 237.36V240H196.165V233.455H195.372V236.641C194.813 236.804 194.218 236.906 193.557 236.906C192.713 236.906 192.176 236.612 192.176 235.641V233.455H191.383ZM197.37 235.794H198.993V240H199.747V235.794H201.358V235.091H197.37V235.794ZM202.766 239.105H201.948L201.909 239.463C201.817 240.329 201.635 241.192 201.552 241.598H202.127C202.28 241.163 202.606 240.179 202.715 239.45L202.766 239.105ZM185.049 251.089C186.318 251.089 187.261 250.294 187.261 249.223C187.261 248.392 186.768 247.788 185.944 247.651V247.599C186.605 247.398 187.018 246.855 187.018 246.116C187.018 245.19 186.286 244.365 185.074 244.365C183.943 244.365 183.003 245.062 182.965 246.091H183.732C183.761 245.439 184.381 245.055 185.062 245.055C185.784 245.055 186.251 245.493 186.251 246.155C186.251 246.845 185.71 247.293 184.934 247.293H184.41V247.996H184.934C185.928 247.996 186.481 248.501 186.481 249.223C186.481 249.917 185.877 250.386 185.036 250.386C184.279 250.386 183.678 249.996 183.63 249.364H182.824C182.872 250.393 183.78 251.089 185.049 251.089ZM190.703 251.089C192.147 251.089 192.978 249.865 192.978 247.727C192.978 245.605 192.134 244.365 190.703 244.365C189.271 244.365 188.427 245.605 188.427 247.727C188.427 249.865 189.258 251.089 190.703 251.089ZM190.703 250.386C189.75 250.386 189.194 249.431 189.194 247.727C189.194 246.027 189.757 245.055 190.703 245.055C191.649 245.055 192.211 246.027 192.211 247.727C192.211 249.431 191.655 250.386 190.703 250.386ZM198.181 251.115C199.038 251.115 199.485 250.655 199.639 250.335H199.677V251H200.431V247.766C200.431 246.206 199.242 246.027 198.616 246.027C197.875 246.027 197.031 246.283 196.647 247.178L197.363 247.433C197.529 247.075 197.922 246.692 198.642 246.692C199.335 246.692 199.677 247.059 199.677 247.689V247.714C199.677 248.079 199.306 248.047 198.411 248.162C197.501 248.28 196.507 248.482 196.507 249.607C196.507 250.565 197.248 251.115 198.181 251.115ZM198.296 250.438C197.696 250.438 197.261 250.169 197.261 249.645C197.261 249.07 197.785 248.891 198.373 248.814C198.693 248.776 199.549 248.686 199.677 248.533V249.223C199.677 249.837 199.191 250.438 198.296 250.438ZM201.808 251H202.562V246.794H204.915V251H205.669V246.091H201.808V251ZM207.046 252.841H207.801V250.246H207.864C208.031 250.514 208.35 251.102 209.296 251.102C210.524 251.102 211.38 250.118 211.38 248.558C211.38 247.011 210.524 246.027 209.284 246.027C208.325 246.027 208.031 246.615 207.864 246.871H207.775V246.091H207.046V252.841ZM207.788 248.545C207.788 247.446 208.274 246.705 209.194 246.705C210.153 246.705 210.626 247.51 210.626 248.545C210.626 249.594 210.14 250.425 209.194 250.425C208.286 250.425 207.788 249.658 207.788 248.545Z" fill="#334669"/>
<path opacity="0.5" d="M241.185 233.455H236.301V240H237.094V234.158H240.392V240H241.185V233.455ZM242.4 235.794H244.024V240H244.778V235.794H246.389V235.091H242.4V235.794ZM247.797 239.105H246.979L246.94 239.463C246.848 240.329 246.665 241.192 246.582 241.598H247.158C247.311 241.163 247.637 240.179 247.746 239.45L247.797 239.105ZM233.184 244.455H232.391L230.755 245.541V246.347L232.353 245.286H232.391V251H233.184V244.455ZM240.295 249.977L238.607 246.091H237.61V251H238.365V247.174L239.988 251H240.602L242.225 247.245V251H242.98V246.091H242.008L240.295 249.977ZM245.805 251.115C246.661 251.115 247.109 250.655 247.262 250.335H247.301V251H248.055V247.766C248.055 246.206 246.866 246.027 246.24 246.027C245.498 246.027 244.654 246.283 244.271 247.178L244.987 247.433C245.153 247.075 245.546 246.692 246.265 246.692C246.959 246.692 247.301 247.059 247.301 247.689V247.714C247.301 248.079 246.93 248.047 246.035 248.162C245.124 248.28 244.13 248.482 244.13 249.607C244.13 250.565 244.872 251.115 245.805 251.115ZM245.92 250.438C245.319 250.438 244.884 250.169 244.884 249.645C244.884 249.07 245.409 248.891 245.997 248.814C246.316 248.776 247.173 248.686 247.301 248.533V249.223C247.301 249.837 246.815 250.438 245.92 250.438ZM252.385 251H253.101V246.091H251.081C250.023 246.091 249.38 246.644 249.38 247.548C249.38 248.223 249.719 248.702 250.31 248.903L249.112 251H249.93L251.068 249.006H252.385V251ZM252.385 248.303H250.991C250.457 248.303 250.135 248.018 250.135 247.548C250.135 247.072 250.493 246.781 251.081 246.781H252.385V248.303Z" fill="#334669"/>
<path opacity="0.5" d="M283.37 235.5C283.127 234.158 282.053 233.365 280.737 233.365C279.062 233.365 277.847 234.656 277.847 236.727C277.847 238.798 279.062 240.089 280.737 240.089C282.053 240.089 283.127 239.297 283.37 237.955H282.578C282.386 238.862 281.606 239.348 280.737 239.348C279.548 239.348 278.615 238.428 278.615 236.727C278.615 235.027 279.548 234.107 280.737 234.107C281.606 234.107 282.386 234.592 282.578 235.5H283.37ZM288.192 233.25C287.953 233.451 287.595 233.451 287.093 233.448C286.93 233.448 286.751 233.448 286.556 233.455C285.06 233.493 284.319 234.631 284.319 236.817V237.341C284.319 239.156 285.201 240.102 286.517 240.102C287.831 240.102 288.704 239.15 288.704 237.609C288.704 236.062 287.818 235.244 286.671 235.244C285.997 235.244 285.367 235.526 285.035 236.139H284.971C285.073 234.874 285.546 234.196 286.569 234.158C287.476 234.119 288.128 234.145 288.576 233.71L288.192 233.25ZM286.517 239.425C285.623 239.425 285.073 238.709 285.073 237.609C285.089 236.536 285.629 235.922 286.505 235.922C287.403 235.922 287.949 236.536 287.949 237.609C287.949 238.715 287.406 239.425 286.517 239.425ZM290.982 239.105H290.164L290.126 239.463C290.033 240.329 289.851 241.192 289.768 241.598H290.343C290.497 241.163 290.823 240.179 290.931 239.45L290.982 239.105ZM272.75 251H276.879V250.297H273.836V250.246L275.307 248.673C276.432 247.468 276.764 246.906 276.764 246.18C276.764 245.17 275.946 244.365 274.795 244.365C273.648 244.365 272.775 245.145 272.775 246.295H273.53C273.53 245.551 274.012 245.055 274.77 245.055C275.479 245.055 276.023 245.49 276.023 246.18C276.023 246.784 275.668 247.232 274.91 248.06L272.75 250.425V251ZM283.428 249.977L281.74 246.091H280.743V251H281.497V247.174L283.121 251H283.735L285.358 247.245V251H286.112V246.091H285.141L283.428 249.977ZM288.938 251.115C289.794 251.115 290.242 250.655 290.395 250.335H290.433V251H291.188V247.766C291.188 246.206 289.999 246.027 289.372 246.027C288.631 246.027 287.787 246.283 287.404 247.178L288.119 247.433C288.286 247.075 288.679 246.692 289.398 246.692C290.091 246.692 290.433 247.059 290.433 247.689V247.714C290.433 248.079 290.063 248.047 289.168 248.162C288.257 248.28 287.263 248.482 287.263 249.607C287.263 250.565 288.004 251.115 288.938 251.115ZM289.053 250.438C288.452 250.438 288.017 250.169 288.017 249.645C288.017 249.07 288.541 248.891 289.129 248.814C289.449 248.776 290.306 248.686 290.433 248.533V249.223C290.433 249.837 289.948 250.438 289.053 250.438ZM295.517 251H296.233V246.091H294.214C293.156 246.091 292.513 246.644 292.513 247.548C292.513 248.223 292.852 248.702 293.443 248.903L292.245 251H293.063L294.201 249.006H295.517V251ZM295.517 248.303H294.124C293.59 248.303 293.267 248.018 293.267 247.548C293.267 247.072 293.625 246.781 294.214 246.781H295.517V248.303Z" fill="#334669"/>
<path opacity="0.5" d="M321.591 240H323.956C325.503 240 326.142 239.246 326.142 238.261C326.142 237.226 325.426 236.663 324.825 236.625V236.561C325.388 236.408 325.886 236.037 325.886 235.193C325.886 234.234 325.247 233.455 323.879 233.455H321.591V240ZM322.384 239.297V237.021H323.994C324.851 237.021 325.388 237.597 325.388 238.261C325.388 238.837 324.992 239.297 323.956 239.297H322.384ZM322.384 236.331V234.158H323.879C324.749 234.158 325.132 234.618 325.132 235.193C325.132 235.884 324.57 236.331 323.854 236.331H322.384ZM329.337 240.102C330.423 240.102 331.139 239.438 331.267 238.568H330.513C330.372 239.105 329.925 239.425 329.337 239.425C328.442 239.425 327.866 238.683 327.866 237.545C327.866 236.433 328.454 235.705 329.337 235.705C330.001 235.705 330.398 236.114 330.513 236.561H331.267C331.139 235.641 330.359 235.027 329.324 235.027C327.994 235.027 327.112 236.075 327.112 237.571C327.112 239.041 327.956 240.102 329.337 240.102ZM333.495 239.105H332.676L332.638 239.463C332.545 240.329 332.363 241.192 332.28 241.598H332.855C333.009 241.163 333.335 240.179 333.443 239.45L333.495 239.105ZM315.75 251H319.879V250.297H316.836V250.246L318.307 248.673C319.432 247.468 319.764 246.906 319.764 246.18C319.764 245.17 318.946 244.365 317.795 244.365C316.648 244.365 315.775 245.145 315.775 246.295H316.53C316.53 245.551 317.012 245.055 317.77 245.055C318.479 245.055 319.023 245.49 319.023 246.18C319.023 246.784 318.668 247.232 317.91 248.06L315.75 250.425V251ZM326.428 249.977L324.74 246.091H323.743V251H324.497V247.174L326.121 251H326.735L328.358 247.245V251H329.112V246.091H328.141L326.428 249.977ZM331.938 251.115C332.794 251.115 333.242 250.655 333.395 250.335H333.433V251H334.188V247.766C334.188 246.206 332.999 246.027 332.372 246.027C331.631 246.027 330.787 246.283 330.404 247.178L331.119 247.433C331.286 247.075 331.679 246.692 332.398 246.692C333.091 246.692 333.433 247.059 333.433 247.689V247.714C333.433 248.079 333.063 248.047 332.168 248.162C331.257 248.28 330.263 248.482 330.263 249.607C330.263 250.565 331.004 251.115 331.938 251.115ZM332.053 250.438C331.452 250.438 331.017 250.169 331.017 249.645C331.017 249.07 331.541 248.891 332.129 248.814C332.449 248.776 333.306 248.686 333.433 248.533V249.223C333.433 249.837 332.948 250.438 332.053 250.438ZM338.517 251H339.233V246.091H337.214C336.156 246.091 335.513 246.644 335.513 247.548C335.513 248.223 335.852 248.702 336.443 248.903L335.245 251H336.063L337.201 249.006H338.517V251ZM338.517 248.303H337.124C336.59 248.303 336.267 248.018 336.267 247.548C336.267 247.072 336.625 246.781 337.214 246.781H338.517V248.303Z" fill="#334669"/>
<g filter="url(#filter0_d)">
<path d="M50.5 153.5L103 138.5L148.5 118.5L191.5 127.5L240 123.5L282.5 115.5L326 127.5" stroke="url(#paint0_linear)" stroke-width="1.5"/>
</g>
<defs>
<filter id="filter0_d" x="42.2939" y="110.731" width="291.905" height="55.4903" filterUnits="userSpaceOnUse" color-interpolation-filters="sRGB">
<feFlood flood-opacity="0" result="BackgroundImageFix"/>
<feColorMatrix in="SourceAlpha" type="matrix" values="0 0 0 0 0 0 0 0 0 0 0 0 0 0 0 0 0 0 127 0"/>
<feOffset dy="4"/>
<feGaussianBlur stdDeviation="4"/>
<feColorMatrix type="matrix" values="0 0 0 0 0.941176 0 0 0 0 0.631373 0 0 0 0 0.623529 0 0 0 0.6 0"/>
<feBlend mode="normal" in2="BackgroundImageFix" result="effect1_dropShadow"/>
<feBlend mode="normal" in="SourceGraphic" in2="effect1_dropShadow" result="shape"/>
</filter>
<linearGradient id="paint0_linear" x1="539.39" y1="153.5" x2="486.527" y2="-31.308" gradientUnits="userSpaceOnUse">
<stop stop-color="#CD8A9A"/>
<stop offset="1" stop-color="#FEAAA0"/>
</linearGradient>
</defs>
</svg>
