<svg width="360" height="259" viewBox="0 0 360 259" fill="none" xmlns="http://www.w3.org/2000/svg">
<rect width="360" height="259" fill="white"/>
<path opacity="0.8" d="M16.6165 15.1406H19.7884V24H21.3196V15.1406H24.4964V13.8182H16.6165V15.1406ZM28.3022 24.1541C29.9677 24.1541 31.146 23.3338 31.484 22.0909L30.0771 21.8374C29.8086 22.5582 29.1623 22.9261 28.3171 22.9261C27.0444 22.9261 26.1893 22.1009 26.1495 20.6293H31.5785V20.1023C31.5785 17.343 29.9279 16.2642 28.1978 16.2642C26.07 16.2642 24.668 17.8849 24.668 20.2315C24.668 22.603 26.0501 24.1541 28.3022 24.1541ZM26.1545 19.5156C26.2141 18.4318 26.9996 17.4922 28.2077 17.4922C29.3612 17.4922 30.1168 18.3473 30.1218 19.5156H26.1545ZM37.5133 22.1605L35.0971 16.3636H33.2278V24H34.6845V18.4467L36.9615 24H38.0652L40.3819 18.4666V24H41.8287V16.3636H39.9792L37.5133 22.1605ZM43.8098 24H45.2566V17.6463H48.5826V24H50.0392V16.3636H43.8098V24ZM55.3178 24.1541C56.9833 24.1541 58.1616 23.3338 58.4996 22.0909L57.0927 21.8374C56.8242 22.5582 56.1779 22.9261 55.3327 22.9261C54.06 22.9261 53.2049 22.1009 53.1651 20.6293H58.5941V20.1023C58.5941 17.343 56.9435 16.2642 55.2134 16.2642C53.0856 16.2642 51.6836 17.8849 51.6836 20.2315C51.6836 22.603 53.0657 24.1541 55.3178 24.1541ZM53.1701 19.5156C53.2298 18.4318 54.0153 17.4922 55.2234 17.4922C56.3768 17.4922 57.1325 18.3473 57.1374 19.5156H53.1701ZM60.2434 26.8636H61.7299V22.8118H61.8194C62.0879 23.299 62.6348 24.1491 64.0268 24.1491C65.8762 24.1491 67.2186 22.6676 67.2186 20.1967C67.2186 17.7209 65.8564 16.2642 64.0119 16.2642C62.595 16.2642 62.0829 17.1293 61.8194 17.6016H61.6951V16.3636H60.2434V26.8636ZM61.7001 20.1818C61.7001 18.5859 62.3961 17.527 63.6937 17.527C65.041 17.527 65.7172 18.6655 65.7172 20.1818C65.7172 21.7131 65.0211 22.8814 63.6937 22.8814C62.416 22.8814 61.7001 21.7876 61.7001 20.1818ZM71.1064 24.169C72.3691 24.169 73.0801 23.5277 73.3635 22.956H73.4231V24H74.8748V18.929C74.8748 16.7067 73.1248 16.2642 71.9118 16.2642C70.5297 16.2642 69.2569 16.821 68.7598 18.2131L70.1568 18.5312C70.3755 17.9893 70.9324 17.4673 71.9316 17.4673C72.8912 17.4673 73.3833 17.9695 73.3833 18.8345V18.8693C73.3833 19.4112 72.8265 19.4013 71.4544 19.5604C70.0076 19.7294 68.5261 20.1072 68.5261 21.8423C68.5261 23.3438 69.6547 24.169 71.1064 24.169ZM71.4295 22.9759C70.5893 22.9759 69.9828 22.598 69.9828 21.8622C69.9828 21.0668 70.6887 20.7834 71.5488 20.669C72.0311 20.6044 73.1745 20.4751 73.3883 20.2614V21.2457C73.3883 22.1506 72.6674 22.9759 71.4295 22.9759ZM75.9077 17.6463H78.4084V24H79.8601V17.6463H82.3509V16.3636H75.9077V17.6463ZM84.8627 26.8438C86.0907 26.8438 86.8713 26.2024 87.3088 25.0192L90.4657 16.3786L88.8599 16.3636L86.926 22.2898H86.8464L84.9125 16.3636H83.3216L86.1156 24.0994L85.9316 24.6065C85.5538 25.5959 85.0218 25.6854 84.2065 25.4616L83.8485 26.6797C84.0275 26.7642 84.4153 26.8438 84.8627 26.8438ZM91.8665 26.8636H93.353V22.8118H93.4425C93.7109 23.299 94.2578 24.1491 95.6499 24.1491C97.4993 24.1491 98.8416 22.6676 98.8416 20.1967C98.8416 17.7209 97.4794 16.2642 95.6349 16.2642C94.218 16.2642 93.706 17.1293 93.4425 17.6016H93.3182V16.3636H91.8665V26.8636ZM93.3232 20.1818C93.3232 18.5859 94.0192 17.527 95.3168 17.527C96.6641 17.527 97.3402 18.6655 97.3402 20.1818C97.3402 21.7131 96.6442 22.8814 95.3168 22.8814C94.0391 22.8814 93.3232 21.7876 93.3232 20.1818ZM102.729 24.169C103.992 24.169 104.703 23.5277 104.987 22.956H105.046V24H106.498V18.929C106.498 16.7067 104.748 16.2642 103.535 16.2642C102.153 16.2642 100.88 16.821 100.383 18.2131L101.78 18.5312C101.999 17.9893 102.555 17.4673 103.555 17.4673C104.514 17.4673 105.006 17.9695 105.006 18.8345V18.8693C105.006 19.4112 104.45 19.4013 103.077 19.5604C101.631 19.7294 100.149 20.1072 100.149 21.8423C100.149 23.3438 101.278 24.169 102.729 24.169ZM103.053 22.9759C102.212 22.9759 101.606 22.598 101.606 21.8622C101.606 21.0668 102.312 20.7834 103.172 20.669C103.654 20.6044 104.798 20.4751 105.011 20.2614V21.2457C105.011 22.1506 104.29 22.9759 103.053 22.9759Z" fill="#334669"/>
<path opacity="0.5" d="M16.799 41H17.8963V37.8288H21.522V41H22.6229V33.7273H21.522V36.8878H17.8963V33.7273H16.799V41ZM26.4332 41.1101C27.9709 41.1101 28.9759 39.9844 28.9759 38.2976C28.9759 36.6001 27.9709 35.4744 26.4332 35.4744C24.8956 35.4744 23.8906 36.6001 23.8906 38.2976C23.8906 39.9844 24.8956 41.1101 26.4332 41.1101ZM26.4368 40.2188C25.4318 40.2188 24.9631 39.3416 24.9631 38.294C24.9631 37.25 25.4318 36.3622 26.4368 36.3622C27.4347 36.3622 27.9034 37.25 27.9034 38.294C27.9034 39.3416 27.4347 40.2188 26.4368 40.2188ZM30.161 43.0455H31.2228V40.1513H31.2868C31.4785 40.4993 31.8691 41.1065 32.8635 41.1065C34.1845 41.1065 35.1433 40.0483 35.1433 38.2834C35.1433 36.5149 34.1703 35.4744 32.8528 35.4744C31.8407 35.4744 31.475 36.0923 31.2868 36.4297H31.198V35.5455H30.161V43.0455ZM31.2015 38.2727C31.2015 37.1328 31.6987 36.3764 32.6255 36.3764C33.5879 36.3764 34.0708 37.1896 34.0708 38.2727C34.0708 39.3665 33.5737 40.201 32.6255 40.201C31.7129 40.201 31.2015 39.4197 31.2015 38.2727ZM39.394 39.6861L37.6681 35.5455H36.3329V41H37.3734V37.0334L38.9998 41H39.7882L41.443 37.0476V41H42.4764V35.5455H41.1554L39.394 39.6861ZM45.4789 41.1207C46.3809 41.1207 46.8887 40.6626 47.0911 40.2543H47.1337V41H48.1706V37.3778C48.1706 35.7905 46.9206 35.4744 46.0542 35.4744C45.0669 35.4744 44.1578 35.8722 43.8027 36.8665L44.8006 37.0938C44.9569 36.7067 45.3546 36.3338 46.0684 36.3338C46.7537 36.3338 47.1053 36.6925 47.1053 37.3104V37.3352C47.1053 37.7223 46.7076 37.7152 45.7275 37.8288C44.6941 37.9496 43.6358 38.2195 43.6358 39.4588C43.6358 40.5312 44.4419 41.1207 45.4789 41.1207ZM45.7097 40.2685C45.1096 40.2685 44.6763 39.9986 44.6763 39.473C44.6763 38.9048 45.1806 38.7024 45.7949 38.6207C46.1394 38.5746 46.9561 38.4822 47.1088 38.3295V39.0327C47.1088 39.679 46.5939 40.2685 45.7097 40.2685ZM50.2844 37.0973C50.6715 37.0973 50.9947 36.7812 50.9947 36.3871C50.9947 36 50.6715 35.6804 50.2844 35.6804C49.8938 35.6804 49.5742 36 49.5742 36.3871C49.5742 36.7812 49.8938 37.0973 50.2844 37.0973ZM50.2844 41.0675C50.6715 41.0675 50.9947 40.7514 50.9947 40.3572C50.9947 39.9702 50.6715 39.6506 50.2844 39.6506C49.8938 39.6506 49.5742 39.9702 49.5742 40.3572C49.5742 40.7514 49.8938 41.0675 50.2844 41.0675Z" fill="#334669"/>
<line x1="40" y1="212.5" x2="348" y2="212.5" stroke="#D3D8DD" stroke-miterlimit="16" stroke-dasharray="8 8"/>
<line x1="40" y1="166.5" x2="348" y2="166.5" stroke="#D3D8DD" stroke-miterlimit="16" stroke-dasharray="8 8"/>
<line x1="40" y1="120.5" x2="348" y2="120.5" stroke="#D3D8DD" stroke-miterlimit="16" stroke-dasharray="8 8"/>
<line x1="40" y1="88.5" x2="348" y2="88.5" stroke="#D3D8DD" stroke-miterlimit="16" stroke-dasharray="8 8"/>
<path opacity="0.5" d="M60.2315 41.0994C61.7159 41.0994 62.8061 40.2116 62.8026 39.0043C62.8061 38.0845 62.2486 37.424 61.2827 37.2749V37.218C62.0426 37.0227 62.5362 36.4261 62.5327 35.6094C62.5362 34.5405 61.6591 33.6278 60.2599 33.6278C58.9247 33.6278 57.8523 34.4339 57.8168 35.6165H58.8786C58.9034 34.9489 59.532 34.544 60.2457 34.544C60.9879 34.544 61.4744 34.995 61.4709 35.6662C61.4744 36.3693 60.9098 36.831 60.1037 36.831H59.4893V37.7259H60.1037C61.1122 37.7259 61.6946 38.2372 61.6946 38.9688C61.6946 39.6754 61.0803 40.1548 60.2244 40.1548C59.4361 40.1548 58.8217 39.75 58.7791 39.1037H57.6641C57.7102 40.2898 58.7614 41.0994 60.2315 41.0994ZM66.6839 41.0994C68.2038 41.1136 69.2124 40.0199 69.2088 38.6243C69.2124 37.2322 68.2003 36.2344 66.9396 36.2344C66.1726 36.2344 65.5085 36.6037 65.1357 37.218H65.0824C65.0859 35.549 65.7109 34.5724 66.7763 34.5724C67.4759 34.5724 67.9162 34.995 68.0653 35.6165H69.1484C68.9815 34.4482 68.076 33.6101 66.7763 33.6101C65.0859 33.6101 64.0312 35.0625 64.0312 37.6087C64.0312 40.2862 65.3913 41.0888 66.6839 41.0994ZM66.6804 40.1761C65.8352 40.1761 65.2173 39.4659 65.2173 38.6491C65.2209 37.8359 65.8672 37.1257 66.7053 37.1257C67.5362 37.1257 68.147 37.7969 68.1435 38.6385C68.147 39.4979 67.5114 40.1761 66.6804 40.1761ZM71.5561 40.0057H70.5334L70.4979 40.4034C70.4162 41.3658 70.1889 42.3352 70.093 42.7756H70.8459C71.0163 42.3104 71.3928 41.245 71.5028 40.3928L71.5561 40.0057ZM75.18 41.0994C76.6999 41.1136 77.7085 40.0199 77.7049 38.6243C77.7085 37.2322 76.6964 36.2344 75.4357 36.2344C74.6687 36.2344 74.0046 36.6037 73.6317 37.218H73.5785C73.582 35.549 74.207 34.5724 75.2724 34.5724C75.9719 34.5724 76.4123 34.995 76.5614 35.6165H77.6445C77.4776 34.4482 76.5721 33.6101 75.2724 33.6101C73.582 33.6101 72.5273 35.0625 72.5273 37.6087C72.5273 40.2862 73.8874 41.0888 75.18 41.0994ZM75.1765 40.1761C74.3313 40.1761 73.7134 39.4659 73.7134 38.6491C73.717 37.8359 74.3633 37.1257 75.2013 37.1257C76.0323 37.1257 76.6431 37.7969 76.6396 38.6385C76.6431 39.4979 76.0075 40.1761 75.1765 40.1761Z" fill="#334669"/>
<path opacity="0.5" d="M52.061 233.455H47.1775V240H47.9701V234.158H51.2684V240H52.061V233.455ZM54.3118 235.091H53.5575V240H54.3118V237.903H56.6641V240H57.4183V235.091H56.6641V237.2H54.3118V235.091ZM59.9208 239.105H59.1026L59.0643 239.463C58.9716 240.329 58.7894 241.192 58.7063 241.598H59.2816C59.435 241.163 59.761 240.179 59.8697 239.45L59.9208 239.105ZM39.7195 251H43.8488V250.297H40.8062V250.246L42.2764 248.673C43.4014 247.468 43.7338 246.906 43.7338 246.18C43.7338 245.17 42.9156 244.365 41.765 244.365C40.6176 244.365 39.7451 245.145 39.7451 246.295H40.4994C40.4994 245.551 40.982 245.055 41.7394 245.055C42.449 245.055 42.9923 245.49 42.9923 246.18C42.9923 246.784 42.6375 247.232 41.8801 248.06L39.7195 250.425V251ZM45.3733 251H46.2043L49.1191 245.196V244.455H44.9259V245.158H48.3009V245.209L45.3733 251ZM54.299 251.115C55.1555 251.115 55.603 250.655 55.7564 250.335H55.7947V251H56.549V247.766C56.549 246.206 55.3601 246.027 54.7337 246.027C53.9922 246.027 53.1484 246.283 52.7649 247.178L53.4808 247.433C53.647 247.075 54.0401 246.692 54.7592 246.692C55.4528 246.692 55.7947 247.059 55.7947 247.689V247.714C55.7947 248.079 55.424 248.047 54.5291 248.162C53.6183 248.28 52.6243 248.482 52.6243 249.607C52.6243 250.565 53.3658 251.115 54.299 251.115ZM54.4141 250.438C53.8132 250.438 53.3786 250.169 53.3786 249.645C53.3786 249.07 53.9027 248.891 54.4908 248.814C54.8104 248.776 55.6669 248.686 55.7947 248.533V249.223C55.7947 249.837 55.3089 250.438 54.4141 250.438ZM57.9257 251H58.68V246.794H61.0322V251H61.7865V246.091H57.9257V251ZM63.164 252.841H63.9182V250.246H63.9822C64.1483 250.514 64.468 251.102 65.414 251.102C66.6412 251.102 67.4978 250.118 67.4978 248.558C67.4978 247.011 66.6412 246.027 65.4012 246.027C64.4424 246.027 64.1483 246.615 63.9822 246.871H63.8927V246.091H63.164V252.841ZM63.9055 248.545C63.9055 247.446 64.3912 246.705 65.3117 246.705C66.2705 246.705 66.7435 247.51 66.7435 248.545C66.7435 249.594 66.2577 250.425 65.3117 250.425C64.404 250.425 63.9055 249.658 63.9055 248.545Z" fill="#334669"/>
<path opacity="0.5" d="M18.8892 215.089C20.158 215.089 21.1009 214.294 21.1009 213.223C21.1009 212.392 20.6087 211.788 19.7841 211.651V211.599C20.4457 211.398 20.858 210.855 20.858 210.116C20.858 209.19 20.1261 208.365 18.9148 208.365C17.7834 208.365 16.8438 209.062 16.8054 210.091H17.5724C17.6012 209.439 18.2212 209.055 18.902 209.055C19.6243 209.055 20.0909 209.493 20.0909 210.155C20.0909 210.845 19.5508 211.293 18.7741 211.293H18.25V211.996H18.7741C19.7681 211.996 20.321 212.501 20.321 213.223C20.321 213.917 19.717 214.386 18.8764 214.386C18.119 214.386 17.5181 213.996 17.4702 213.364H16.6648C16.7127 214.393 17.6204 215.089 18.8892 215.089ZM24.5813 215.089C25.9045 215.105 26.7674 214.108 26.7674 212.891C26.7674 211.625 25.831 210.717 24.7092 210.717C24.0348 210.717 23.4563 211.047 23.0984 211.587H23.0472C23.0504 209.979 23.6705 209.055 24.6836 209.055C25.3739 209.055 25.7894 209.49 25.9364 210.091H26.7163C26.5565 209.062 25.783 208.352 24.6836 208.352C23.2102 208.352 22.3058 209.656 22.3058 211.983C22.3058 214.402 23.5075 215.077 24.5813 215.089ZM24.5813 214.386C23.7599 214.386 23.1591 213.686 23.1623 212.903C23.1655 212.12 23.7951 211.42 24.6069 211.42C25.4091 211.42 26.0004 212.079 26.0004 212.891C26.0004 213.722 25.3835 214.386 24.5813 214.386ZM28.8544 214.105H28.0362L27.9979 214.463C27.9052 215.329 27.723 216.192 27.6399 216.598H28.2152C28.3686 216.163 28.6946 215.179 28.8033 214.45L28.8544 214.105ZM30.0857 213.658H33.1666V215H33.9209V213.658H34.8158V212.955H33.9209V208.455H32.9621L30.0857 213.006V213.658ZM33.1666 212.955H30.9422V212.903L33.1155 209.464H33.1666V212.955Z" fill="#334669"/>
<path opacity="0.5" d="M18.8892 194.089C20.158 194.089 21.1009 193.294 21.1009 192.223C21.1009 191.392 20.6087 190.788 19.7841 190.651V190.599C20.4457 190.398 20.858 189.855 20.858 189.116C20.858 188.19 20.1261 187.365 18.9148 187.365C17.7834 187.365 16.8438 188.062 16.8054 189.091H17.5724C17.6012 188.439 18.2212 188.055 18.902 188.055C19.6243 188.055 20.0909 188.493 20.0909 189.155C20.0909 189.845 19.5508 190.293 18.7741 190.293H18.25V190.996H18.7741C19.7681 190.996 20.321 191.501 20.321 192.223C20.321 192.917 19.717 193.386 18.8764 193.386C18.119 193.386 17.5181 192.996 17.4702 192.364H16.6648C16.7127 193.393 17.6204 194.089 18.8892 194.089ZM24.5813 194.089C25.9045 194.105 26.7674 193.108 26.7674 191.891C26.7674 190.625 25.831 189.717 24.7092 189.717C24.0348 189.717 23.4563 190.047 23.0984 190.587H23.0472C23.0504 188.979 23.6705 188.055 24.6836 188.055C25.3739 188.055 25.7894 188.49 25.9364 189.091H26.7163C26.5565 188.062 25.783 187.352 24.6836 187.352C23.2102 187.352 22.3058 188.656 22.3058 190.983C22.3058 193.402 23.5075 194.077 24.5813 194.089ZM24.5813 193.386C23.7599 193.386 23.1591 192.686 23.1623 191.903C23.1655 191.12 23.7951 190.42 24.6069 190.42C25.4091 190.42 26.0004 191.079 26.0004 191.891C26.0004 192.722 25.3835 193.386 24.5813 193.386ZM28.8544 193.105H28.0362L27.9979 193.463C27.9052 194.329 27.723 195.192 27.6399 195.598H28.2152C28.3686 195.163 28.6946 194.179 28.8033 193.45L28.8544 193.105ZM32.052 194.089C33.3752 194.105 34.2381 193.108 34.2381 191.891C34.2381 190.625 33.3017 189.717 32.1799 189.717C31.5055 189.717 30.927 190.047 30.5691 190.587H30.5179C30.5211 188.979 31.1412 188.055 32.1543 188.055C32.8446 188.055 33.2601 188.49 33.4071 189.091H34.187C34.0272 188.062 33.2537 187.352 32.1543 187.352C30.6809 187.352 29.7765 188.656 29.7765 190.983C29.7765 193.402 30.9782 194.077 32.052 194.089ZM32.052 193.386C31.2306 193.386 30.6298 192.686 30.633 191.903C30.6362 191.12 31.2658 190.42 32.0776 190.42C32.8798 190.42 33.4711 191.079 33.4711 191.891C33.4711 192.722 32.8542 193.386 32.052 193.386Z" fill="#334669"/>
<path opacity="0.5" d="M18.8892 152.089C20.158 152.089 21.1009 151.294 21.1009 150.223C21.1009 149.392 20.6087 148.788 19.7841 148.651V148.599C20.4457 148.398 20.858 147.855 20.858 147.116C20.858 146.19 20.1261 145.365 18.9148 145.365C17.7834 145.365 16.8438 146.062 16.8054 147.091H17.5724C17.6012 146.439 18.2212 146.055 18.902 146.055C19.6243 146.055 20.0909 146.493 20.0909 147.155C20.0909 147.845 19.5508 148.293 18.7741 148.293H18.25V148.996H18.7741C19.7681 148.996 20.321 149.501 20.321 150.223C20.321 150.917 19.717 151.386 18.8764 151.386C18.119 151.386 17.5181 150.996 17.4702 150.364H16.6648C16.7127 151.393 17.6204 152.089 18.8892 152.089ZM22.6126 152H23.4435L26.3583 146.196V145.455H22.1651V146.158H25.5401V146.209L22.6126 152ZM27.5624 151.105H26.7442L26.7059 151.463C26.6132 152.329 26.431 153.192 26.3479 153.598H26.9232C27.0766 153.163 27.4026 152.179 27.5113 151.45L27.5624 151.105ZM30.7217 152.089C32.1663 152.089 32.9972 150.865 32.9972 148.727C32.9972 146.605 32.1535 145.365 30.7217 145.365C29.2899 145.365 28.4461 146.605 28.4461 148.727C28.4461 150.865 29.2771 152.089 30.7217 152.089ZM30.7217 151.386C29.7693 151.386 29.2132 150.431 29.2132 148.727C29.2132 147.027 29.7757 146.055 30.7217 146.055C31.6677 146.055 32.2302 147.027 32.2302 148.727C32.2302 150.431 31.6741 151.386 30.7217 151.386Z" fill="#334669"/>
<path opacity="0.5" d="M18.8892 173.089C20.158 173.089 21.1009 172.294 21.1009 171.223C21.1009 170.392 20.6087 169.788 19.7841 169.651V169.599C20.4457 169.398 20.858 168.855 20.858 168.116C20.858 167.19 20.1261 166.365 18.9148 166.365C17.7834 166.365 16.8438 167.062 16.8054 168.091H17.5724C17.6012 167.439 18.2212 167.055 18.902 167.055C19.6243 167.055 20.0909 167.493 20.0909 168.155C20.0909 168.845 19.5508 169.293 18.7741 169.293H18.25V169.996H18.7741C19.7681 169.996 20.321 170.501 20.321 171.223C20.321 171.917 19.717 172.386 18.8764 172.386C18.119 172.386 17.5181 171.996 17.4702 171.364H16.6648C16.7127 172.393 17.6204 173.089 18.8892 173.089ZM24.5813 173.089C25.9045 173.105 26.7674 172.108 26.7674 170.891C26.7674 169.625 25.831 168.717 24.7092 168.717C24.0348 168.717 23.4563 169.047 23.0984 169.587H23.0472C23.0504 167.979 23.6705 167.055 24.6836 167.055C25.3739 167.055 25.7894 167.49 25.9364 168.091H26.7163C26.5565 167.062 25.783 166.352 24.6836 166.352C23.2102 166.352 22.3058 167.656 22.3058 169.983C22.3058 172.402 23.5075 173.077 24.5813 173.089ZM24.5813 172.386C23.7599 172.386 23.1591 171.686 23.1623 170.903C23.1655 170.12 23.7951 169.42 24.6069 169.42C25.4091 169.42 26.0004 170.079 26.0004 170.891C26.0004 171.722 25.3835 172.386 24.5813 172.386ZM28.8544 172.105H28.0362L27.9979 172.463C27.9052 173.329 27.723 174.192 27.6399 174.598H28.2152C28.3686 174.163 28.6946 173.179 28.8033 172.45L28.8544 172.105ZM32.0281 173.089C33.3352 173.089 34.2461 172.326 34.2525 171.261C34.2461 170.434 33.6932 169.73 32.9869 169.599V169.561C33.6005 169.401 34.0032 168.8 34.0096 168.104C34.0032 167.107 33.1658 166.365 32.0281 166.365C30.8775 166.365 30.0401 167.107 30.0465 168.104C30.0401 168.8 30.4428 169.401 31.0692 169.561V169.599C30.3501 169.73 29.7972 170.434 29.8036 171.261C29.7972 172.326 30.7081 173.089 32.0281 173.089ZM32.0281 172.386C31.13 172.386 30.5771 171.926 30.5835 171.223C30.5771 170.485 31.1875 169.957 32.0281 169.957C32.8558 169.957 33.4663 170.485 33.4727 171.223C33.4663 171.926 32.9134 172.386 32.0281 172.386ZM32.0281 169.28C31.3121 169.28 30.8072 168.832 30.8136 168.155C30.8072 167.49 31.293 167.055 32.0281 167.055C32.7504 167.055 33.2362 167.49 33.2425 168.155C33.2362 168.832 32.7312 169.28 32.0281 169.28Z" fill="#334669"/>
<path opacity="0.5" d="M18.8892 131.089C20.158 131.089 21.1009 130.294 21.1009 129.223C21.1009 128.392 20.6087 127.788 19.7841 127.651V127.599C20.4457 127.398 20.858 126.855 20.858 126.116C20.858 125.19 20.1261 124.365 18.9148 124.365C17.7834 124.365 16.8438 125.062 16.8054 126.091H17.5724C17.6012 125.439 18.2212 125.055 18.902 125.055C19.6243 125.055 20.0909 125.493 20.0909 126.155C20.0909 126.845 19.5508 127.293 18.7741 127.293H18.25V127.996H18.7741C19.7681 127.996 20.321 128.501 20.321 129.223C20.321 129.917 19.717 130.386 18.8764 130.386C18.119 130.386 17.5181 129.996 17.4702 129.364H16.6648C16.7127 130.393 17.6204 131.089 18.8892 131.089ZM22.6126 131H23.4435L26.3583 125.196V124.455H22.1651V125.158H25.5401V125.209L22.6126 131ZM27.5624 130.105H26.7442L26.7059 130.463C26.6132 131.329 26.431 132.192 26.3479 132.598H26.9232C27.0766 132.163 27.4026 131.179 27.5113 130.45L27.5624 130.105ZM28.9471 131H33.0763V130.297H30.0337V130.246L31.5039 128.673C32.6289 127.468 32.9613 126.906 32.9613 126.18C32.9613 125.17 32.1431 124.365 30.9925 124.365C29.8452 124.365 28.9727 125.145 28.9727 126.295H29.7269C29.7269 125.551 30.2095 125.055 30.967 125.055C31.6765 125.055 32.2198 125.49 32.2198 126.18C32.2198 126.784 31.8651 127.232 31.1076 128.06L28.9471 130.425V131Z" fill="#334669"/>
<path opacity="0.5" d="M18.8892 110.089C20.158 110.089 21.1009 109.294 21.1009 108.223C21.1009 107.392 20.6087 106.788 19.7841 106.651V106.599C20.4457 106.398 20.858 105.855 20.858 105.116C20.858 104.19 20.1261 103.365 18.9148 103.365C17.7834 103.365 16.8438 104.062 16.8054 105.091H17.5724C17.6012 104.439 18.2212 104.055 18.902 104.055C19.6243 104.055 20.0909 104.493 20.0909 105.155C20.0909 105.845 19.5508 106.293 18.7741 106.293H18.25V106.996H18.7741C19.7681 106.996 20.321 107.501 20.321 108.223C20.321 108.917 19.717 109.386 18.8764 109.386C18.119 109.386 17.5181 108.996 17.4702 108.364H16.6648C16.7127 109.393 17.6204 110.089 18.8892 110.089ZM22.6126 110H23.4435L26.3583 104.196V103.455H22.1651V104.158H25.5401V104.209L22.6126 110ZM27.5624 109.105H26.7442L26.7059 109.463C26.6132 110.329 26.431 111.192 26.3479 111.598H26.9232C27.0766 111.163 27.4026 110.179 27.5113 109.45L27.5624 109.105ZM28.7937 108.658H31.8746V110H32.6289V108.658H33.5238V107.955H32.6289V103.455H31.6701L28.7937 108.006V108.658ZM31.8746 107.955H29.6502V107.903L31.8235 104.464H31.8746V107.955Z" fill="#334669"/>
<path opacity="0.5" d="M18.8892 89.0895C20.158 89.0895 21.1009 88.2937 21.1009 87.223C21.1009 86.392 20.6087 85.788 19.7841 85.6506V85.5994C20.4457 85.3981 20.858 84.8548 20.858 84.1165C20.858 83.1896 20.1261 82.3651 18.9148 82.3651C17.7834 82.3651 16.8438 83.0618 16.8054 84.0909H17.5724C17.6012 83.4389 18.2212 83.0554 18.902 83.0554C19.6243 83.0554 20.0909 83.4933 20.0909 84.1548C20.0909 84.8452 19.5508 85.2926 18.7741 85.2926H18.25V85.9957H18.7741C19.7681 85.9957 20.321 86.5007 20.321 87.223C20.321 87.9165 19.717 88.3864 18.8764 88.3864C18.119 88.3864 17.5181 87.9964 17.4702 87.3636H16.6648C16.7127 88.3928 17.6204 89.0895 18.8892 89.0895ZM22.6126 89H23.4435L26.3583 83.196V82.4545H22.1651V83.1577H25.5401V83.2088L22.6126 89ZM27.5624 88.1051H26.7442L26.7059 88.4631C26.6132 89.3292 26.431 90.1921 26.3479 90.598H26.9232C27.0766 90.1634 27.4026 89.179 27.5113 88.4503L27.5624 88.1051ZM30.76 89.0895C32.0832 89.1055 32.9461 88.1083 32.9461 86.8906C32.9461 85.625 32.0097 84.7173 30.8879 84.7173C30.2135 84.7173 29.635 85.0465 29.2771 85.5866H29.2259C29.2291 83.979 29.8492 83.0554 30.8623 83.0554C31.5526 83.0554 31.9681 83.4901 32.1151 84.0909H32.895C32.7352 83.0618 31.9617 82.3523 30.8623 82.3523C29.3889 82.3523 28.4845 83.6562 28.4845 85.983C28.4845 88.4023 29.6862 89.0767 30.76 89.0895ZM30.76 88.3864C29.9387 88.3864 29.3378 87.6864 29.341 86.9034C29.3442 86.1204 29.9738 85.4205 30.7856 85.4205C31.5878 85.4205 32.1791 86.0788 32.1791 86.8906C32.1791 87.7216 31.5622 88.3864 30.76 88.3864Z" fill="#334669"/>
<path opacity="0.5" d="M18.8892 68.0895C20.158 68.0895 21.1009 67.2937 21.1009 66.223C21.1009 65.392 20.6087 64.788 19.7841 64.6506V64.5994C20.4457 64.3981 20.858 63.8548 20.858 63.1165C20.858 62.1896 20.1261 61.3651 18.9148 61.3651C17.7834 61.3651 16.8438 62.0618 16.8054 63.0909H17.5724C17.6012 62.4389 18.2212 62.0554 18.902 62.0554C19.6243 62.0554 20.0909 62.4933 20.0909 63.1548C20.0909 63.8452 19.5508 64.2926 18.7741 64.2926H18.25V64.9957H18.7741C19.7681 64.9957 20.321 65.5007 20.321 66.223C20.321 66.9165 19.717 67.3864 18.8764 67.3864C18.119 67.3864 17.5181 66.9964 17.4702 66.3636H16.6648C16.7127 67.3928 17.6204 68.0895 18.8892 68.0895ZM22.6126 68H23.4435L26.3583 62.196V61.4545H22.1651V62.1577H25.5401V62.2088L22.6126 68ZM27.5624 67.1051H26.7442L26.7059 67.4631C26.6132 68.3292 26.431 69.1921 26.3479 69.598H26.9232C27.0766 69.1634 27.4026 68.179 27.5113 67.4503L27.5624 67.1051ZM30.7361 68.0895C32.0432 68.0895 32.9541 67.3256 32.9605 66.2614C32.9541 65.4336 32.4012 64.7305 31.6949 64.5994V64.5611C32.3085 64.4013 32.7112 63.8004 32.7176 63.1037C32.7112 62.1065 31.8738 61.3651 30.7361 61.3651C29.5855 61.3651 28.7481 62.1065 28.7545 63.1037C28.7481 63.8004 29.1508 64.4013 29.7773 64.5611V64.5994C29.0581 64.7305 28.5052 65.4336 28.5116 66.2614C28.5052 67.3256 29.4161 68.0895 30.7361 68.0895ZM30.7361 67.3864C29.838 67.3864 29.2851 66.9261 29.2915 66.223C29.2851 65.4847 29.8955 64.9574 30.7361 64.9574C31.5638 64.9574 32.1743 65.4847 32.1807 66.223C32.1743 66.9261 31.6214 67.3864 30.7361 67.3864ZM30.7361 64.2798C30.0202 64.2798 29.5152 63.8324 29.5216 63.1548C29.5152 62.4901 30.001 62.0554 30.7361 62.0554C31.4584 62.0554 31.9442 62.4901 31.9506 63.1548C31.9442 63.8324 31.4392 64.2798 30.7361 64.2798Z" fill="#334669"/>
<path opacity="0.5" d="M95.6095 240H97.9746C99.5214 240 100.161 239.246 100.161 238.261C100.161 237.226 99.4447 236.663 98.8439 236.625V236.561C99.4064 236.408 99.905 236.037 99.905 235.193C99.905 234.234 99.2658 233.455 97.8979 233.455H95.6095V240ZM96.4021 239.297V237.021H98.0129C98.8695 237.021 99.4064 237.597 99.4064 238.261C99.4064 238.837 99.0101 239.297 97.9746 239.297H96.4021ZM96.4021 236.331V234.158H97.8979C98.7672 234.158 99.1507 234.618 99.1507 235.193C99.1507 235.884 98.5882 236.331 97.8723 236.331H96.4021ZM101.08 235.794H102.703V240H103.457V235.794H105.068V235.091H101.08V235.794ZM106.476 239.105H105.658L105.619 239.463C105.527 240.329 105.345 241.192 105.261 241.598H105.837C105.99 241.163 106.316 240.179 106.425 239.45L106.476 239.105ZM87.0174 251H91.1467V250.297H88.104V250.246L89.5742 248.673C90.6992 247.468 91.0316 246.906 91.0316 246.18C91.0316 245.17 90.2134 244.365 89.0629 244.365C87.9155 244.365 87.043 245.145 87.043 246.295H87.7972C87.7972 245.551 88.2798 245.055 89.0373 245.055C89.7468 245.055 90.2901 245.49 90.2901 246.18C90.2901 246.784 89.9354 247.232 89.1779 248.06L87.0174 250.425V251ZM94.5632 251.089C95.8704 251.089 96.7812 250.326 96.7876 249.261C96.7812 248.434 96.2283 247.73 95.522 247.599V247.561C96.1357 247.401 96.5384 246.8 96.5447 246.104C96.5384 245.107 95.701 244.365 94.5632 244.365C93.4126 244.365 92.5753 245.107 92.5817 246.104C92.5753 246.8 92.978 247.401 93.6044 247.561V247.599C92.8853 247.73 92.3324 248.434 92.3388 249.261C92.3324 250.326 93.2433 251.089 94.5632 251.089ZM94.5632 250.386C93.6651 250.386 93.1122 249.926 93.1186 249.223C93.1122 248.485 93.7227 247.957 94.5632 247.957C95.391 247.957 96.0014 248.485 96.0078 249.223C96.0014 249.926 95.4485 250.386 94.5632 250.386ZM94.5632 247.28C93.8473 247.28 93.3423 246.832 93.3487 246.155C93.3423 245.49 93.8281 245.055 94.5632 245.055C95.2855 245.055 95.7713 245.49 95.7777 246.155C95.7713 246.832 95.2663 247.28 94.5632 247.28ZM102.001 251.115C102.858 251.115 103.305 250.655 103.459 250.335H103.497V251H104.251V247.766C104.251 246.206 103.062 246.027 102.436 246.027C101.694 246.027 100.851 246.283 100.467 247.178L101.183 247.433C101.349 247.075 101.742 246.692 102.461 246.692C103.155 246.692 103.497 247.059 103.497 247.689V247.714C103.497 248.079 103.126 248.047 102.231 248.162C101.32 248.28 100.326 248.482 100.326 249.607C100.326 250.565 101.068 251.115 102.001 251.115ZM102.116 250.438C101.515 250.438 101.081 250.169 101.081 249.645C101.081 249.07 101.605 248.891 102.193 248.814C102.513 248.776 103.369 248.686 103.497 248.533V249.223C103.497 249.837 103.011 250.438 102.116 250.438ZM105.628 251H106.382V246.794H108.734V251H109.489V246.091H105.628V251ZM110.866 252.841H111.62V250.246H111.684C111.85 250.514 112.17 251.102 113.116 251.102C114.343 251.102 115.2 250.118 115.2 248.558C115.2 247.011 114.343 246.027 113.103 246.027C112.145 246.027 111.85 246.615 111.684 246.871H111.595V246.091H110.866V252.841ZM111.608 248.545C111.608 247.446 112.093 246.705 113.014 246.705C113.973 246.705 114.446 247.51 114.446 248.545C114.446 249.594 113.96 250.425 113.014 250.425C112.106 250.425 111.608 249.658 111.608 248.545Z" fill="#334669"/>
<path opacity="0.5" d="M147.782 235.5C147.539 234.158 146.466 233.365 145.149 233.365C143.474 233.365 142.26 234.656 142.26 236.727C142.26 238.798 143.474 240.089 145.149 240.089C146.466 240.089 147.539 239.297 147.782 237.955H146.99C146.798 238.862 146.018 239.348 145.149 239.348C143.96 239.348 143.027 238.428 143.027 236.727C143.027 235.027 143.96 234.107 145.149 234.107C146.018 234.107 146.798 234.592 146.99 235.5H147.782ZM148.961 241.841H149.715V239.246H149.779C149.945 239.514 150.265 240.102 151.211 240.102C152.438 240.102 153.295 239.118 153.295 237.558C153.295 236.011 152.438 235.027 151.198 235.027C150.239 235.027 149.945 235.615 149.779 235.871H149.69V235.091H148.961V241.841ZM149.702 237.545C149.702 236.446 150.188 235.705 151.109 235.705C152.067 235.705 152.54 236.51 152.54 237.545C152.54 238.594 152.055 239.425 151.109 239.425C150.201 239.425 149.702 238.658 149.702 237.545ZM155.57 239.105H154.752L154.714 239.463C154.621 240.329 154.439 241.192 154.356 241.598H154.931C155.084 241.163 155.41 240.179 155.519 239.45L155.57 239.105ZM134.982 251H139.112V250.297H136.069V250.246L137.539 248.673C138.664 247.468 138.996 246.906 138.996 246.18C138.996 245.17 138.178 244.365 137.028 244.365C135.88 244.365 135.008 245.145 135.008 246.295H135.762C135.762 245.551 136.245 245.055 137.002 245.055C137.712 245.055 138.255 245.49 138.255 246.18C138.255 246.784 137.9 247.232 137.143 248.06L134.982 250.425V251ZM142.515 244.352C141.186 244.339 140.329 245.337 140.329 246.551C140.329 247.817 141.262 248.724 142.387 248.724C143.065 248.724 143.64 248.392 143.998 247.855H144.049C144.049 249.466 143.423 250.386 142.413 250.386C141.723 250.386 141.301 249.952 141.16 249.351H140.38C140.534 250.386 141.314 251.089 142.413 251.089C143.883 251.089 144.791 249.786 144.791 247.459C144.791 245.043 143.589 244.365 142.515 244.352ZM142.515 245.055C143.333 245.055 143.934 245.759 143.934 246.538C143.934 247.318 143.295 248.021 142.49 248.021C141.684 248.021 141.096 247.369 141.096 246.551C141.096 245.72 141.71 245.055 142.515 245.055ZM150.036 251.115C150.893 251.115 151.34 250.655 151.494 250.335H151.532V251H152.286V247.766C152.286 246.206 151.097 246.027 150.471 246.027C149.729 246.027 148.886 246.283 148.502 247.178L149.218 247.433C149.384 247.075 149.777 246.692 150.497 246.692C151.19 246.692 151.532 247.059 151.532 247.689V247.714C151.532 248.079 151.161 248.047 150.266 248.162C149.356 248.28 148.362 248.482 148.362 249.607C148.362 250.565 149.103 251.115 150.036 251.115ZM150.151 250.438C149.551 250.438 149.116 250.169 149.116 249.645C149.116 249.07 149.64 248.891 150.228 248.814C150.548 248.776 151.404 248.686 151.532 248.533V249.223C151.532 249.837 151.046 250.438 150.151 250.438ZM153.663 251H154.417V246.794H156.77V251H157.524V246.091H153.663V251ZM158.901 252.841H159.656V250.246H159.719C159.886 250.514 160.205 251.102 161.151 251.102C162.379 251.102 163.235 250.118 163.235 248.558C163.235 247.011 162.379 246.027 161.138 246.027C160.18 246.027 159.886 246.615 159.719 246.871H159.63V246.091H158.901V252.841ZM159.643 248.545C159.643 247.446 160.129 246.705 161.049 246.705C162.008 246.705 162.481 247.51 162.481 248.545C162.481 249.594 161.995 250.425 161.049 250.425C160.141 250.425 159.643 249.658 159.643 248.545Z" fill="#334669"/>
<path opacity="0.5" d="M191.383 233.455V235.641C191.383 237.085 192.202 237.622 193.557 237.622C194.349 237.622 194.838 237.52 195.372 237.36V240H196.165V233.455H195.372V236.641C194.813 236.804 194.218 236.906 193.557 236.906C192.713 236.906 192.176 236.612 192.176 235.641V233.455H191.383ZM197.37 235.794H198.993V240H199.747V235.794H201.358V235.091H197.37V235.794ZM202.766 239.105H201.948L201.909 239.463C201.817 240.329 201.635 241.192 201.552 241.598H202.127C202.28 241.163 202.606 240.179 202.715 239.45L202.766 239.105ZM185.049 251.089C186.318 251.089 187.261 250.294 187.261 249.223C187.261 248.392 186.768 247.788 185.944 247.651V247.599C186.605 247.398 187.018 246.855 187.018 246.116C187.018 245.19 186.286 244.365 185.074 244.365C183.943 244.365 183.003 245.062 182.965 246.091H183.732C183.761 245.439 184.381 245.055 185.062 245.055C185.784 245.055 186.251 245.493 186.251 246.155C186.251 246.845 185.71 247.293 184.934 247.293H184.41V247.996H184.934C185.928 247.996 186.481 248.501 186.481 249.223C186.481 249.917 185.877 250.386 185.036 250.386C184.279 250.386 183.678 249.996 183.63 249.364H182.824C182.872 250.393 183.78 251.089 185.049 251.089ZM190.703 251.089C192.147 251.089 192.978 249.865 192.978 247.727C192.978 245.605 192.134 244.365 190.703 244.365C189.271 244.365 188.427 245.605 188.427 247.727C188.427 249.865 189.258 251.089 190.703 251.089ZM190.703 250.386C189.75 250.386 189.194 249.431 189.194 247.727C189.194 246.027 189.757 245.055 190.703 245.055C191.649 245.055 192.211 246.027 192.211 247.727C192.211 249.431 191.655 250.386 190.703 250.386ZM198.181 251.115C199.038 251.115 199.485 250.655 199.639 250.335H199.677V251H200.431V247.766C200.431 246.206 199.242 246.027 198.616 246.027C197.875 246.027 197.031 246.283 196.647 247.178L197.363 247.433C197.529 247.075 197.922 246.692 198.642 246.692C199.335 246.692 199.677 247.059 199.677 247.689V247.714C199.677 248.079 199.306 248.047 198.411 248.162C197.501 248.28 196.507 248.482 196.507 249.607C196.507 250.565 197.248 251.115 198.181 251.115ZM198.296 250.438C197.696 250.438 197.261 250.169 197.261 249.645C197.261 249.07 197.785 248.891 198.373 248.814C198.693 248.776 199.549 248.686 199.677 248.533V249.223C199.677 249.837 199.191 250.438 198.296 250.438ZM201.808 251H202.562V246.794H204.915V251H205.669V246.091H201.808V251ZM207.046 252.841H207.801V250.246H207.864C208.031 250.514 208.35 251.102 209.296 251.102C210.524 251.102 211.38 250.118 211.38 248.558C211.38 247.011 210.524 246.027 209.284 246.027C208.325 246.027 208.031 246.615 207.864 246.871H207.775V246.091H207.046V252.841ZM207.788 248.545C207.788 247.446 208.274 246.705 209.194 246.705C210.153 246.705 210.626 247.51 210.626 248.545C210.626 249.594 210.14 250.425 209.194 250.425C208.286 250.425 207.788 249.658 207.788 248.545Z" fill="#334669"/>
<path opacity="0.5" d="M241.185 233.455H236.301V240H237.094V234.158H240.392V240H241.185V233.455ZM242.4 235.794H244.024V240H244.778V235.794H246.389V235.091H242.4V235.794ZM247.797 239.105H246.979L246.94 239.463C246.848 240.329 246.665 241.192 246.582 241.598H247.158C247.311 241.163 247.637 240.179 247.746 239.45L247.797 239.105ZM233.184 244.455H232.391L230.755 245.541V246.347L232.353 245.286H232.391V251H233.184V244.455ZM240.295 249.977L238.607 246.091H237.61V251H238.365V247.174L239.988 251H240.602L242.225 247.245V251H242.98V246.091H242.008L240.295 249.977ZM245.805 251.115C246.661 251.115 247.109 250.655 247.262 250.335H247.301V251H248.055V247.766C248.055 246.206 246.866 246.027 246.24 246.027C245.498 246.027 244.654 246.283 244.271 247.178L244.987 247.433C245.153 247.075 245.546 246.692 246.265 246.692C246.959 246.692 247.301 247.059 247.301 247.689V247.714C247.301 248.079 246.93 248.047 246.035 248.162C245.124 248.28 244.13 248.482 244.13 249.607C244.13 250.565 244.872 251.115 245.805 251.115ZM245.92 250.438C245.319 250.438 244.884 250.169 244.884 249.645C244.884 249.07 245.409 248.891 245.997 248.814C246.316 248.776 247.173 248.686 247.301 248.533V249.223C247.301 249.837 246.815 250.438 245.92 250.438ZM252.385 251H253.101V246.091H251.081C250.023 246.091 249.38 246.644 249.38 247.548C249.38 248.223 249.719 248.702 250.31 248.903L249.112 251H249.93L251.068 249.006H252.385V251ZM252.385 248.303H250.991C250.457 248.303 250.135 248.018 250.135 247.548C250.135 247.072 250.493 246.781 251.081 246.781H252.385V248.303Z" fill="#334669"/>
<path opacity="0.5" d="M283.37 235.5C283.127 234.158 282.053 233.365 280.737 233.365C279.062 233.365 277.847 234.656 277.847 236.727C277.847 238.798 279.062 240.089 280.737 240.089C282.053 240.089 283.127 239.297 283.37 237.955H282.578C282.386 238.862 281.606 239.348 280.737 239.348C279.548 239.348 278.615 238.428 278.615 236.727C278.615 235.027 279.548 234.107 280.737 234.107C281.606 234.107 282.386 234.592 282.578 235.5H283.37ZM288.192 233.25C287.953 233.451 287.595 233.451 287.093 233.448C286.93 233.448 286.751 233.448 286.556 233.455C285.06 233.493 284.319 234.631 284.319 236.817V237.341C284.319 239.156 285.201 240.102 286.517 240.102C287.831 240.102 288.704 239.15 288.704 237.609C288.704 236.062 287.818 235.244 286.671 235.244C285.997 235.244 285.367 235.526 285.035 236.139H284.971C285.073 234.874 285.546 234.196 286.569 234.158C287.476 234.119 288.128 234.145 288.576 233.71L288.192 233.25ZM286.517 239.425C285.623 239.425 285.073 238.709 285.073 237.609C285.089 236.536 285.629 235.922 286.505 235.922C287.403 235.922 287.949 236.536 287.949 237.609C287.949 238.715 287.406 239.425 286.517 239.425ZM290.982 239.105H290.164L290.126 239.463C290.033 240.329 289.851 241.192 289.768 241.598H290.343C290.497 241.163 290.823 240.179 290.931 239.45L290.982 239.105ZM272.75 251H276.879V250.297H273.836V250.246L275.307 248.673C276.432 247.468 276.764 246.906 276.764 246.18C276.764 245.17 275.946 244.365 274.795 244.365C273.648 244.365 272.775 245.145 272.775 246.295H273.53C273.53 245.551 274.012 245.055 274.77 245.055C275.479 245.055 276.023 245.49 276.023 246.18C276.023 246.784 275.668 247.232 274.91 248.06L272.75 250.425V251ZM283.428 249.977L281.74 246.091H280.743V251H281.497V247.174L283.121 251H283.735L285.358 247.245V251H286.112V246.091H285.141L283.428 249.977ZM288.938 251.115C289.794 251.115 290.242 250.655 290.395 250.335H290.433V251H291.188V247.766C291.188 246.206 289.999 246.027 289.372 246.027C288.631 246.027 287.787 246.283 287.404 247.178L288.119 247.433C288.286 247.075 288.679 246.692 289.398 246.692C290.091 246.692 290.433 247.059 290.433 247.689V247.714C290.433 248.079 290.063 248.047 289.168 248.162C288.257 248.28 287.263 248.482 287.263 249.607C287.263 250.565 288.004 251.115 288.938 251.115ZM289.053 250.438C288.452 250.438 288.017 250.169 288.017 249.645C288.017 249.07 288.541 248.891 289.129 248.814C289.449 248.776 290.306 248.686 290.433 248.533V249.223C290.433 249.837 289.948 250.438 289.053 250.438ZM295.517 251H296.233V246.091H294.214C293.156 246.091 292.513 246.644 292.513 247.548C292.513 248.223 292.852 248.702 293.443 248.903L292.245 251H293.063L294.201 249.006H295.517V251ZM295.517 248.303H294.124C293.59 248.303 293.267 248.018 293.267 247.548C293.267 247.072 293.625 246.781 294.214 246.781H295.517V248.303Z" fill="#334669"/>
<path opacity="0.5" d="M321.591 240H323.956C325.503 240 326.142 239.246 326.142 238.261C326.142 237.226 325.426 236.663 324.825 236.625V236.561C325.388 236.408 325.886 236.037 325.886 235.193C325.886 234.234 325.247 233.455 323.879 233.455H321.591V240ZM322.384 239.297V237.021H323.994C324.851 237.021 325.388 237.597 325.388 238.261C325.388 238.837 324.992 239.297 323.956 239.297H322.384ZM322.384 236.331V234.158H323.879C324.749 234.158 325.132 234.618 325.132 235.193C325.132 235.884 324.57 236.331 323.854 236.331H322.384ZM329.337 240.102C330.423 240.102 331.139 239.438 331.267 238.568H330.513C330.372 239.105 329.925 239.425 329.337 239.425C328.442 239.425 327.866 238.683 327.866 237.545C327.866 236.433 328.454 235.705 329.337 235.705C330.001 235.705 330.398 236.114 330.513 236.561H331.267C331.139 235.641 330.359 235.027 329.324 235.027C327.994 235.027 327.112 236.075 327.112 237.571C327.112 239.041 327.956 240.102 329.337 240.102ZM333.495 239.105H332.676L332.638 239.463C332.545 240.329 332.363 241.192 332.28 241.598H332.855C333.009 241.163 333.335 240.179 333.443 239.45L333.495 239.105ZM315.75 251H319.879V250.297H316.836V250.246L318.307 248.673C319.432 247.468 319.764 246.906 319.764 246.18C319.764 245.17 318.946 244.365 317.795 244.365C316.648 244.365 315.775 245.145 315.775 246.295H316.53C316.53 245.551 317.012 245.055 317.77 245.055C318.479 245.055 319.023 245.49 319.023 246.18C319.023 246.784 318.668 247.232 317.91 248.06L315.75 250.425V251ZM326.428 249.977L324.74 246.091H323.743V251H324.497V247.174L326.121 251H326.735L328.358 247.245V251H329.112V246.091H328.141L326.428 249.977ZM331.938 251.115C332.794 251.115 333.242 250.655 333.395 250.335H333.433V251H334.188V247.766C334.188 246.206 332.999 246.027 332.372 246.027C331.631 246.027 330.787 246.283 330.404 247.178L331.119 247.433C331.286 247.075 331.679 246.692 332.398 246.692C333.091 246.692 333.433 247.059 333.433 247.689V247.714C333.433 248.079 333.063 248.047 332.168 248.162C331.257 248.28 330.263 248.482 330.263 249.607C330.263 250.565 331.004 251.115 331.938 251.115ZM332.053 250.438C331.452 250.438 331.017 250.169 331.017 249.645C331.017 249.07 331.541 248.891 332.129 248.814C332.449 248.776 333.306 248.686 333.433 248.533V249.223C333.433 249.837 332.948 250.438 332.053 250.438ZM338.517 251H339.233V246.091H337.214C336.156 246.091 335.513 246.644 335.513 247.548C335.513 248.223 335.852 248.702 336.443 248.903L335.245 251H336.063L337.201 249.006H338.517V251ZM338.517 248.303H337.124C336.59 248.303 336.267 248.018 336.267 247.548C336.267 247.072 336.625 246.781 337.214 246.781H338.517V248.303Z" fill="#334669"/>
<g filter="url(#filter0_d)">
<path d="M42 190.5L97 178.5L146 186L195 198L239 186L284 155L328 186" stroke="#FF7A00" stroke-width="1.5"/>
</g>
<defs>
<filter id="filter0_d" x="33.8401" y="150.086" width="302.592" height="60.6887" filterUnits="userSpaceOnUse" color-interpolation-filters="sRGB">
<feFlood flood-opacity="0" result="BackgroundImageFix"/>
<feColorMatrix in="SourceAlpha" type="matrix" values="0 0 0 0 0 0 0 0 0 0 0 0 0 0 0 0 0 0 127 0"/>
<feOffset dy="4"/>
<feGaussianBlur stdDeviation="4"/>
<feColorMatrix type="matrix" values="0 0 0 0 0.941176 0 0 0 0 0.631373 0 0 0 0 0.623529 0 0 0 0.6 0"/>
<feBlend mode="normal" in2="BackgroundImageFix" result="effect1_dropShadow"/>
<feBlend mode="normal" in="SourceGraphic" in2="effect1_dropShadow" result="shape"/>
</filter>
</defs>
</svg>
