<svg width="58" height="64" viewBox="0 0 58 64" fill="none" xmlns="http://www.w3.org/2000/svg">
<path d="M57.3408 60.7229L54.5095 44.1475C54.2044 42.3616 52.9375 40.927 51.2029 40.4038L48.9097 39.7118C45.6843 38.7387 43.6417 35.5649 41.3691 33.0778C40.5896 32.2246 39.6562 31.549 38.6281 31.078C38.1842 30.8746 38.0258 30.2896 38.3276 29.9058C39.9508 27.8414 40.8999 25.5894 41.2599 23.8945C41.3301 23.5639 41.6145 23.3153 41.9525 23.3153C43.4848 23.3153 44.7314 22.0688 44.7314 20.5364V19.1119C44.7314 17.284 43.291 15.5482 43.291 13.7204V13.2563C43.291 12.7386 42.8714 12.319 42.3538 12.319C41.8361 12.319 41.4166 12.7385 41.4166 13.2563V15.8019C41.4166 16.5532 40.863 17.1706 40.1706 17.4622C40.125 17.4789 40.0806 17.4981 40.0386 17.5212C39.9005 17.5842 39.7369 17.4853 39.7369 17.3335V10.1173C39.7369 8.03063 38.0394 6.33313 35.9528 6.33313H33.3659C32.4736 6.33313 31.602 6.644 30.9113 7.20875L30.6574 7.41625C30.1911 7.7975 29.6026 8.0075 29.0003 8.0075C28.3979 8.0075 27.8093 7.7975 27.343 7.41625L27.0893 7.20875C26.3985 6.64412 25.5269 6.33313 24.6346 6.33313H22.0475C19.9609 6.33313 18.2634 8.03063 18.2634 10.1173V17.3335C18.2634 17.4853 18.0997 17.5842 17.9616 17.5212C17.9196 17.4981 17.8754 17.4789 17.8298 17.4622C17.1374 17.1706 16.5838 16.5532 16.5838 15.8019V7.37813C16.5838 4.34338 19.0528 1.87437 22.0875 1.87437H35.9126C38.9475 1.87437 41.4164 4.34338 41.4164 7.37813V8.85137C41.4164 9.369 41.836 9.78862 42.3535 9.78862C42.871 9.78862 43.2908 9.36912 43.2908 8.85137V7.37813C43.2908 3.30988 39.9809 0 35.9126 0H22.0875C18.0191 0 14.7094 3.30988 14.7094 7.37813V13.7205C14.7094 15.5483 13.269 17.2841 13.269 19.112V20.5365C13.269 22.0689 14.5156 23.3154 16.0479 23.3154C16.3859 23.3154 16.6703 23.564 16.7405 23.8946C17.1004 25.5895 18.0496 27.8415 19.6728 29.9059C19.9743 30.2895 19.8161 30.8742 19.3728 31.078C17.5511 31.9158 16.0858 33.3756 15.2304 35.1683C14.4365 36.8322 13.2754 38.4492 11.5104 38.9817L6.79726 40.4038C5.06264 40.927 3.79564 42.3616 3.49064 44.1475L2.34089 50.8786C2.25376 51.3889 2.59676 51.873 3.10689 51.9601C3.61689 52.0475 4.10126 51.7044 4.18851 51.1941L5.33826 44.463C5.52276 43.3825 6.28926 42.5148 7.33864 42.1982L13.3052 40.398C13.8514 40.2332 14.4018 40.642 14.4018 41.2125C14.4018 41.623 14.1053 41.9673 13.7168 42.1C12.4016 42.5493 11.3232 43.5538 10.8378 44.872C10.6871 45.281 10.5935 45.7092 10.5595 46.1447L9.87689 54.9066C9.82539 55.5666 10.0538 56.2239 10.5031 56.7095C10.9525 57.1952 11.5899 57.474 12.2518 57.474H13.4203C13.9379 57.474 14.3575 57.0545 14.3575 56.5368C14.3575 56.019 13.9379 55.5996 13.4203 55.5996H12.2518C12.1106 55.5996 11.9749 55.5404 11.879 55.4366C11.7833 55.3331 11.7346 55.1931 11.7456 55.0525L12.4283 46.2905C12.4489 46.0266 12.5055 45.7673 12.5968 45.5196C12.9915 44.4478 14.0575 43.7219 15.2496 43.7135L15.404 43.7124C15.4113 43.7122 15.4184 43.7122 15.4255 43.7122C16.5841 43.7122 17.6098 44.3693 18.0424 45.3906C18.1638 45.677 18.2375 45.9798 18.2618 46.2905L18.9446 55.0526C18.9555 55.1931 18.9069 55.3331 18.8111 55.4367C18.7154 55.5402 18.5795 55.5996 18.4384 55.5996H17.2699C16.7523 55.5996 16.3326 56.0191 16.3326 56.5368C16.3326 57.0544 16.7523 57.474 17.2699 57.474H18.4384C19.1003 57.474 19.7378 57.1954 20.187 56.7095C20.6365 56.2236 20.8649 55.5665 20.8134 54.9067L20.1305 46.1447C20.0905 45.632 19.9686 45.1321 19.7683 44.6592C19.3202 43.6017 18.502 42.7781 17.4926 42.3011C16.8232 41.9847 16.276 41.3751 16.276 40.6348C16.276 39.962 16.7168 39.3686 17.3609 39.1743L17.7691 39.0511C18.763 38.7512 19.821 39.2248 20.2245 40.1814C20.5459 40.9435 20.968 41.9712 21.5224 43.3569C22.682 46.2586 24.1234 49.978 25.5058 53.5938C25.5156 53.6241 25.527 53.6538 25.5398 53.6828C26.4623 56.0966 27.3571 58.4609 28.1225 60.5004C28.2598 60.8661 28.6094 61.1084 29 61.1084C29.3906 61.1084 29.7403 60.8661 29.8775 60.5004C30.6428 58.4609 31.5376 56.0966 32.4603 53.6828C32.4731 53.6538 32.4844 53.624 32.4943 53.5938C33.8756 49.9801 35.3163 46.2631 36.4754 43.3623C37.0308 41.9739 37.4536 40.9446 37.7754 40.1815C38.1789 39.2249 39.237 38.7512 40.2309 39.0511C41.1174 39.3186 41.7239 40.1352 41.7239 41.061V42.1252C41.7239 43.8163 40.3844 45.1914 39.1973 46.3958C38.3342 47.2715 37.8008 48.4729 37.8008 49.7969C37.8008 52.4707 39.9761 54.6463 42.6501 54.6463C45.3241 54.6463 47.4995 52.4709 47.4995 49.7969C47.4995 48.1122 46.6359 46.6257 45.3282 45.7564C44.4162 45.1502 43.5983 44.2526 43.5983 43.1576C43.5983 41.6184 45.0833 40.5153 46.5569 40.9599L50.6615 42.1984C51.7109 42.5149 52.4773 43.3826 52.6619 44.4631L55.4931 61.0385C55.5401 61.3134 55.467 61.5821 55.2871 61.7952C55.1074 62.0083 54.8548 62.1258 54.5759 62.1258H3.42414C3.14526 62.1258 2.89276 62.0084 2.71289 61.7952C2.53314 61.5821 2.45989 61.3135 2.50689 61.0385L3.44126 55.5682C3.52839 55.058 3.18539 54.5739 2.67526 54.4868C2.16526 54.3993 1.68089 54.7426 1.59364 55.2528L0.659263 60.723C0.519888 61.5395 0.746263 62.3709 1.28026 63.004C1.81451 63.637 2.59589 64 3.42414 64H54.5759C55.4041 64 56.1856 63.637 56.7198 63.0039C57.2538 62.3708 57.4801 61.5394 57.3408 60.7229ZM41.4276 19.926C41.4276 19.3884 41.795 18.8741 42.3324 18.889C42.3778 18.8896 42.4229 18.887 42.4673 18.8814C42.648 18.8586 42.8568 18.9298 42.8568 19.112V20.5365C42.8568 21.0353 42.451 21.441 41.9523 21.441C41.6625 21.441 41.4276 21.2061 41.4276 20.9164V19.926ZM16.5724 20.9164C16.5724 21.2061 16.3375 21.441 16.0478 21.441C15.549 21.441 15.1433 21.0353 15.1433 20.5365V19.112C15.1433 18.9299 15.352 18.8588 15.5326 18.8815C15.5649 18.8856 15.5975 18.888 15.6304 18.8888C15.6552 18.8894 15.6799 18.8893 15.7046 18.89C15.7204 18.8904 15.7409 18.8912 15.7656 18.8924C16.2448 18.9154 16.5724 19.3485 16.5724 19.8282V20.9164ZM18.4468 22.4919V20.9298C18.4468 20.4811 18.914 20.1563 19.3281 19.9835C19.82 19.7782 20.1378 19.3016 20.1378 18.769V10.1173C20.1378 9.06425 20.9945 8.2075 22.0475 8.2075H24.6344C25.0954 8.2075 25.5458 8.36812 25.9026 8.65987L26.1564 8.86738C26.9565 9.52163 27.9664 9.88175 29 9.88175C30.0336 9.88175 31.0435 9.5215 31.8436 8.86738L32.0974 8.65987C32.4541 8.36812 32.9046 8.2075 33.3656 8.2075H35.9525C37.0055 8.2075 37.8623 9.06425 37.8623 10.1173V18.7691C37.8623 19.3016 38.18 19.7784 38.6719 19.9836C38.8361 20.0521 39.0081 20.0854 39.1786 20.0854C39.3681 20.0854 39.5533 20.221 39.5533 20.4105V22.4919C39.5533 23.8603 38.6073 26.5175 36.854 28.7472C36.2733 29.4859 35.5268 30.2794 34.6076 30.9729C34.5785 30.9924 34.5506 31.0135 34.524 31.036C33.1001 32.0887 31.2693 32.8952 29 32.8952C26.7308 32.8952 24.8999 32.0887 23.4759 31.0359C23.4493 31.0135 23.4215 30.9924 23.3925 30.973C22.4734 30.2794 21.7269 29.4859 21.146 28.7472C19.3929 26.5176 18.4468 23.8603 18.4468 22.4919ZM34.19 34.98C34.19 36.5527 34.1019 38.4097 32.8422 39.3512L31.5891 40.2878C30.0538 41.4354 27.9462 41.4354 26.4109 40.2878L25.1578 39.3512C23.8981 38.4097 23.81 36.5527 23.81 34.98C23.81 34.297 24.5448 33.8541 25.1849 34.0924C26.3142 34.5129 27.5835 34.7697 29 34.7697C30.4165 34.7697 31.6858 34.5129 32.8152 34.0924C33.4552 33.8541 34.19 34.297 34.19 34.98ZM21.9293 35.1394C21.8536 36.1074 20.6528 36.2539 19.7156 36.5081C19.6926 36.5135 19.6701 36.5196 19.6483 36.5261C18.1847 36.9678 16.8873 35.6589 17.8825 34.4984C18.3168 33.9918 18.8265 33.5504 19.3954 33.1925C20.6117 32.4274 21.9356 33.5431 21.9356 34.98C21.9356 35.033 21.9335 35.0862 21.9293 35.1394ZM23.8395 44.1111C23.8378 44.1068 23.836 44.1024 23.8344 44.0981C23.7869 43.978 23.74 43.8595 23.6935 43.7424C23.6851 43.7211 23.6768 43.7 23.6684 43.679C23.6229 43.5644 23.5778 43.4506 23.5333 43.3387C23.5301 43.3309 23.527 43.3231 23.5239 43.3151C23.385 42.966 23.2511 42.6311 23.1224 42.3102C23.113 42.287 23.1036 42.2634 23.0943 42.2402C23.0573 42.1483 23.0209 42.0576 22.9848 41.9681C22.9715 41.9352 22.9584 41.9028 22.9453 41.8703C22.9103 41.7835 22.8755 41.6973 22.8413 41.6129C22.831 41.5876 22.821 41.5631 22.8109 41.538C22.7488 41.3847 22.688 41.2354 22.6288 41.0897C22.6128 41.0504 22.5964 41.0103 22.5805 40.9714C22.5573 40.9146 22.5346 40.8594 22.5119 40.8037C22.4874 40.7437 22.4629 40.6842 22.4389 40.6258C22.4299 40.6039 22.4205 40.5807 22.4115 40.559C22.4043 40.5415 22.3976 40.5254 22.3905 40.508C22.2823 40.245 22.1794 39.9971 22.0818 39.764C22.081 39.7621 22.0801 39.7603 22.0794 39.7584C22.0274 39.6342 21.9765 39.513 21.9276 39.3975C21.907 39.3488 21.964 39.3041 22.0063 39.3358L25.4452 41.906C26.1939 42.4656 26.0539 43.6263 25.1936 43.9918L24.9269 44.1051C24.923 44.1068 24.919 44.1084 24.9151 44.1101L24.3803 44.3374C24.1685 44.4273 23.9243 44.3251 23.8395 44.1111ZM26.3543 48.3246C26.2752 48.758 25.6763 48.8143 25.5173 48.4035C25.2536 47.7226 25.0007 47.0719 24.7576 46.4491C24.7137 46.3366 24.7672 46.2096 24.8783 46.1623C24.9678 46.1243 25.0715 46.1485 25.1349 46.2222L26.2934 47.5689C26.3972 47.6895 26.4409 47.8506 26.4123 48.0072L26.3543 48.3246ZM29.0796 57.3045C29.0564 57.3658 28.9676 57.3709 28.9287 57.3181C28.9244 57.3123 28.921 57.3062 28.9185 57.2996C28.6019 56.4628 28.2219 55.4608 27.802 54.3581C27.5174 53.6105 27.4424 52.7993 27.5861 52.0124L28.1051 49.171C28.184 48.7388 28.5606 48.4248 29 48.4248C29.4394 48.4248 29.816 48.7388 29.8949 49.171L30.5461 52.7359C30.6033 53.0495 30.5735 53.3729 30.4599 53.6708C29.9349 55.0473 29.4612 56.296 29.0796 57.3045ZM30.3739 46.2439C30.2065 46.4385 29.9624 46.5505 29.7056 46.5505H28.2944C28.0376 46.5505 27.7936 46.4385 27.6261 46.2439C27.2368 45.7914 27.4003 45.0909 27.9497 44.8575L28.4882 44.6288C28.8153 44.4899 29.1848 44.4899 29.5118 44.6288L30.0503 44.8575C30.5997 45.0909 30.7632 45.7914 30.3739 46.2439ZM32.4828 48.4035C32.3237 48.8143 31.7249 48.7579 31.6457 48.3246L31.5877 48.0071C31.5591 47.8505 31.6028 47.6894 31.7066 47.5687L32.8651 46.2221C32.9285 46.1484 33.0322 46.1242 33.1217 46.1622C33.2329 46.2094 33.2863 46.3365 33.2424 46.449C32.9993 47.0718 32.7464 47.7226 32.4828 48.4035ZM36.0725 39.3975C36.0261 39.507 35.9779 39.6219 35.9288 39.7391C35.9224 39.7544 35.9159 39.7698 35.9095 39.7851C35.8609 39.9014 35.8114 40.0201 35.7601 40.1437C35.7568 40.1519 35.7533 40.1605 35.7499 40.1688C35.7056 40.2754 35.6603 40.3854 35.6141 40.4975C35.6055 40.5185 35.5974 40.5379 35.5888 40.559C35.5785 40.5841 35.5675 40.6107 35.5571 40.6361C35.5366 40.6861 35.5158 40.7371 35.4948 40.7881C35.469 40.851 35.4434 40.9136 35.417 40.978C35.4086 40.9985 35.4 41.0199 35.3915 41.0405C35.3263 41.2004 35.2593 41.3651 35.1908 41.5344C35.18 41.5609 35.1694 41.5869 35.1586 41.6138C35.1248 41.6974 35.0903 41.7827 35.0556 41.8686C35.0421 41.9023 35.0285 41.9357 35.0149 41.9697C34.9791 42.0584 34.943 42.1481 34.9065 42.2391C34.8963 42.2645 34.8859 42.2905 34.8756 42.316C34.7485 42.6325 34.6166 42.9626 34.4798 43.3066C34.4753 43.318 34.4708 43.3291 34.4663 43.3406C34.422 43.4518 34.3773 43.5647 34.332 43.6786C34.3236 43.6999 34.3151 43.7211 34.3066 43.7425C34.2599 43.8602 34.2128 43.9792 34.165 44.1001C34.1641 44.1024 34.1633 44.1046 34.1624 44.1068C34.0768 44.3232 33.8297 44.4267 33.6155 44.3357L33.0843 44.11C33.081 44.1086 33.0778 44.1072 33.0746 44.1059L32.7929 43.9862C31.9387 43.6233 31.7997 42.4708 32.5431 41.9152L35.9941 39.3359C36.0361 39.3045 36.0928 39.3492 36.0725 39.3975ZM38.352 36.5263C38.3518 36.5263 38.3517 36.5262 38.3515 36.5262C38.3514 36.5261 38.3512 36.5261 38.351 36.526C38.3506 36.5259 38.3501 36.5258 38.3497 36.5257C38.3491 36.5255 38.3486 36.5253 38.3481 36.5251C38.2878 36.5071 38.227 36.4913 38.166 36.4779C37.2895 36.2853 36.204 36.15 36.0838 35.2607C36.0711 35.1672 36.0645 35.0733 36.0645 34.98C36.0645 33.5417 37.3891 32.4216 38.6096 33.1827C39.2614 33.5891 39.8346 34.1049 40.3057 34.7041C41.1768 35.812 39.9648 37.0129 38.6156 36.6058L38.352 36.5263ZM45.6251 49.7969C45.6251 51.4374 44.2905 52.7719 42.6501 52.7719C41.0098 52.7719 39.6751 51.4374 39.6751 49.7969C39.6751 48.1564 41.0098 46.8219 42.6501 46.8219C44.2905 46.8219 45.6251 48.1564 45.6251 49.7969Z" fill="#334669"/>
</svg>
